<svg width="17" height="16" viewBox="0 0 17 16" fill="none" xmlns="http://www.w3.org/2000/svg">
<path d="M3.82244 12.8374H3.83382M15.7692 0.890625H15.7806M15.7692 15.1129H15.7806M10.9336 3.16618C10.9336 3.16618 10.9336 9.13958 6.09799 9.13958C10.9336 9.13958 10.9336 15.1129 10.9336 15.1129C10.9336 15.1129 10.9336 9.13958 15.7692 9.13958C10.9336 9.13958 10.9336 3.16618 10.9336 3.16618ZM4.10688 0.890625C4.10688 0.890625 4.10688 3.45064 1.54688 3.45064C4.10688 3.45064 4.10688 6.01067 4.10688 6.01067C4.10688 6.01067 4.10688 3.45064 6.66689 3.45064C4.10688 3.45064 4.10688 0.890625 4.10688 0.890625Z" stroke="#F33BC0" stroke-width="1.70668" stroke-linecap="round" stroke-linejoin="round"/>
</svg>
