<svg width="15" height="21" viewBox="0 0 15 21" fill="none" xmlns="http://www.w3.org/2000/svg">
<path d="M4.25 8.24V4.5C4.25 3.12 5.37 2 6.75 2C8.13 2 9.25 3.12 9.25 4.5V8.24C10.46 7.43 11.25 6.06 11.25 4.5C11.25 2.01 9.24 0 6.75 0C4.26 0 2.25 2.01 2.25 4.5C2.25 6.06 3.04 7.43 4.25 8.24ZM14.09 12.87L9.55 10.61C9.38 10.54 9.2 10.5 9.01 10.5H8.25V4.5C8.25 3.67 7.58 3 6.75 3C5.92 3 5.25 3.67 5.25 4.5V15.24C1.65 14.48 1.71 14.49 1.58 14.49C1.27 14.49 0.99 14.62 0.79 14.82L0 15.62L4.94 20.56C5.21 20.83 5.59 21 6 21H12.79C13.54 21 14.12 20.45 14.23 19.72L14.98 14.45C14.99 14.38 15 14.31 15 14.25C15 13.63 14.62 13.09 14.09 12.87Z" fill="#F1ACED"/>
</svg>
