<svg width="57" height="46" viewBox="0 0 57 46" fill="none" xmlns="http://www.w3.org/2000/svg">
<path d="M21.5655 4.20305C24.7244 -0.59431 32.5508 -0.558837 35.6529 4.2669L55.1961 34.669C58.2982 39.4948 54.3495 45.4915 48.0884 45.4631L8.64378 45.2843C2.38272 45.2559 -1.4949 39.2237 1.66406 34.4264L21.5655 4.20305Z" fill="#FF7CEC"/>
<path d="M5.27441 38.8464V35.5067C5.27441 34.276 7.30469 34.1033 7.57506 35.311L8.00836 37.2465C8.11726 37.7329 8.42519 38.1677 8.87432 38.4693L11.1285 39.9829C12.1762 40.6864 11.2844 42.1319 10.0384 41.7499L6.82957 40.7663C5.89811 40.4807 5.27441 39.7108 5.27441 38.8464Z" fill="white"/>
<path d="M24.1182 16.4506C23.9745 13.9335 25.977 11.8135 28.4982 11.8135C31.0194 11.8135 33.0219 13.9335 32.8782 16.4506L32.4257 24.3758C32.3069 26.4579 30.5838 28.0855 28.4982 28.0855C26.4127 28.0855 24.6895 26.4579 24.5707 24.3757L24.1182 16.4506Z" fill="white"/>
<ellipse cx="28.4982" cy="34.1867" rx="3.48352" ry="3.051" fill="white"/>
</svg>
