<svg version="1.1" id="Capa_1" xmlns="http://www.w3.org/2000/svg" xmlns:xlink="http://www.w3.org/1999/xlink" x="0px" y="0px" viewBox="0 0 409.6 409.6" style="enable-background:new 0 0 409.6 409.6;" xml:space="preserve" width="300" height="300" xmlns:svgjs="http://svgjs.dev/svgjs"><g width="100%" height="100%" transform="matrix(1,0,0,1,0,0)"><g>
	<g>
		<path d="M208.169,93.865c51.835-0.031,93.885-42.03,93.885-93.865C250.204,0,208.169,41.999,208.169,93.865z" fill="#5c5d5e" fill-opacity="1" data-original-color="#000000ff" stroke="none" stroke-opacity="1"/>
	</g>
</g><g>
	<g>
		<path d="M295.189,217.6c0-33.265,24.013-61.537,57.564-72.202c-21.248-26.332-52.096-42.998-86.564-42.998&#10;&#9;&#9;&#9;c-22.318,0-45.722,12.902-45.722,12.902c-6.763,3.732-17.828,3.732-24.602,0c0,0-23.398-12.902-45.716-12.902&#10;&#9;&#9;&#9;c-64.067,0-116.035,57.298-116.014,128c0,98.898,45.43,179.2,101.514,179.2c26.849,0,59.75-15.534,59.75-15.534&#10;&#9;&#9;&#9;c7.035-3.328,18.534-3.328,25.549,0c0,0,32.886,15.534,59.735,15.534c43.351,0,80.215-48.036,94.781-115.502&#10;&#9;&#9;&#9;C330.557,291.067,295.189,258.002,295.189,217.6z" fill="#5c5d5e" fill-opacity="1" data-original-color="#000000ff" stroke="none" stroke-opacity="1"/>
	</g>
</g><g>
</g><g>
</g><g>
</g><g>
</g><g>
</g><g>
</g><g>
</g><g>
</g><g>
</g><g>
</g><g>
</g><g>
</g><g>
</g><g>
</g><g>
</g></g></svg>