<svg width="95" height="91" viewBox="0 0 95 91" fill="none" xmlns="http://www.w3.org/2000/svg">
<mask id="path-1-inside-1_1038_337" fill="white">
<path d="M0.299805 25.1289C0.299805 11.3218 11.4927 0.128906 25.2998 0.128906H90.5498C92.6209 0.128906 94.2998 1.80784 94.2998 3.87891V87.6289C94.2998 89.0096 93.1805 90.1289 91.7998 90.1289H3.2998C1.64295 90.1289 0.299805 88.7858 0.299805 87.1289V25.1289Z"/>
</mask>
<path d="M0.299805 25.1289C0.299805 11.3218 11.4927 0.128906 25.2998 0.128906H90.5498C92.6209 0.128906 94.2998 1.80784 94.2998 3.87891V87.6289C94.2998 89.0096 93.1805 90.1289 91.7998 90.1289H3.2998C1.64295 90.1289 0.299805 88.7858 0.299805 87.1289V25.1289Z" fill="white" stroke="#FB64D2" stroke-opacity="0.25" stroke-width="10" mask="url(#path-1-inside-1_1038_337)"/>
<path d="M33.9725 75.1289H31.9024V69.0198H34.0143C34.6208 69.0198 35.1419 69.1421 35.5774 69.3867C36.0149 69.6293 36.3509 69.9783 36.5856 70.4337C36.8203 70.8891 36.9376 71.434 36.9376 72.0684C36.9376 72.7048 36.8193 73.2516 36.5826 73.709C36.348 74.1664 36.0089 74.5174 35.5654 74.762C35.124 75.0066 34.593 75.1289 33.9725 75.1289ZM33.009 74.1714H33.9188C34.3444 74.1714 34.6994 74.0938 34.9838 73.9387C35.2681 73.7816 35.4819 73.5479 35.6251 73.2377C35.7683 72.9255 35.8399 72.5357 35.8399 72.0684C35.8399 71.6011 35.7683 71.2133 35.6251 70.905C35.4819 70.5948 35.2701 70.3631 34.9897 70.21C34.7113 70.0549 34.3653 69.9773 33.9517 69.9773H33.009V74.1714ZM39.9399 75.2184C39.4925 75.2184 39.1047 75.12 38.7766 74.9231C38.4485 74.7262 38.1939 74.4508 38.0129 74.0968C37.834 73.7428 37.7445 73.3292 37.7445 72.8559C37.7445 72.3826 37.834 71.968 38.0129 71.612C38.1939 71.256 38.4485 70.9796 38.7766 70.7827C39.1047 70.5859 39.4925 70.4874 39.9399 70.4874C40.3874 70.4874 40.7752 70.5859 41.1033 70.7827C41.4314 70.9796 41.685 71.256 41.8639 71.612C42.0449 71.968 42.1354 72.3826 42.1354 72.8559C42.1354 73.3292 42.0449 73.7428 41.8639 74.0968C41.685 74.4508 41.4314 74.7262 41.1033 74.9231C40.7752 75.12 40.3874 75.2184 39.9399 75.2184ZM39.9459 74.3533C40.1885 74.3533 40.3914 74.2867 40.5544 74.1535C40.7175 74.0183 40.8388 73.8373 40.9183 73.6106C40.9999 73.3839 41.0406 73.1313 41.0406 72.8529C41.0406 72.5725 40.9999 72.319 40.9183 72.0923C40.8388 71.8636 40.7175 71.6816 40.5544 71.5464C40.3914 71.4112 40.1885 71.3435 39.9459 71.3435C39.6973 71.3435 39.4905 71.4112 39.3254 71.5464C39.1624 71.6816 39.0401 71.8636 38.9585 72.0923C38.879 72.319 38.8392 72.5725 38.8392 72.8529C38.8392 73.1313 38.879 73.3839 38.9585 73.6106C39.0401 73.8373 39.1624 74.0183 39.3254 74.1535C39.4905 74.2867 39.6973 74.3533 39.9459 74.3533ZM43.8662 75.1289L42.5716 70.5471H43.6724L44.4778 73.7687H44.5195L45.3428 70.5471H46.4316L47.2549 73.7508H47.2996L48.0931 70.5471H49.1968L47.8992 75.1289H46.7746L45.9155 72.0326H45.8529L44.9938 75.1289H43.8662ZM51.0306 72.4442V75.1289H49.9507V70.5471H50.9828V71.3256H51.0365C51.1419 71.0691 51.31 70.8653 51.5406 70.7141C51.7733 70.563 52.0607 70.4874 52.4027 70.4874C52.7189 70.4874 52.9943 70.555 53.229 70.6903C53.4656 70.8255 53.6486 71.0214 53.7779 71.2779C53.9091 71.5344 53.9737 71.8457 53.9717 72.2116V75.1289H52.8919V72.3786C52.8919 72.0724 52.8124 71.8327 52.6533 71.6597C52.4962 71.4867 52.2784 71.4002 52 71.4002C51.8111 71.4002 51.6431 71.442 51.4959 71.5255C51.3507 71.607 51.2364 71.7254 51.1529 71.8805C51.0713 72.0356 51.0306 72.2235 51.0306 72.4442ZM56.1493 69.0198V75.1289H55.0695V69.0198H56.1493ZM59.2583 75.2184C58.8108 75.2184 58.4231 75.12 58.0949 74.9231C57.7668 74.7262 57.5123 74.4508 57.3313 74.0968C57.1523 73.7428 57.0628 73.3292 57.0628 72.8559C57.0628 72.3826 57.1523 71.968 57.3313 71.612C57.5123 71.256 57.7668 70.9796 58.0949 70.7827C58.4231 70.5859 58.8108 70.4874 59.2583 70.4874C59.7057 70.4874 60.0935 70.5859 60.4216 70.7827C60.7498 70.9796 61.0033 71.256 61.1823 71.612C61.3633 71.968 61.4537 72.3826 61.4537 72.8559C61.4537 73.3292 61.3633 73.7428 61.1823 74.0968C61.0033 74.4508 60.7498 74.7262 60.4216 74.9231C60.0935 75.12 59.7057 75.2184 59.2583 75.2184ZM59.2643 74.3533C59.5069 74.3533 59.7097 74.2867 59.8728 74.1535C60.0358 74.0183 60.1572 73.8373 60.2367 73.6106C60.3182 73.3839 60.359 73.1313 60.359 72.8529C60.359 72.5725 60.3182 72.319 60.2367 72.0923C60.1572 71.8636 60.0358 71.6816 59.8728 71.5464C59.7097 71.4112 59.5069 71.3435 59.2643 71.3435C59.0157 71.3435 58.8089 71.4112 58.6438 71.5464C58.4807 71.6816 58.3584 71.8636 58.2769 72.0923C58.1974 72.319 58.1576 72.5725 58.1576 72.8529C58.1576 73.1313 58.1974 73.3839 58.2769 73.6106C58.3584 73.8373 58.4807 74.0183 58.6438 74.1535C58.8089 74.2867 59.0157 74.3533 59.2643 74.3533ZM63.6887 75.2214C63.3984 75.2214 63.1369 75.1697 62.9042 75.0663C62.6735 74.9609 62.4906 74.8058 62.3553 74.6009C62.2221 74.3961 62.1555 74.1435 62.1555 73.8433C62.1555 73.5847 62.2032 73.371 62.2987 73.2019C62.3941 73.0329 62.5244 72.8977 62.6894 72.7962C62.8545 72.6948 63.0404 72.6183 63.2472 72.5665C63.4561 72.5129 63.6718 72.4741 63.8945 72.4502C64.163 72.4224 64.3808 72.3975 64.5478 72.3756C64.7149 72.3518 64.8362 72.316 64.9117 72.2683C64.9893 72.2185 65.0281 72.142 65.0281 72.0386V72.0207C65.0281 71.796 64.9615 71.6219 64.8282 71.4987C64.695 71.3754 64.5031 71.3137 64.2525 71.3137C63.988 71.3137 63.7782 71.3714 63.6231 71.4867C63.47 71.6021 63.3666 71.7383 63.3129 71.8954L62.3046 71.7522C62.3842 71.4738 62.5154 71.2411 62.6984 71.0542C62.8813 70.8653 63.1051 70.7241 63.3695 70.6306C63.634 70.5352 63.9264 70.4874 64.2465 70.4874C64.4673 70.4874 64.687 70.5133 64.9058 70.565C65.1245 70.6167 65.3244 70.7022 65.5053 70.8215C65.6863 70.9388 65.8315 71.0989 65.9409 71.3018C66.0522 71.5046 66.1079 71.7582 66.1079 72.0624V75.1289H65.0698V74.4995H65.034C64.9684 74.6268 64.8759 74.7461 64.7566 74.8575C64.6393 74.9668 64.4911 75.0553 64.3122 75.1229C64.1352 75.1886 63.9274 75.2214 63.6887 75.2214ZM63.9691 74.4279C64.1859 74.4279 64.3738 74.3852 64.5329 74.2996C64.692 74.2121 64.8143 74.0968 64.8998 73.9536C64.9873 73.8104 65.0311 73.6543 65.0311 73.4853V72.9454C64.9972 72.9732 64.9396 72.9991 64.858 73.0229C64.7785 73.0468 64.689 73.0677 64.5896 73.0856C64.4901 73.1035 64.3917 73.1194 64.2943 73.1333C64.1968 73.1472 64.1123 73.1592 64.0407 73.1691C63.8796 73.191 63.7355 73.2268 63.6082 73.2765C63.4809 73.3262 63.3805 73.3958 63.3069 73.4853C63.2333 73.5728 63.1965 73.6862 63.1965 73.8254C63.1965 74.0242 63.2691 74.1744 63.4143 74.2758C63.5595 74.3772 63.7444 74.4279 63.9691 74.4279ZM68.894 75.2094C68.534 75.2094 68.2119 75.117 67.9275 74.932C67.6431 74.7471 67.4184 74.4786 67.2534 74.1266C67.0883 73.7746 67.0058 73.3471 67.0058 72.844C67.0058 72.3349 67.0893 71.9053 67.2563 71.5553C67.4254 71.2033 67.6531 70.9379 67.9394 70.7589C68.2258 70.5779 68.545 70.4874 68.897 70.4874C69.1654 70.4874 69.3862 70.5332 69.5592 70.6246C69.7322 70.7141 69.8694 70.8225 69.9708 70.9498C70.0722 71.0751 70.1508 71.1934 70.2065 71.3048H70.2512V69.0198H71.334V75.1289H70.2721V74.407H70.2065C70.1508 74.5184 70.0703 74.6367 69.9649 74.762C69.8595 74.8853 69.7203 74.9907 69.5472 75.0782C69.3742 75.1657 69.1565 75.2094 68.894 75.2094ZM69.1953 74.3235C69.424 74.3235 69.6188 74.2619 69.7799 74.1386C69.941 74.0133 70.0633 73.8393 70.1468 73.6165C70.2303 73.3938 70.2721 73.1343 70.2721 72.838C70.2721 72.5417 70.2303 72.2842 70.1468 72.0654C70.0653 71.8467 69.944 71.6766 69.7829 71.5553C69.6238 71.434 69.4279 71.3734 69.1953 71.3734C68.9546 71.3734 68.7538 71.436 68.5927 71.5613C68.4316 71.6866 68.3103 71.8596 68.2288 72.0803C68.1472 72.3011 68.1065 72.5536 68.1065 72.838C68.1065 73.1244 68.1472 73.3799 68.2288 73.6046C68.3123 73.8273 68.4346 74.0033 68.5957 74.1326C68.7588 74.2599 68.9586 74.3235 69.1953 74.3235Z" fill="#A9A9A9"/>
<path d="M37.2009 42.0328H36.072C36.0398 41.8477 35.9804 41.6837 35.8939 41.5408C35.8074 41.396 35.6997 41.2732 35.5709 41.1726C35.4421 41.072 35.2952 40.9965 35.1302 40.9462C34.9672 40.8939 34.7912 40.8677 34.602 40.8677C34.266 40.8677 33.9681 40.9522 33.7085 41.1213C33.449 41.2883 33.2457 41.5338 33.0988 41.8578C32.9519 42.1797 32.8785 42.5732 32.8785 43.038C32.8785 43.5109 32.9519 43.9093 33.0988 44.2333C33.2477 44.5553 33.451 44.7988 33.7085 44.9638C33.9681 45.1268 34.2649 45.2083 34.599 45.2083C34.7841 45.2083 34.9572 45.1841 35.1182 45.1358C35.2812 45.0855 35.4271 45.0121 35.5558 44.9155C35.6866 44.8189 35.7963 44.7002 35.8849 44.5593C35.9754 44.4184 36.0378 44.2575 36.072 44.0763L37.2009 44.0824C37.1586 44.3762 37.0671 44.6519 36.9262 44.9094C36.7874 45.167 36.6053 45.3944 36.3799 45.5916C36.1545 45.7868 35.8909 45.9397 35.589 46.0504C35.2872 46.1591 34.9521 46.2134 34.5839 46.2134C34.0406 46.2134 33.5556 46.0877 33.129 45.8361C32.7024 45.5846 32.3663 45.2214 32.1208 44.7464C31.8753 44.2715 31.7526 43.7021 31.7526 43.038C31.7526 42.3719 31.8763 41.8024 32.1238 41.3295C32.3714 40.8546 32.7084 40.4914 33.135 40.2399C33.5616 39.9883 34.0446 39.8626 34.5839 39.8626C34.928 39.8626 35.248 39.9109 35.5438 40.0075C35.8396 40.104 36.1032 40.2459 36.3346 40.4331C36.566 40.6182 36.7562 40.8456 36.9051 41.1152C37.056 41.3829 37.1546 41.6887 37.2009 42.0328ZM40.2005 46.2195C39.7477 46.2195 39.3553 46.1199 39.0233 45.9206C38.6913 45.7214 38.4337 45.4427 38.2506 45.0845C38.0695 44.7263 37.9789 44.3078 37.9789 43.8288C37.9789 43.3499 38.0695 42.9303 38.2506 42.5701C38.4337 42.2099 38.6913 41.9302 39.0233 41.731C39.3553 41.5318 39.7477 41.4322 40.2005 41.4322C40.6533 41.4322 41.0457 41.5318 41.3777 41.731C41.7097 41.9302 41.9663 42.2099 42.1474 42.5701C42.3305 42.9303 42.4221 43.3499 42.4221 43.8288C42.4221 44.3078 42.3305 44.7263 42.1474 45.0845C41.9663 45.4427 41.7097 45.7214 41.3777 45.9206C41.0457 46.1199 40.6533 46.2195 40.2005 46.2195ZM40.2065 45.3441C40.452 45.3441 40.6573 45.2767 40.8223 45.1419C40.9873 45.005 41.1101 44.8219 41.1906 44.5925C41.2731 44.3631 41.3143 44.1075 41.3143 43.8258C41.3143 43.5421 41.2731 43.2855 41.1906 43.0561C41.1101 42.8247 40.9873 42.6406 40.8223 42.5037C40.6573 42.3669 40.452 42.2985 40.2065 42.2985C39.955 42.2985 39.7457 42.3669 39.5787 42.5037C39.4137 42.6406 39.2899 42.8247 39.2074 43.0561C39.1269 43.2855 39.0867 43.5421 39.0867 43.8258C39.0867 44.1075 39.1269 44.3631 39.2074 44.5925C39.2899 44.8219 39.4137 45.005 39.5787 45.1419C39.7457 45.2767 39.955 45.3441 40.2065 45.3441ZM43.3495 47.8675V41.4925H44.4241V42.2592H44.4875C44.5438 42.1465 44.6233 42.0268 44.7259 41.9C44.8286 41.7712 44.9674 41.6616 45.1425 41.571C45.3176 41.4785 45.5409 41.4322 45.8126 41.4322C46.1708 41.4322 46.4938 41.5237 46.7815 41.7069C47.0713 41.888 47.3007 42.1566 47.4697 42.5128C47.6408 42.867 47.7263 43.3016 47.7263 43.8168C47.7263 44.3259 47.6428 44.7585 47.4758 45.1147C47.3087 45.4709 47.0814 45.7425 46.7936 45.9297C46.5058 46.1168 46.1798 46.2104 45.8156 46.2104C45.55 46.2104 45.3296 46.1661 45.1546 46.0776C44.9795 45.9891 44.8386 45.8824 44.732 45.7576C44.6273 45.6309 44.5458 45.5111 44.4875 45.3984H44.4422V47.8675H43.3495ZM44.4211 43.8107C44.4211 44.1106 44.4633 44.3732 44.5479 44.5985C44.6344 44.8239 44.7581 45 44.9191 45.1268C45.0821 45.2515 45.2793 45.3139 45.5107 45.3139C45.7522 45.3139 45.9545 45.2495 46.1175 45.1207C46.2805 44.9899 46.4032 44.8118 46.4857 44.5865C46.5702 44.3591 46.6125 44.1005 46.6125 43.8107C46.6125 43.523 46.5712 43.2674 46.4887 43.044C46.4062 42.8207 46.2835 42.6456 46.1205 42.5188C45.9575 42.392 45.7542 42.3287 45.5107 42.3287C45.2773 42.3287 45.0791 42.39 44.9161 42.5128C44.7531 42.6355 44.6294 42.8076 44.5448 43.0289C44.4623 43.2503 44.4211 43.5109 44.4211 43.8107ZM49.1835 47.8675C49.0345 47.8675 48.8967 47.8555 48.7699 47.8313C48.6452 47.8092 48.5456 47.783 48.4711 47.7528L48.7247 46.9016C48.8836 46.9479 49.0255 46.9701 49.1503 46.968C49.275 46.966 49.3847 46.9268 49.4793 46.8503C49.5759 46.7759 49.6574 46.6511 49.7238 46.476L49.8173 46.2255L48.1361 41.4925H49.2951L50.3637 44.994H50.412L51.4835 41.4925H52.6456L50.7893 46.6903C50.7028 46.9358 50.5881 47.1461 50.4452 47.3212C50.3023 47.4983 50.1272 47.6331 49.92 47.7257C49.7147 47.8203 49.4692 47.8675 49.1835 47.8675ZM55.5585 46.1289V39.9471H56.6783V45.1902H59.401V46.1289H55.5585ZM60.3246 46.1289V41.4925H61.4173V46.1289H60.3246ZM60.874 40.8345C60.7009 40.8345 60.552 40.7772 60.4272 40.6625C60.3025 40.5458 60.2401 40.4059 60.2401 40.2429C60.2401 40.0779 60.3025 39.938 60.4272 39.8233C60.552 39.7066 60.7009 39.6483 60.874 39.6483C61.0491 39.6483 61.198 39.7066 61.3207 39.8233C61.4455 39.938 61.5079 40.0779 61.5079 40.2429C61.5079 40.4059 61.4455 40.5458 61.3207 40.6625C61.198 40.7772 61.0491 40.8345 60.874 40.8345ZM63.6336 43.4123V46.1289H62.5409V41.4925H63.5853V42.2804H63.6396C63.7463 42.0208 63.9163 41.8145 64.1498 41.6616C64.3852 41.5086 64.676 41.4322 65.0221 41.4322C65.3421 41.4322 65.6208 41.5006 65.8582 41.6374C66.0977 41.7743 66.2828 41.9725 66.4136 42.2321C66.5464 42.4917 66.6118 42.8066 66.6098 43.1768V46.1289H65.5171V43.3459C65.5171 43.036 65.4366 42.7935 65.2757 42.6184C65.1167 42.4434 64.8963 42.3558 64.6146 42.3558C64.4234 42.3558 64.2534 42.3981 64.1045 42.4826C63.9576 42.5651 63.8419 42.6848 63.7574 42.8418C63.6749 42.9988 63.6336 43.1889 63.6336 43.4123ZM68.7167 44.674L68.7137 43.3549H68.8888L70.555 41.4925H71.8318L69.7822 43.7745H69.5558L68.7167 44.674ZM67.7206 46.1289V39.9471H68.8133V46.1289H67.7206ZM70.6304 46.1289L69.1212 44.019L69.8577 43.2493L71.9374 46.1289H70.6304Z" fill="#A1A1A1"/>
<path d="M32.6869 20.1289H31.5056L33.6563 14.0198H35.0225L37.1762 20.1289H35.995L34.3633 15.2727H34.3156L32.6869 20.1289ZM32.7257 17.7336H35.9472V18.6225H32.7257V17.7336ZM37.9331 20.1289V15.5471H38.9802V16.3107H39.0279C39.1114 16.0462 39.2546 15.8424 39.4574 15.6992C39.6623 15.554 39.8959 15.4815 40.1584 15.4815C40.2181 15.4815 40.2847 15.4844 40.3583 15.4904C40.4339 15.4944 40.4965 15.5013 40.5462 15.5113V16.5046C40.5005 16.4887 40.4279 16.4748 40.3285 16.4629C40.231 16.4489 40.1366 16.442 40.0451 16.442C39.8482 16.442 39.6712 16.4847 39.5141 16.5702C39.359 16.6538 39.2367 16.7701 39.1472 16.9192C39.0577 17.0684 39.013 17.2404 39.013 17.4353V20.1289H37.9331ZM43.0735 20.2184C42.6161 20.2184 42.2234 20.118 41.8953 19.9171C41.5691 19.7163 41.3176 19.4388 41.1406 19.0849C40.9656 18.7289 40.8781 18.3192 40.8781 17.8559C40.8781 17.3906 40.9676 16.9799 41.1465 16.6239C41.3255 16.266 41.5781 15.9876 41.9042 15.7887C42.2323 15.5879 42.6201 15.4874 43.0676 15.4874C43.4394 15.4874 43.7686 15.556 44.0549 15.6933C44.3433 15.8285 44.573 16.0204 44.744 16.269C44.915 16.5156 45.0124 16.8039 45.0363 17.134H44.0042C43.9624 16.9133 43.863 16.7293 43.7059 16.5822C43.5508 16.433 43.343 16.3585 43.0825 16.3585C42.8617 16.3585 42.6678 16.4181 42.5008 16.5374C42.3338 16.6548 42.2035 16.8238 42.11 17.0445C42.0186 17.2653 41.9728 17.5298 41.9728 17.838C41.9728 18.1502 42.0186 18.4187 42.11 18.6434C42.2015 18.8661 42.3298 19.0381 42.4948 19.1594C42.6619 19.2788 42.8578 19.3384 43.0825 19.3384C43.2416 19.3384 43.3838 19.3086 43.509 19.2489C43.6363 19.1873 43.7427 19.0988 43.8282 18.9835C43.9137 18.8681 43.9724 18.7279 44.0042 18.5629H45.0363C45.0105 18.887 44.915 19.1744 44.7499 19.4249C44.5849 19.6735 44.3602 19.8684 44.0758 20.0096C43.7914 20.1488 43.4573 20.2184 43.0735 20.2184ZM47.0028 17.4442V20.1289H45.923V14.0198H46.979V16.3256H47.0327C47.14 16.0671 47.3061 15.8633 47.5308 15.7141C47.7575 15.563 48.0459 15.4874 48.3959 15.4874C48.714 15.4874 48.9915 15.554 49.2281 15.6873C49.4648 15.8205 49.6477 16.0154 49.777 16.2719C49.9082 16.5285 49.9738 16.8417 49.9738 17.2116V20.1289H48.894V17.3786C48.894 17.0704 48.8145 16.8308 48.6554 16.6597C48.4983 16.4867 48.2775 16.4002 47.9932 16.4002C47.8023 16.4002 47.6312 16.442 47.4801 16.5255C47.3309 16.607 47.2136 16.7254 47.1281 16.8805C47.0446 17.0356 47.0028 17.2235 47.0028 17.4442ZM51.0746 20.1289V15.5471H52.1544V20.1289H51.0746ZM51.6175 14.8968C51.4464 14.8968 51.2993 14.8401 51.176 14.7268C51.0527 14.6114 50.991 14.4732 50.991 14.3121C50.991 14.1491 51.0527 14.0109 51.176 13.8975C51.2993 13.7822 51.4464 13.7245 51.6175 13.7245C51.7905 13.7245 51.9376 13.7822 52.0589 13.8975C52.1822 14.0109 52.2439 14.1491 52.2439 14.3121C52.2439 14.4732 52.1822 14.6114 52.0589 14.7268C51.9376 14.8401 51.7905 14.8968 51.6175 14.8968ZM57.3574 15.5471L55.7257 20.1289H54.5325L52.9009 15.5471H54.0523L55.1053 18.9506H55.153L56.209 15.5471H57.3574ZM59.9772 20.2184C59.5178 20.2184 59.1211 20.1229 58.787 19.932C58.4549 19.7391 58.1993 19.4667 58.0204 19.1147C57.8414 18.7607 57.7519 18.3441 57.7519 17.8648C57.7519 17.3935 57.8414 16.9799 58.0204 16.6239C58.2013 16.266 58.4539 15.9876 58.778 15.7887C59.1022 15.5879 59.483 15.4874 59.9205 15.4874C60.2029 15.4874 60.4694 15.5332 60.7199 15.6246C60.9725 15.7141 61.1952 15.8533 61.3881 16.0423C61.583 16.2312 61.7361 16.4718 61.8475 16.7641C61.9589 17.0545 62.0145 17.4005 62.0145 17.8022V18.1333H58.259V17.4055H60.9795C60.9775 17.1987 60.9327 17.0147 60.8452 16.8536C60.7577 16.6906 60.6354 16.5623 60.4783 16.4688C60.3232 16.3754 60.1422 16.3286 59.9354 16.3286C59.7147 16.3286 59.5208 16.3823 59.3537 16.4897C59.1867 16.5951 59.0564 16.7343 58.963 16.9073C58.8715 17.0783 58.8248 17.2663 58.8228 17.4711V18.1065C58.8228 18.3729 58.8715 18.6016 58.9689 18.7925C59.0664 18.9815 59.2026 19.1266 59.3776 19.2281C59.5526 19.3275 59.7574 19.3772 59.9921 19.3772C60.1492 19.3772 60.2914 19.3553 60.4187 19.3116C60.5459 19.2658 60.6563 19.1992 60.7498 19.1117C60.8432 19.0242 60.9138 18.9158 60.9616 18.7866L61.9698 18.8999C61.9062 19.1664 61.7849 19.3991 61.6059 19.5979C61.4289 19.7948 61.2022 19.9479 60.9258 20.0573C60.6493 20.1647 60.3331 20.2184 59.9772 20.2184Z" fill="#999999"/>
<path opacity="0.4" d="M22.3992 38.4668H17.0927C14.7849 38.4668 13.4092 39.8404 13.4092 42.1444V47.4424C13.4092 49.7465 14.7849 51.12 17.0927 51.12H22.3992C24.7069 51.12 26.0827 49.7465 26.0827 47.4424V42.1444C26.0827 39.8404 24.7069 38.4668 22.3992 38.4668Z" fill="#FB64D2"/>
<path d="M19.8697 48.2026C19.4259 48.2026 18.9758 48.0317 18.6398 47.6962C18.3101 47.3671 18.1262 46.9303 18.1262 46.4683C18.1262 46.0062 18.3101 45.5631 18.6398 45.2403L19.5337 44.3478C19.7176 44.1642 20.0219 44.1642 20.2057 44.3478C20.3896 44.5313 20.3896 44.8352 20.2057 45.0187L19.3118 45.9112C19.1597 46.0632 19.0772 46.2594 19.0772 46.4683C19.0772 46.6771 19.1597 46.8797 19.3118 47.0253C19.6225 47.3354 20.1233 47.3354 20.434 47.0253L21.8414 45.6201C22.6466 44.8162 22.6466 43.5123 21.8414 42.7084C21.0363 41.9045 19.7303 41.9045 18.9251 42.7084L17.3908 44.2402C17.0675 44.563 16.89 44.9871 16.89 45.4365C16.89 45.8859 17.0675 46.3163 17.3908 46.6328C17.5747 46.8164 17.5747 47.1202 17.3908 47.3038C17.2069 47.4873 16.9026 47.4873 16.7188 47.3038C16.2179 46.8037 15.9453 46.1391 15.9453 45.4302C15.9453 44.7212 16.2179 44.0566 16.7188 43.5566L18.2531 42.0247C19.4259 40.8537 21.3406 40.8537 22.5135 42.0247C23.6864 43.1958 23.6864 45.1073 22.5135 46.2784L21.106 47.6836C20.7637 48.0317 20.3199 48.2026 19.8697 48.2026Z" fill="black"/>
</svg>
