<svg version="1.1" id="Capa_1" xmlns="http://www.w3.org/2000/svg" xmlns:xlink="http://www.w3.org/1999/xlink" x="0px" y="0px" viewBox="0 0 512 512" style="enable-background:new 0 0 512 512;" xml:space="preserve" width="300" height="300" xmlns:svgjs="http://svgjs.dev/svgjs"><g width="100%" height="100%" transform="matrix(1,0,0,1,0,0)"><g>
	<g>
		<path d="M440.32,122.88H30.72C13.783,122.88,0,136.663,0,153.6v204.8c0,16.937,13.783,30.72,30.72,30.72h409.6&#10;&#9;&#9;&#9;c16.937,0,30.72-13.783,30.72-30.72V153.6C471.04,136.663,457.257,122.88,440.32,122.88z M450.56,358.4&#10;&#9;&#9;&#9;c0,5.632-4.608,10.24-10.24,10.24H30.72c-5.652,0-10.24-4.608-10.24-10.24V153.6c0-5.652,4.588-10.24,10.24-10.24h409.6&#10;&#9;&#9;&#9;c5.632,0,10.24,4.588,10.24,10.24V358.4z" fill="#5c5d5e" fill-opacity="1" data-original-color="#000000ff" stroke="none" stroke-opacity="1"/>
	</g>
</g><g>
	<g>
		<path d="M481.28,184.32H460.8c-5.652,0-10.24,4.588-10.24,10.24v122.88c0,5.652,4.588,10.24,10.24,10.24h20.48&#10;&#9;&#9;&#9;c16.937,0,30.72-13.783,30.72-30.72v-81.92C512,198.103,498.217,184.32,481.28,184.32z M491.52,296.96&#10;&#9;&#9;&#9;c0,5.632-4.608,10.24-10.24,10.24h-10.24V204.8h10.24c5.632,0,10.24,4.588,10.24,10.24V296.96z" fill="#5c5d5e" fill-opacity="1" data-original-color="#000000ff" stroke="none" stroke-opacity="1"/>
	</g>
</g><g>
	<g>
		<rect x="40.96" y="163.84" width="81.92" height="184.32" fill="#5c5d5e" fill-opacity="1" data-original-color="#000000ff" stroke="none" stroke-opacity="1"/>
	</g>
</g><g>
	<g>
		<rect x="143.36" y="163.84" width="81.92" height="184.32" fill="#5c5d5e" fill-opacity="1" data-original-color="#000000ff" stroke="none" stroke-opacity="1"/>
	</g>
</g><g>
	<g>
		<rect x="245.76" y="163.84" width="81.92" height="184.32" fill="#5c5d5e" fill-opacity="1" data-original-color="#000000ff" stroke="none" stroke-opacity="1"/>
	</g>
</g><g>
</g><g>
</g><g>
</g><g>
</g><g>
</g><g>
</g><g>
</g><g>
</g><g>
</g><g>
</g><g>
</g><g>
</g><g>
</g><g>
</g><g>
</g></g></svg>