<svg width="113" height="25" viewBox="0 0 113 25" fill="none" xmlns="http://www.w3.org/2000/svg">
<path d="M61.8461 0.458804C62.448 0.899657 62.7781 1.53194 62.8815 2.21962C63.0133 3.67447 62.4948 4.88433 61.4559 6.00455C61.3401 6.12402 61.2215 6.23971 61.0995 6.35395C61.0471 6.40322 61.0471 6.40322 60.9936 6.45348C60.5246 6.86161 59.8134 7.2539 59.1604 7.33398C58.9853 7.31008 58.9853 7.31008 58.8267 7.20849C58.721 7.07105 58.721 7.07105 58.7303 6.93305C58.7764 6.77562 58.8333 6.68822 58.9424 6.55993C59.143 6.31212 59.3051 6.05576 59.461 5.78326C59.4883 5.73569 59.5156 5.68813 59.5437 5.63913C59.885 5.03162 60.1597 4.39476 60.3067 3.72459C60.3228 3.65396 60.3228 3.65396 60.3393 3.58192C60.4015 3.27194 60.427 2.9634 60.4355 2.64894C60.4373 2.61233 60.4391 2.57571 60.441 2.53799C60.4427 2.34245 60.4277 2.26204 60.2986 2.09767C60.1193 1.98554 60.0445 1.96983 59.831 2.00355C58.5091 2.64411 57.7146 4.10118 57.1783 5.30519C57.162 5.3418 57.1457 5.37841 57.1289 5.41613C56.8546 6.04703 56.6472 6.68861 56.4681 7.34593C56.4525 7.40291 56.4525 7.40291 56.4366 7.46104C56.2858 8.01376 56.1485 8.56039 56.0783 9.12673C56.0714 9.17753 56.0644 9.22833 56.0573 9.28067C55.7638 11.4605 55.5753 14.5892 56.9768 16.4889C56.9966 16.5175 57.0165 16.5461 57.0369 16.5756C57.2387 16.8318 57.5659 16.9819 57.9028 17.0363C58.5558 17.0633 59.0601 16.7134 59.532 16.3442C60.7686 15.2868 61.4052 13.6927 61.8923 12.261C62.4648 10.5811 63.2116 8.92015 64.5879 7.64472C64.623 7.61003 64.6581 7.57533 64.6943 7.53959C65.3276 6.92829 66.3338 6.37557 67.2732 6.33154C67.3801 6.32991 67.4871 6.32944 67.5941 6.33004C67.6779 6.33045 67.6779 6.33045 67.7634 6.33087C68.402 6.34411 68.8444 6.50697 69.292 6.92763C69.3362 6.96885 69.3805 7.01008 69.426 7.05256C69.8881 7.49757 70.197 7.86184 70.1773 8.49273C70.1318 8.93472 69.8942 9.34779 69.7041 9.75157C69.4862 10.2219 69.3396 10.7115 69.2359 11.2123C69.2273 11.2536 69.2187 11.2948 69.2099 11.3374C68.8251 13.0625 68.8251 13.0625 69.2392 14.7201C69.2566 14.7359 69.2741 14.7516 69.292 14.7679C69.6337 14.7616 69.8469 14.6531 70.0849 14.4333C71.2154 13.1351 71.727 11.104 72.0405 9.50918C72.053 9.44816 72.053 9.44816 72.0657 9.3859C72.1485 8.9752 72.1996 8.5638 72.2381 8.148C72.2414 8.11193 72.2448 8.07586 72.2483 8.0387C72.265 7.85744 72.2809 7.67617 72.2954 7.49475C72.3728 6.57268 72.3728 6.57268 72.7821 6.23462C73.1957 5.94885 73.6412 5.86763 74.1547 5.92369C74.7599 6.09838 75.0488 6.43088 75.3307 6.92464C75.4765 7.22063 75.5371 7.51218 75.5805 7.83155C75.6088 8.03039 75.6368 8.16706 75.7932 8.31402C75.8112 8.26601 75.8292 8.218 75.8477 8.16854C76.1862 7.29265 76.6826 6.59396 77.5996 6.13116C78.0429 5.94093 78.5202 5.89738 79.0012 6.00268C79.487 6.18101 79.8205 6.52308 80.0744 6.92763C80.0913 6.95427 80.1082 6.98092 80.1256 7.00837C80.2823 7.27067 80.3569 7.53352 80.4246 7.824C80.4358 7.87019 80.447 7.91639 80.4585 7.96399C80.5355 8.28627 80.6048 8.60894 80.6559 8.9355C80.7082 8.9355 80.7605 8.9355 80.8144 8.9355C80.8324 8.88749 80.8504 8.83949 80.8689 8.79003C81.2022 7.92812 81.694 7.17898 82.6115 6.7364C82.8949 6.61804 83.1491 6.59895 83.4572 6.64079C83.9963 6.8308 84.2438 7.17535 84.4713 7.63576C84.9618 8.72969 84.9593 9.85159 84.948 11.0118C84.9464 11.1987 84.9456 11.3856 84.9449 11.5725C84.9432 11.9365 84.9405 12.3004 84.9371 12.6644C85.1144 12.4591 85.2798 12.2637 85.3957 12.0235C85.4184 11.9767 85.4412 11.9299 85.4647 11.8817C85.4995 11.8077 85.4995 11.8077 85.535 11.7322C85.5599 11.6801 85.5848 11.628 85.6104 11.5743C85.8645 11.0361 86.0964 10.4913 86.3113 9.93944C86.3271 9.89916 86.3428 9.85888 86.359 9.81738C86.6441 9.07679 86.8153 8.32716 86.8894 7.54612C86.953 6.91443 87.2221 6.33061 87.7719 5.91379C88.1128 5.69308 88.3741 5.59292 88.7955 5.63685C89.1086 5.72662 89.3224 5.89397 89.5355 6.11491C89.6876 6.52768 89.5502 6.88561 89.3887 7.27732C89.2872 7.52831 89.2366 7.76058 89.2184 8.02718C89.216 8.06013 89.2137 8.09309 89.2112 8.12705C89.1373 9.46118 89.7671 10.6153 90.3301 11.816C90.3669 11.8946 90.4038 11.9733 90.4406 12.0519C90.4589 12.0909 90.4772 12.1298 90.496 12.17C92.2134 15.8371 92.2134 15.8371 91.7044 17.2354C91.4405 17.7858 90.9835 18.1249 90.3812 18.3534C90.322 18.3764 90.322 18.3764 90.2616 18.3999C89.556 18.6329 88.7874 18.5192 88.1214 18.2458C86.9834 17.7184 85.8556 16.8268 85.1485 15.8674C85.0694 16.2124 84.9924 16.555 84.9404 16.9043C84.8688 17.3356 84.7675 17.7581 84.4086 18.0665C84.084 18.2467 83.6732 18.1847 83.3184 18.1084C82.9261 18.0008 82.5719 17.81 82.3472 17.4929C82.1194 17.062 82.2223 16.5883 82.3858 16.1547C83.0307 14.3876 83.3217 12.293 83.074 10.4444C83.0653 10.3769 83.0653 10.3769 83.0565 10.3081C83.0156 10.0394 82.956 9.77685 82.7701 9.55699C82.5744 9.44693 82.4178 9.43955 82.1887 9.46137C81.9459 9.6001 81.8329 9.77612 81.713 10.0052C81.6948 10.0393 81.6766 10.0734 81.6579 10.1086C81.0924 11.1905 80.9319 12.3597 80.7748 13.5369C80.7587 13.6541 80.7425 13.7713 80.7263 13.8885C80.6839 14.1975 80.6415 14.5064 80.603 14.8157C80.5975 14.859 80.5919 14.9023 80.5862 14.9468C80.5463 15.291 80.5491 15.6299 80.558 15.9756C80.5599 16.0963 80.5618 16.217 80.5636 16.3378C80.5665 16.526 80.57 16.7142 80.5752 16.9024C80.58 17.0854 80.5824 17.2685 80.5844 17.4516C80.5865 17.5076 80.5886 17.5636 80.5907 17.6212C80.592 17.9548 80.5431 18.1378 80.2805 18.3776C80.013 18.5679 79.7712 18.5796 79.4402 18.5446C79.2457 18.4953 79.0657 18.4258 78.8819 18.3504C78.8353 18.3327 78.7888 18.315 78.7408 18.2967C78.3109 18.126 77.8624 17.9042 77.6735 17.4959C77.5526 17.1034 77.6965 16.6778 77.7852 16.2917C77.8149 16.1583 77.844 16.0247 77.8731 15.8912C77.8805 15.8572 77.8879 15.8233 77.8956 15.7883C78.1467 14.6283 78.3175 13.4542 78.476 12.2813C78.4874 12.1969 78.4989 12.1126 78.5105 12.0282C78.7812 10.2263 78.7812 10.2263 78.2774 8.55305C78.1202 8.48195 78.0304 8.48462 77.8545 8.50524C77.3435 8.72109 77.0747 9.24975 76.8668 9.69742C76.6885 10.1483 76.5871 10.6187 76.4803 11.0868C76.4688 11.1362 76.4574 11.1857 76.4456 11.2366C76.271 11.9955 76.1417 12.7536 76.0575 13.5249C76.0532 13.5598 76.049 13.5947 76.0446 13.6307C75.9712 14.2347 75.9416 14.8361 75.9354 15.4434C75.9351 15.4791 75.9347 15.5148 75.9343 15.5516C75.9311 15.8852 75.9291 16.2189 75.9276 16.5526C75.9268 16.7373 75.9252 16.9221 75.9232 17.1069C75.9225 17.1764 75.9222 17.246 75.9222 17.3155C75.9222 17.4121 75.9212 17.5086 75.9201 17.6052C75.9198 17.6599 75.9195 17.7145 75.9193 17.7708C75.8904 17.9864 75.8136 18.15 75.6346 18.2966C75.2381 18.5096 74.7052 18.4185 74.2802 18.3265C73.7326 18.181 73.2623 17.9276 72.939 17.4929C72.6949 17.0264 72.8468 16.5143 73.0018 16.0437C73.2279 15.3077 73.3572 14.5679 73.4676 13.8118C73.4777 13.7433 73.4777 13.7433 73.488 13.6734C73.6068 12.8328 73.6066 11.9808 73.6261 11.1346C73.5913 11.1346 73.5564 11.1346 73.5204 11.1346C73.5052 11.1691 73.4899 11.2036 73.4742 11.2392C73.4382 11.3205 73.4011 11.4015 73.3619 11.4816C73.3013 11.6319 73.2764 11.7742 73.2495 11.9324C73.0001 13.2297 72.4263 14.5128 71.796 15.6942C71.7798 15.7248 71.7635 15.7554 71.7468 15.7869C71.2914 16.6397 70.7628 17.5701 69.718 17.9086C69.2119 18.0399 68.7594 17.9866 68.2878 17.7797C68.1343 17.6952 67.9995 17.6004 67.8649 17.4929C67.8329 17.4678 67.8009 17.4427 67.7679 17.4169C67.5118 17.2019 67.3436 16.9566 67.1778 16.6802C67.1577 16.647 67.1375 16.6139 67.1167 16.5797C66.9997 16.3785 66.9151 16.1744 66.8403 15.9575C66.8095 15.8646 66.8095 15.8646 66.755 15.7718C66.6329 15.7718 66.5108 15.7718 66.385 15.7718C66.3772 15.7997 66.3695 15.8275 66.3615 15.8562C66.0765 16.7985 65.4086 17.4294 64.5351 17.9709C64.229 18.1037 63.9631 18.1113 63.6382 18.0247C63.2763 17.8991 63.0067 17.7438 62.738 17.4929C62.7061 17.4655 62.6741 17.4381 62.6412 17.41C62.3778 17.1671 62.258 16.894 62.1331 16.5788C62.0653 16.4344 62.0653 16.4344 61.9258 16.3827C61.7762 16.3824 61.7762 16.3824 61.6516 16.4902C61.5197 16.6353 61.4102 16.7853 61.3043 16.9461C61.0652 17.2948 60.7851 17.5856 60.4652 17.8753C60.4267 17.9107 60.3882 17.9461 60.3486 17.9825C59.8482 18.4141 59.2135 18.6858 58.5625 18.8793C58.5232 18.891 58.484 18.9028 58.4435 18.9149C57.7116 19.0967 57.0105 18.9752 56.3481 18.6639C55.9472 18.4487 55.6192 18.1663 55.2854 17.8753C55.2506 17.8469 55.2158 17.8184 55.1799 17.789C53.9229 16.7334 53.4523 14.9956 53.2241 13.5249C53.219 13.4922 53.214 13.4595 53.2087 13.4258C52.9768 11.9133 52.9258 10.4075 53.1184 8.88769C53.1235 8.84708 53.1286 8.80647 53.1339 8.76463C53.4711 6.21181 54.6068 3.52496 56.554 1.6211C56.5888 1.58573 56.6236 1.55035 56.6595 1.51391C57.933 0.280295 60.1559 -0.568127 61.8461 0.458804Z" fill="#F8F0F2"/>
<path d="M50.9228 6.4027C51.0052 6.51089 51.0052 6.51089 50.9959 6.66286C50.9473 6.86953 50.8662 7.03048 50.7613 7.21718C49.8377 8.94282 49.604 10.8824 49.3913 12.7695C49.3803 12.8656 49.3692 12.9616 49.3562 13.0575C49.3206 13.3236 49.3082 13.5857 49.3067 13.8537C49.3062 13.9188 49.3062 13.9188 49.3056 13.9852C49.3047 14.1245 49.3044 14.2639 49.3042 14.4033C49.3041 14.4507 49.304 14.4981 49.304 14.547C49.3039 15.2107 49.3248 15.8557 49.4563 16.5103C49.4738 16.6001 49.4873 16.6905 49.5004 16.781C49.5665 17.2343 49.736 17.6536 49.9932 18.0459C50.111 18.2336 50.1629 18.362 50.1086 18.5809C50.0101 18.7222 49.9053 18.7985 49.7394 18.8694C49.187 18.9692 48.7811 18.7885 48.3239 18.5251C47.4071 17.9081 47.0759 16.5226 46.9073 15.5561C46.8722 15.3359 46.8446 15.1148 46.8198 14.8935C46.8153 14.7273 46.8153 14.7273 46.733 14.5896C46.6988 14.6589 46.6988 14.6589 46.6639 14.7296C45.2445 17.6013 45.2445 17.6013 44.3068 18.0519C43.9961 18.1464 43.6301 18.161 43.3234 18.0491C42.5738 17.6195 42.2542 16.7527 42.066 16.0027C41.9098 15.3438 41.8633 14.6877 41.841 14.0156C41.8398 13.9794 41.8386 13.9433 41.8373 13.906C41.834 13.8018 41.8312 13.6977 41.8287 13.5935C41.8272 13.5329 41.8257 13.4724 41.8242 13.41C41.8276 13.2529 41.8474 13.1085 41.8806 12.9546C41.587 12.9408 41.3944 12.9438 41.1422 13.0989C41.0306 13.1976 41.0306 13.1976 40.9839 13.3393C40.9972 13.485 41.0149 13.6275 41.0367 13.7721C41.0436 13.819 41.0505 13.8659 41.0576 13.9142C41.0819 14.0753 41.1069 14.2363 41.1323 14.3973C41.1415 14.4559 41.1507 14.5146 41.1602 14.575C41.2379 15.0655 41.3222 15.5549 41.4096 16.0441C41.426 16.1363 41.4423 16.2285 41.4586 16.3208C41.4674 16.3702 41.4762 16.4197 41.4852 16.4706C41.7698 18.1091 42.0157 20.0423 41.5114 21.6585C41.4984 21.7022 41.4854 21.7458 41.472 21.7908C41.1416 22.8793 40.6103 24.0621 39.4989 24.6655C38.8075 24.9911 38.0078 25.098 37.2523 24.9014C36.5898 24.6848 36.0924 24.3692 35.6041 23.9186C35.5728 23.8906 35.5414 23.8625 35.5091 23.8335C35.1165 23.4524 34.833 22.934 34.7075 22.4279C34.6935 22.3757 34.6796 22.3234 34.6652 22.2696C34.0657 19.9768 35.0636 17.595 36.3693 15.6466C36.8697 14.9135 37.4235 14.2193 38.028 13.5546C38.4761 13.0833 38.4761 13.0833 38.5271 12.4922C38.4918 12.2325 38.4323 11.9799 38.3666 11.7254C38.3458 11.6447 38.3458 11.6447 38.3245 11.5624C38.2329 11.2187 38.1293 10.881 38.0006 10.5473C37.9865 10.5089 37.9723 10.4706 37.9578 10.4312C37.9128 10.3141 37.9128 10.3141 37.8193 10.1656C37.6847 10.1291 37.6847 10.1291 37.5556 10.1175C37.5406 10.1613 37.5256 10.2051 37.5101 10.2503C36.9563 11.8592 36.3507 13.4522 35.5684 14.9821C35.5016 15.1128 35.436 15.244 35.3707 15.3754C34.9221 16.2693 34.3011 17.4812 33.27 17.9133C32.9394 18.0102 32.5874 18.0119 32.2681 17.8806C32.1682 17.8262 32.1682 17.8262 32.0703 17.7634C32.0194 17.7309 32.0194 17.7309 31.9675 17.6977C31.6725 17.4853 31.4773 17.2191 31.273 16.936C31.1807 16.802 31.1807 16.802 31.0682 16.7055C31.0476 16.7399 31.0271 16.7743 31.006 16.8097C30.6239 17.4301 30.1711 18.1242 29.3804 18.3405C28.9626 18.3842 28.582 18.3531 28.22 18.1481C27.8558 17.8763 27.6684 17.557 27.5871 17.1383C27.5751 16.9712 27.5746 16.8048 27.5756 16.6375C27.5757 16.5891 27.5759 16.5407 27.5761 16.4909C27.5815 15.9977 27.6275 15.5095 27.6773 15.0187C27.7633 14.1591 27.8194 13.304 27.8179 12.4407C27.8179 12.3988 27.818 12.3569 27.8181 12.3137C27.8511 11.0427 27.8511 11.0427 27.3234 9.92512C27.0397 9.74163 26.7755 9.64878 26.4268 9.68468C25.8593 9.89807 25.5397 10.4381 25.3093 10.929C24.452 12.9727 24.2323 15.4013 24.0932 17.572C24.09 17.6205 24.09 17.6205 24.0868 17.67C24.081 17.7606 24.0758 17.8511 24.0706 17.9417C24.0413 18.2102 23.9649 18.4164 23.7587 18.6123C23.4497 18.8268 23.1063 18.8094 22.7347 18.7733C22.1641 18.6865 21.5777 18.4651 21.2052 18.0519C21.0671 17.6744 21.1935 17.2794 21.2726 16.8999C21.7665 14.5125 22.1383 11.964 21.7853 9.54042C21.78 9.50347 21.7746 9.46653 21.7691 9.42846C21.6622 8.73073 21.4439 8.09735 21.0605 7.48317C20.9785 7.29186 20.9857 7.18843 21.0469 6.99177C21.2592 6.74426 21.559 6.54625 21.8908 6.46281C22.3634 6.4102 22.7494 6.49085 23.1356 6.7457C23.8635 7.30505 24.1442 8.05752 24.3277 8.88109C24.359 9.04986 24.359 9.04986 24.4225 9.15572C24.6346 8.89606 24.84 8.6372 25.0225 8.35926C25.3803 7.83975 25.8824 7.41621 26.5413 7.25682C27.1631 7.15425 27.6536 7.24767 28.19 7.54328C29.2127 8.20147 29.4621 9.31414 29.6968 10.3579C29.7138 10.4294 29.7308 10.5008 29.7479 10.5722C29.977 11.586 29.9857 12.6303 30.0188 13.661C30.0243 13.8265 30.0303 13.9918 30.0364 14.1572C30.0378 14.2076 30.0392 14.258 30.0407 14.3099C30.0425 14.3565 30.0443 14.4032 30.0461 14.4512C30.0474 14.492 30.0487 14.5328 30.0501 14.5749C30.0672 14.6939 30.1062 14.7747 30.1715 14.8782C30.2238 14.8782 30.276 14.8782 30.3298 14.8782C30.5899 14.475 30.627 14.0633 30.6728 13.6057C30.883 11.6092 31.5134 9.41009 32.9669 7.85735C33.0047 7.81253 33.0047 7.81253 33.0432 7.76681C33.4465 7.2982 34.0679 6.96558 34.7075 6.84751C34.8029 6.84581 34.8984 6.84675 34.9939 6.84957C35.0764 6.85111 35.0764 6.85111 35.1605 6.85267C35.2757 6.85523 35.3908 6.85836 35.5058 6.86207C35.8327 6.86703 36.0341 6.86138 36.2898 6.65516C36.3292 6.62522 36.3686 6.59528 36.4093 6.56443C36.4438 6.53585 36.4784 6.50728 36.5139 6.47783C36.7006 6.32382 36.8132 6.24905 37.075 6.25449C37.7318 6.34858 38.2734 6.92532 38.6632 7.37647C38.7822 7.54852 38.8836 7.72648 38.983 7.90844C39.0101 7.95698 39.0371 8.00552 39.065 8.05552C39.5618 8.95461 39.9083 9.85456 40.1665 10.8339C40.1813 10.8883 40.1961 10.9427 40.2113 10.9988C40.2243 11.0479 40.2373 11.0969 40.2506 11.1475C40.3001 11.2763 40.3346 11.3375 40.4565 11.4158C40.9999 11.4071 41.498 11.1856 41.8806 10.8388C42.138 10.5491 42.259 10.2127 42.3877 9.86472C42.6194 9.2458 42.9311 8.67328 43.3574 8.14588C43.3892 8.1062 43.4209 8.06653 43.4536 8.02566C44.0574 7.30554 44.8379 6.61133 45.8479 6.42975C46.3149 6.3819 46.7956 6.37728 47.2509 6.48873C47.5672 6.54971 47.8876 6.56346 48.1768 6.42674C48.2225 6.39104 48.2682 6.35533 48.3153 6.31854C49.0366 5.83248 50.2103 5.93631 50.9228 6.4027Z" fill="#F8F0F2"/>
<path d="M8.80841 0.296591C9.2238 0.648674 9.47657 1.24298 9.59542 1.73669C9.60996 1.79223 9.62449 1.84778 9.63947 1.90501C9.98796 3.34561 9.65105 4.94277 9.22661 6.34499C9.26702 6.32827 9.30744 6.31155 9.34907 6.29433C10.6806 5.76025 12.3773 5.21499 13.8357 5.63088C14.7772 5.97836 15.339 6.58869 15.7302 7.41393C15.9705 7.94254 15.9705 7.94254 15.9705 8.19781C16.1714 8.03582 16.2949 7.85171 16.4316 7.64553C16.8274 7.06416 17.299 6.42984 18.078 6.24997C18.6888 6.18727 19.1327 6.28688 19.6224 6.61519C21.0839 7.75432 21.787 9.65283 21.9769 11.3334C22.0856 12.7893 21.8066 14.204 21.2392 15.5616C21.2258 15.5942 21.2123 15.6269 21.1985 15.6605C20.7621 16.713 20.1286 17.998 18.9737 18.5546C18.937 18.5741 18.9002 18.5936 18.8624 18.6136C18.3811 18.831 17.7661 18.8082 17.2511 18.7061C16.4221 18.4467 15.9138 17.9242 15.5161 17.2422C15.1977 16.6423 14.9778 16.0298 14.8641 15.3716C14.8539 15.3131 14.8437 15.2546 14.8332 15.1943C14.735 14.5443 14.725 13.8887 14.7061 13.2337C14.6183 13.2309 14.5304 13.2311 14.4426 13.2337C14.3599 13.2984 14.3599 13.2984 14.301 13.397C14.2743 13.4362 14.2475 13.4754 14.2199 13.5158C14.1508 13.6235 14.0819 13.7314 14.0133 13.8394C13.5002 14.6442 12.8922 15.3747 12.2298 16.0842C12.2086 16.1072 12.1874 16.1302 12.1655 16.1538C11.7745 16.5774 11.3625 16.9763 10.9289 17.3646C10.8298 17.4535 10.7313 17.5428 10.6328 17.6322C10.2682 17.9614 9.89751 18.2684 9.49005 18.5546C9.42924 18.5987 9.36846 18.6428 9.3077 18.6869C8.434 19.3026 7.25204 20.0469 6.08968 19.9977C5.73381 19.9488 5.49015 19.7846 5.2646 19.5373C5.05772 19.2593 4.90207 18.9537 4.74822 18.6496C4.72737 18.6103 4.70652 18.5709 4.68504 18.5303C4.55817 18.1749 4.57583 17.7159 4.76139 17.3818C5.14318 16.8427 5.698 16.4112 6.22346 15.9892C6.26665 15.9532 6.30985 15.9172 6.35435 15.8801C6.65517 15.6301 6.97042 15.4016 7.29346 15.1758C7.42267 15.0854 7.55059 14.9938 7.67749 14.9008C8.14127 14.5609 8.61862 14.2422 9.10529 13.9295C9.2658 13.8261 9.4255 13.7216 9.5852 13.6172C9.74332 13.5139 9.9018 13.411 10.0603 13.3082C10.1347 13.2598 10.2091 13.2113 10.2833 13.1627C10.8054 12.8204 11.3412 12.5053 11.894 12.2046C12.8112 11.6994 13.3811 10.9926 13.6523 10.0506C13.7481 9.64217 13.7769 9.24411 13.7775 8.8273C13.7787 8.77188 13.78 8.71645 13.7814 8.65935C13.7827 8.30112 13.7565 8.01515 13.4688 7.74413C13.1994 7.53065 12.9673 7.51318 12.6218 7.51655C11.578 7.6095 10.5648 8.27844 9.8177 8.90728C9.71328 8.99497 9.60617 9.07748 9.49664 9.15986C9.00369 9.54778 8.57371 10.0141 8.17288 10.4782C8.15069 10.5038 8.12851 10.5293 8.10565 10.5556C7.77219 10.9427 7.48345 11.3432 7.21816 11.7711C6.69043 12.6218 6.69043 12.6218 6.22346 12.8061C5.78272 12.881 5.42863 12.7361 5.06434 12.5211C4.68583 12.2467 4.37616 11.8947 4.22135 11.4759C4.18684 11.0635 4.39385 10.8288 4.67248 10.5287C5.19459 9.95187 5.63 9.33214 6.01271 8.6729C6.03561 8.63348 6.0585 8.59406 6.08209 8.55345C7.02139 6.91337 8.14444 4.19646 7.60978 2.31569C7.60194 2.28461 7.59409 2.25353 7.58601 2.22151C7.54088 2.06526 7.50257 1.98482 7.36158 1.88274C7.10386 1.78678 6.88744 1.80185 6.63507 1.89109C6.35201 2.0499 6.15106 2.23008 5.95673 2.47306C5.93202 2.50382 5.90731 2.53457 5.88185 2.56625C3.24226 5.91363 2.69264 10.6836 3.26311 15.9892C3.42421 16.8188 3.69713 17.5849 4.17457 18.3112C4.31071 18.5187 4.37086 18.644 4.32673 18.8872C4.14548 19.1398 3.91812 19.2995 3.59466 19.3903C3.07853 19.4809 2.57789 19.3925 2.13692 19.1396C1.04665 18.4329 0.418144 17.3628 0.180919 16.1822C0.106705 15.7714 0.0786175 15.356 0.0492016 14.941C0.0447743 14.8787 0.0403469 14.8163 0.0357855 14.752C-0.178675 11.3851 0.573515 7.75897 2.21925 4.72971C2.24245 4.6867 2.26565 4.64369 2.28956 4.59939C3.23522 2.86311 4.68997 0.775519 6.82318 0.11361C7.48475 -0.0432202 8.23632 -0.0838307 8.80841 0.296591Z" fill="#F8F0F3"/>
<path d="M102.778 1.0014C102.837 1.00149 102.837 1.00149 102.898 1.00158C105.085 1.00783 107.527 1.40827 109.264 2.64024C109.372 2.71547 109.481 2.78851 109.59 2.86155C110.03 3.1556 110.461 3.45106 110.862 3.78538C110.902 3.81728 110.941 3.84917 110.983 3.88203C111.962 4.692 112.586 5.87646 112.799 7.03091C112.807 7.06817 112.814 7.10543 112.821 7.14382C113.091 8.56549 113.101 10.0874 112.53 11.4524C112.512 11.4966 112.512 11.4966 112.493 11.5417C112.034 12.6439 111.288 13.5593 110.377 14.4157C110.344 14.447 110.311 14.4782 110.278 14.5105C108.953 15.7221 106.735 16.8123 104.791 16.8657C104.735 16.8665 104.679 16.8673 104.621 16.8682C104.534 16.8696 104.534 16.8696 104.445 16.8709C104.325 16.8725 104.204 16.8734 104.083 16.8735C103.725 16.8744 103.725 16.8744 103.408 17.0025C103.24 17.1768 103.129 17.3543 103.016 17.5583C102.547 18.3689 101.991 19.0969 101.285 19.7655C101.184 19.8617 101.087 19.9602 100.991 20.0601C100.124 20.9235 98.7511 21.8521 97.4051 21.9886C97.1953 21.9962 96.9859 21.9973 96.776 21.9974C96.7197 21.998 96.6635 21.9985 96.6056 21.9991C96.5517 21.9992 96.4978 21.9993 96.4423 21.9994C96.3933 21.9996 96.3444 21.9998 96.2939 22C96.1671 21.9886 96.1671 21.9886 96.0056 21.8945C95.969 21.7485 95.9777 21.654 96.0647 21.5238C96.1518 21.4195 96.2428 21.3189 96.3353 21.2183C97.7648 19.5889 98.854 17.403 98.6969 15.3094C98.6537 15.0624 98.6014 14.8967 98.3975 14.7185C97.9288 14.4769 97.2114 14.5903 96.7032 14.6904C95.778 14.9122 94.7043 15.3316 93.964 15.8654C93.8127 15.9407 93.7007 15.9349 93.5296 15.9208C93.408 15.8394 93.3773 15.7724 93.3473 15.6425C93.3115 15.2497 93.549 14.9896 93.8235 14.6986C94.8517 13.6663 96.4313 12.9783 97.9981 12.8502C98.628 12.8162 99.222 12.8001 99.7734 13.0986C99.8099 13.1156 99.8463 13.1326 99.8838 13.1501C100.205 13.3183 100.398 13.6089 100.515 13.9139C100.902 15.3335 100.599 16.9499 99.8045 18.2187C99.6957 18.394 99.6362 18.5445 99.6119 18.743C99.8404 18.719 99.9462 18.6632 100.108 18.5224C100.15 18.4861 100.192 18.4498 100.236 18.4124C100.28 18.3731 100.324 18.3338 100.369 18.2933C100.437 18.2327 100.437 18.2327 100.507 18.1709C101.582 17.2009 102.292 16.016 102.797 14.7463C102.912 14.4669 103.033 14.242 103.324 14.0713C103.637 13.9662 103.95 13.9102 104.278 13.8571C104.763 13.7777 105.193 13.6612 105.64 13.4749C105.677 13.4598 105.714 13.4447 105.752 13.4292C107.276 12.7915 108.551 11.6633 109.138 10.2656C109.399 9.61274 109.535 9.01556 109.533 8.32291C109.533 8.21939 109.534 8.11594 109.535 8.01244C109.543 6.58131 108.858 5.26955 107.731 4.24693C107.278 3.85496 106.788 3.54044 106.233 3.26798C106.201 3.25209 106.169 3.23621 106.136 3.21984C105.534 2.92382 104.91 2.75337 104.241 2.60947C104.201 2.6006 104.16 2.59173 104.118 2.5826C102.074 2.157 99.6796 2.61713 97.9032 3.54634C96.7732 4.17816 95.7465 4.97023 94.9291 5.90203C94.8914 5.94357 94.8537 5.9851 94.8149 6.02789C94.529 6.34992 94.2816 6.68762 94.0349 7.03313C93.4394 7.86488 93.4394 7.86488 93.099 8.06572C92.8399 8.11452 92.618 8.08891 92.3791 7.99223C92.1422 7.80004 92.0386 7.67082 92.0019 7.39159C91.9871 6.97319 92.0605 6.6189 92.2378 6.23129C92.2683 6.16426 92.2683 6.16426 92.2994 6.09588C92.6489 5.41768 93.2649 4.83167 93.8525 4.30279C93.885 4.27325 93.9174 4.24372 93.9508 4.21328C94.41 3.79598 94.8714 3.41379 95.4135 3.07983C95.4422 3.06159 95.4709 3.04335 95.5004 3.02455C96.4666 2.41155 97.5659 1.94917 98.6969 1.6217C98.7464 1.60729 98.796 1.59288 98.847 1.57804C99.7148 1.33074 100.595 1.17878 101.496 1.05726C101.564 1.04762 101.632 1.03798 101.702 1.02804C102.058 0.991774 102.419 1.00085 102.778 1.0014Z" fill="#F8F0F2"/>
<path d="M98.8131 5.00143C98.8624 5.00106 98.9117 5.00069 98.9624 5.00031C99.128 4.99956 99.2935 5.00028 99.4591 5.00121C99.5165 5.00129 99.5738 5.00136 99.6329 5.00144C101.079 5.00489 102.521 5.10454 103.964 5.20519C104.457 5.23894 104.95 5.26318 105.444 5.27512C105.491 5.27665 105.538 5.27818 105.587 5.27975C105.649 5.28125 105.649 5.28125 105.712 5.28278C105.818 5.29842 105.818 5.29842 105.975 5.40774C106.012 5.63067 106.021 5.76237 105.911 5.95946C105.604 6.35315 105.196 6.60319 104.728 6.72942C104.604 6.7629 104.48 6.79755 104.357 6.83327C103.709 7.01893 103.057 7.15854 102.396 7.28665C102.289 7.30776 102.182 7.32889 102.075 7.35007C101.858 7.39281 101.641 7.43535 101.424 7.47769C100.991 7.56221 100.558 7.64768 100.125 7.73318C100.001 7.75762 99.8773 7.78193 99.7533 7.80621C99.6785 7.82092 99.6037 7.83562 99.5288 7.85033C99.4323 7.86925 99.4323 7.86925 99.3338 7.88855C99.2084 7.91441 99.0858 7.94428 98.9619 7.97673C98.8749 7.98561 98.7876 7.99117 98.7002 7.99381C98.6339 7.99687 98.6339 7.99687 98.5661 8C98.3926 7.96834 98.3375 7.90095 98.2292 7.75809C98.009 7.32365 98.001 6.8616 98.0003 6.38136C98.0001 6.29863 98.0001 6.29863 98 6.21423C98.0125 5.32528 98.0125 5.32528 98.2033 5.0934C98.4032 4.98892 98.5924 5.0007 98.8131 5.00143Z" fill="#F8F0F2"/>
<path d="M39.6544 15C39.75 15.1958 39.7653 15.4051 39.7877 15.6288C39.792 15.6699 39.7964 15.7109 39.8008 15.7532C39.8146 15.8844 39.828 16.0155 39.8413 16.1467C39.8504 16.2338 39.8596 16.3209 39.8688 16.4079C39.8776 16.4927 39.8864 16.5774 39.8952 16.6622C39.9013 16.7201 39.9013 16.7201 39.9074 16.7793C39.9534 17.2311 39.9885 17.6783 39.9919 18.1341C39.9923 18.1792 39.9927 18.2243 39.9931 18.2708C40.0169 21.6444 40.0169 21.6444 39.3267 22.6191C39.0827 22.922 38.9344 23.0035 38.5888 22.9999C38.402 22.9724 38.3429 22.9012 38.2206 22.7227C37.9835 22.3155 37.9999 21.8572 38.0004 21.3719C38.0004 21.3375 38.0004 21.3031 38.0004 21.2676C38.002 20.6287 38.0645 20.0274 38.1796 19.4056C38.1942 19.32 38.2087 19.2344 38.2232 19.1489C38.4492 17.8655 38.8994 15.9552 39.6544 15Z" fill="#F1ACED"/>
<path d="M19.2669 9.0427C19.5928 9.23656 19.6821 9.54622 19.7941 9.82401C19.8168 9.87981 19.8168 9.87981 19.8399 9.93675C20.3882 11.6063 19.4512 13.8221 18.1974 15.2474C17.9232 15.5356 17.6106 15.8248 17.1582 15.9825C16.8185 16.0058 16.8185 16.0058 16.631 15.9825C16.4374 15.8705 16.4374 15.8705 16.3015 15.7527C16.2798 15.7376 16.258 15.7224 16.2356 15.7068C15.8745 14.6664 15.8872 13.0564 16.5651 12.076C16.8606 11.7547 17.1917 11.6207 17.7258 11.5301C17.8062 11.5197 17.8867 11.5093 17.9696 11.4986C18.055 11.4874 18.1405 11.4761 18.2285 11.4645C18.3102 11.454 18.392 11.4434 18.4761 11.4326C18.6066 11.4146 18.737 11.3964 18.8674 11.378C18.9567 11.3656 19.0459 11.3531 19.1351 11.3407C19.1721 10.9986 19.1064 10.6653 18.7825 10.3925C18.6128 10.2651 18.434 10.1457 18.2509 10.0278C18.0666 9.90659 18.0243 9.87142 17.9901 9.70049C18.0299 9.45586 18.2025 9.30921 18.4697 9.15347C18.7445 9.02068 18.9375 8.94872 19.2669 9.0427Z" fill="#F1ACED"/>
<path d="M48 9.11562C47.7734 10.3352 47.1713 11.6128 46.352 12.6951C46.3028 12.7603 46.3028 12.7603 46.2527 12.8268C45.4515 13.8479 45.4515 13.8479 44.858 13.9864C44.5744 14.0193 44.3757 13.9963 44.1356 13.8747C43.9669 13.6842 44.0026 13.4777 44.0042 13.2595C44.0045 13.2158 44.0048 13.172 44.0051 13.127C44.0322 11.7864 44.7712 10.4064 46.0751 9.43197C46.5427 9.12354 47.4039 8.83119 48 9.11562Z" fill="#F1ACED"/>
<path d="M67.6417 9.0101C67.8352 9.07905 67.8352 9.07905 67.9794 9.19397C68.0555 9.49917 67.906 9.75425 67.774 10.0388C67.7062 10.1871 67.6474 10.335 67.5924 10.4867C66.2078 14.2067 66.2078 14.2067 64.6526 14.9469C64.4954 15.0041 64.3766 15.0118 64.2085 14.9856C63.8943 14.6008 64.0009 14.0032 64.1059 13.5666C64.145 13.4176 64.1871 13.2693 64.2313 13.1212C64.2642 13.011 64.2954 12.9006 64.3265 12.7901C64.7249 11.4254 65.6253 9.81831 67.1351 9.05607C67.3102 8.9846 67.4482 8.99694 67.6417 9.0101Z" fill="#F1ACED"/>
<path d="M88.0191 11C88.1861 11.1003 88.275 11.1953 88.368 11.3314C88.3951 11.3708 88.4222 11.4103 88.45 11.4509C88.4783 11.4933 88.5066 11.5356 88.5358 11.5792C88.5652 11.623 88.5947 11.6668 88.625 11.712C89.0375 12.3335 89.382 12.9685 89.6481 13.6248C89.6734 13.6872 89.6993 13.7494 89.7258 13.8115C89.9706 14.3891 90.1764 15.0724 89.7669 15.6373C89.6218 15.7906 89.4659 15.9078 89.2192 15.9902C88.3461 16.0465 87.7611 15.8568 87.0986 15.4938C86.619 15.2168 86.0508 14.8389 86 14.4024C86.0058 14.1843 86.1123 14.0079 86.2387 13.8093C86.2617 13.7717 86.2847 13.7341 86.3084 13.6954C86.3833 13.5736 86.4594 13.4522 86.5356 13.3308C86.5874 13.247 86.6391 13.1632 86.6908 13.0793C86.7945 12.9113 86.8987 12.7434 87.0035 12.5756C87.138 12.3599 87.271 12.1439 87.4034 11.9277C87.6793 11.4778 87.6793 11.4778 87.8107 11.2658C87.8367 11.2238 87.8626 11.1818 87.8894 11.1385C87.9524 11.0446 87.9524 11.0446 88.0191 11Z" fill="#F1ACED"/>
<path d="M35.7644 9.01271C35.9027 9.07973 35.9027 9.07973 35.9998 9.19144C36.0037 9.40045 35.9511 9.55947 35.8725 9.75274C35.7401 10.0935 35.6356 10.442 35.5276 10.7902C34.3622 14.5418 34.3622 14.5418 33.5518 15C33.2672 14.9953 33.2672 14.9953 33.1431 14.8852C32.7506 14.1996 33.2674 12.8435 33.4772 12.1316C33.7931 11.1229 34.3056 9.66224 35.3236 9.08898C35.4936 9.00712 35.5775 8.98186 35.7644 9.01271Z" fill="#F1ACED"/>
</svg>
