<svg width="100" height="22" viewBox="0 0 100 22" fill="none" xmlns="http://www.w3.org/2000/svg">
<path d="M21.956 2.03009C23.5976 3.1294 24.5165 4.26757 25.3667 6.0561C25.4748 6.2777 25.5829 6.49929 25.6943 6.72759C25.8659 7.30539 25.8659 7.30539 25.8659 8.80453C23.0653 8.80453 20.2647 8.80453 17.3792 8.80453C17.0497 8.14491 16.7202 7.48529 16.3807 6.80567C15.3657 5.78959 14.4515 5.53322 13.0422 5.46269C11.8014 5.50033 10.8874 5.81722 9.89089 6.55582C8.71222 7.91587 8.45024 9.16878 8.50244 10.9283C8.49834 11.2293 8.49834 11.2293 8.49415 11.5364C8.51552 13.2962 9.01779 14.6439 10.2341 15.9255C11.8691 16.6027 13.7269 16.5804 15.4135 16.0592C16.2178 15.4893 16.2494 15.2789 16.5787 14.3961C16.8833 13.794 16.8833 13.794 17.3792 13.302C18.8166 12.9702 20.2324 13.0098 21.7006 13.0365C22.1037 13.0357 22.5069 13.0339 22.9101 13.0311C23.8957 13.0264 24.8804 13.0356 25.8659 13.0521C25.9174 12.924 25.9689 12.7958 26.022 12.6638C26.5598 11.3259 27.0985 9.9883 27.6377 8.65093C27.8387 8.15228 28.0394 7.65355 28.2398 7.15472C28.5286 6.43626 28.8182 5.71814 29.1079 5.00007C29.1969 4.77826 29.2858 4.55645 29.3775 4.32793C29.4624 4.11794 29.5473 3.90796 29.6347 3.69161C29.7453 3.41697 29.7453 3.41697 29.8581 3.13678C30.1642 2.43166 30.5146 1.74658 30.8581 1.05896C33.9882 1.05896 37.1183 1.05896 40.3433 1.05896C40.9199 2.44005 41.4965 3.82113 42.0905 5.24407C42.2678 5.66817 42.4451 6.09227 42.6278 6.52922C43.8077 9.35992 44.946 12.2023 46.0843 15.051C46.1667 10.4336 46.249 5.81624 46.3339 1.05896C49.9582 1.05896 53.5826 1.05896 57.3167 1.05896C57.5381 1.96079 57.7595 2.86262 57.9876 3.79177C58.5018 5.87471 59.044 7.94205 59.6946 9.9869C59.968 10.8688 60.1225 11.6279 60.0624 12.5524C60.2272 12.5524 60.3919 12.5524 60.5617 12.5524C60.5507 12.3434 60.5398 12.1343 60.5285 11.919C60.5658 10.9462 60.798 10.1131 61.0921 9.19493C61.9198 6.50551 62.6064 3.7841 63.3074 1.05896C66.9317 1.05896 70.556 1.05896 74.2902 1.05896C74.3726 4.76934 74.4549 8.47972 74.5398 12.3025C75.8217 11.0245 77.1036 9.74649 78.4244 8.42974C78.8255 8.03053 79.2266 7.63131 79.6398 7.21999C79.9631 6.89714 80.2863 6.57425 80.6094 6.2513C80.8547 6.00769 80.8547 6.00769 81.105 5.75915C81.9134 4.95009 82.6937 4.12886 83.4428 3.26424C83.587 3.1003 83.7312 2.93635 83.8797 2.76744C84.2158 2.37665 84.5364 1.97267 84.8535 1.5663C85.8612 0.80228 86.7616 0.902057 87.9924 0.936961C88.2021 0.938219 88.4119 0.939478 88.628 0.940774C89.4078 0.947286 90.1875 0.964728 90.9672 0.980881C92.7125 1.00665 94.4577 1.03241 96.2559 1.05896C96.2559 5.0167 96.2559 8.97443 96.2559 13.0521C97.4914 13.0521 98.727 13.0521 100 13.0521C100 14.7012 100 16.3502 100 18.0492C98.7644 18.0492 97.5289 18.0492 96.2559 18.0492C96.2559 19.0387 96.2559 20.0281 96.2559 21.0475C93.8671 21.0475 91.4783 21.0475 89.0172 21.0475C89.0172 20.0581 89.0172 19.0687 89.0172 18.0492C84.1573 18.0492 79.2974 18.0492 74.2902 18.0492C74.2902 19.0387 74.2902 20.0281 74.2902 21.0475C71.9838 21.0475 69.6774 21.0475 67.3011 21.0475C67.2188 16.5951 67.1364 12.1426 67.0515 7.55525C66.722 8.87449 66.3925 10.1937 66.0531 11.553C65.7695 12.5197 65.4816 13.4813 65.1794 14.4419C64.5013 16.6325 63.8792 18.8268 63.3074 21.0475C61.3305 21.0475 59.3536 21.0475 57.3167 21.0475C56.4215 17.9222 55.5347 14.7948 54.6612 11.6633C54.5915 11.4137 54.5219 11.164 54.4501 10.9068C54.3891 10.6877 54.328 10.4686 54.2651 10.2428C54.0368 9.4295 53.8044 8.61738 53.5726 7.8051C53.4902 12.1751 53.4079 16.5451 53.323 21.0475C49.0397 21.0475 44.7564 21.0475 40.3433 21.0475C40.0962 20.3055 39.8491 19.5634 39.5944 18.7988C35.6406 18.9225 35.6406 18.9225 31.6069 19.0487C31.3598 19.7083 31.1127 20.3679 30.8581 21.0475C28.2222 21.0475 25.5864 21.0475 22.8706 21.0475C22.953 20.6353 23.0353 20.223 23.1202 19.7982C23.1202 19.6333 23.1202 19.4684 23.1202 19.2985C22.8577 19.484 22.5951 19.6696 22.3246 19.8607C18.0956 22.5121 11.9706 22.3274 7.24464 21.2935C4.92663 20.6214 3.02792 19.5375 1.73178 17.4558C1.5141 17.1128 1.5141 17.1128 1.29203 16.7629C-0.184691 14.0448 -0.285738 10.3238 0.436925 7.33662C1.30346 4.68272 2.68286 2.91133 5.14831 1.55868C6.21385 1.14335 7.28283 0.829119 8.39324 0.559248C8.54199 0.515686 8.69075 0.472125 8.84401 0.427243C12.8509 -0.435003 18.3368 -0.0366676 21.956 2.03009Z" fill="#F1ACED"/>
<path d="M88.4483 6C88.6303 6 88.8124 6 89 6C89 8.31 89 10.62 89 13C86.36 13 83.72 13 81 13C82.8653 11.0278 82.8653 11.0278 83.6735 10.2939C83.8486 10.1349 84.0238 9.97587 84.2042 9.81201C84.4701 9.57249 84.4701 9.57249 84.7414 9.32812C84.9197 9.16554 85.098 9.00296 85.2818 8.83545C86.2068 7.99886 87.1486 7.23779 88.1724 6.5C88.2634 6.335 88.3545 6.17 88.4483 6Z" fill="#FEF9F7"/>
<path d="M35.3529 8C36.0721 8.50253 36.4038 8.9135 36.7075 9.628C36.7843 9.80798 36.861 9.98795 36.9401 10.1734C37.0169 10.3605 37.0937 10.5476 37.1728 10.7404C37.2931 11.0184 37.2931 11.0184 37.4158 11.302C37.8292 12.2889 38 12.9277 38 14C36.35 14 34.7 14 33 14C33.3681 12.4511 33.9792 11.0577 34.7291 9.59645C34.9908 9.06207 35.1997 8.55799 35.3529 8Z" fill="#F1F1F1"/>
</svg>
