<svg width="106" height="29" viewBox="0 0 106 29" fill="none" xmlns="http://www.w3.org/2000/svg">
<path d="M96.6485 1.55802C98.7752 2.95225 100.267 4.77508 100.745 7.12554C100.782 7.84445 100.778 8.55674 100.745 9.27565C101.076 9.34217 101.076 9.34217 101.414 9.41003C103.378 10.1306 104.73 11.4046 105.602 13.127C106.17 14.8602 106.176 16.9741 105.32 18.6395C104.109 20.4112 102.663 21.4788 100.449 22.0942C99.1089 22.472 98.6347 22.8646 97.8919 23.9186C96.9349 25.014 95.1706 25.3606 93.7565 25.8112C93.1793 26.0105 93.1793 26.0105 92.4369 26.4915C90.7561 27.4816 89.041 27.5976 87.0874 27.3127C85.778 27.1642 84.498 27.1904 83.1797 27.2016C82.4798 27.195 81.8404 27.1608 81.1528 27.0589C80.4298 26.8908 80.4298 26.8908 79.8823 27.1932C79.32 27.2165 78.7568 27.2242 78.1938 27.2231C77.8915 27.2237 77.5891 27.2243 77.2775 27.225C76.4051 27.1932 76.4051 27.1932 75.6748 27.057C75.0269 26.9018 75.0269 26.9018 74.2653 27.1932C72.0568 27.3444 70.4942 27.3487 68.6483 26.2376C67.8988 26.2586 67.4873 26.5218 66.8262 26.8498C65.2534 27.4697 63.3683 27.3578 61.694 27.1932C61.1576 26.9569 60.6224 26.7184 60.0892 26.4765C58.9523 26.5561 57.8837 27.176 56.8659 27.6104C55.2741 28.2148 53.8224 28.4692 52.0984 28.4475C51.9101 28.4457 51.7218 28.4439 51.5277 28.442C48.931 28.3942 47.1128 27.8153 44.8431 26.7154C44.6666 26.6366 44.49 26.5578 44.3082 26.4765C43.7924 26.6571 43.2767 26.8378 42.7615 27.0196C41.828 27.2929 40.9453 27.2896 39.9706 27.2784C39.7624 27.2789 39.5542 27.2794 39.3397 27.2799C38.6582 27.2806 37.9768 27.2762 37.2953 27.2716C36.8177 27.2709 36.3402 27.2705 35.8626 27.2703C34.8644 27.2692 33.8662 27.2657 32.868 27.2604C31.5927 27.2537 30.3175 27.2511 29.0423 27.25C27.8202 27.2488 26.5981 27.2453 25.376 27.2418C25.145 27.2413 24.9141 27.2409 24.6761 27.2404C24.0176 27.2388 23.3592 27.2355 22.7007 27.2317C22.5092 27.2315 22.3176 27.2312 22.1203 27.2309C21.1804 27.2239 20.2689 27.1742 19.3394 27.0581C18.2887 26.9464 17.9447 27.0157 17.0592 27.4919C14.9207 28.6232 12.6994 29.0058 10.2386 28.9999C9.99393 28.9995 9.74928 28.9991 9.49722 28.9987C7.42688 28.9497 5.8925 28.507 4.18697 27.4321C4.02457 27.3407 3.86218 27.2492 3.69486 27.155C1.89301 26.0125 0.744346 23.8062 0.174853 21.9374C-0.526417 17.2945 0.913743 13.2649 3.9195 9.51455C5.94789 7.15621 8.49877 5.44364 11.6763 4.49762C14.718 4.31391 17.1524 4.41672 19.5333 6.21472C20.8944 7.38649 21.7213 8.5605 22.1078 10.2313C22.1182 10.7886 22.1198 11.3462 22.1078 11.9036C22.3643 11.7853 22.3643 11.7853 22.626 11.6647C24.6408 11.0771 26.2099 11.4617 28.105 12.219C28.9854 12.4263 29.3334 12.2694 30.132 11.9036C30.2754 11.8201 30.4189 11.7366 30.5666 11.6506C31.5118 11.3161 32.4525 11.3529 33.4545 11.3539C33.6736 11.3529 33.8926 11.3519 34.1182 11.3508C34.5813 11.3494 35.0445 11.3493 35.5076 11.3503C36.2109 11.3511 36.9139 11.3455 37.6171 11.3394C38.0685 11.3389 38.5198 11.3387 38.9712 11.339C39.1791 11.3368 39.3871 11.3346 39.6013 11.3323C41.0667 11.3432 42.1583 11.6257 43.5057 12.1425C43.5223 11.8715 43.5388 11.6005 43.5559 11.3212C43.8504 9.28142 45.2498 7.69211 46.9829 6.40883C49.7592 4.69211 53.2136 4.31938 56.5065 4.84851C59.0099 5.51337 61.1953 6.74971 62.4964 8.79784C63.0152 9.76687 63.2988 10.5745 63.2988 11.6647C63.5574 11.6536 63.816 11.6425 64.0825 11.6311C66.0422 11.5825 67.6439 11.6145 69.4372 12.4112C70.0503 12.6828 70.0503 12.6828 71.0556 12.6203C71.1497 12.3231 71.2439 12.0259 71.3408 11.7197C72.4513 8.33005 73.6916 5.36627 77.3078 3.57188C79.2423 3.03566 80.9115 3.28385 82.8245 3.78092C82.9955 3.57397 83.1665 3.36702 83.3427 3.1538C84.2536 2.18162 85.3472 1.54331 86.5691 0.914102C86.807 0.790765 86.807 0.790765 87.0498 0.664936C90.0256 -0.587604 93.9813 0.053023 96.6485 1.55802ZM83.8944 4.01982C83.4731 4.56617 83.1525 5.09398 82.8245 5.69213C82.5762 5.53938 82.328 5.38663 82.0722 5.22926C80.8236 4.50763 79.7431 4.33369 78.2774 4.49762C76.112 5.09774 74.8947 6.46687 73.8307 8.18566C73.1631 9.41622 72.8336 10.6976 72.5553 12.036C72.3655 12.846 72.2011 13.2757 71.507 13.8381C70.7881 14.0537 70.7881 14.0537 70.1111 13.8913C69.8932 13.7872 69.6753 13.6831 69.4508 13.5759C67.3893 12.6876 65.5964 12.389 63.2988 12.6203C62.5529 12.8446 62.5529 12.8446 61.9615 13.0981C61.977 12.9533 61.9925 12.8086 62.0085 12.6595C62.1112 10.9551 61.7469 9.71326 60.6241 8.32004C58.6453 6.50133 56.6073 5.90399 53.8202 5.84144C50.8405 5.90531 48.6709 6.52745 46.5723 8.45909C45.6142 9.44451 45.0323 10.2234 45.0771 11.5396C45.0834 11.8389 45.0834 11.8389 45.0897 12.1443C45.1 12.4538 45.1 12.4538 45.1106 12.7696C45.1242 13.1808 45.1355 13.592 45.144 14.0033C45.1502 14.1849 45.1564 14.3664 45.1628 14.5535C45.1106 15.0093 45.1106 15.0093 44.5756 15.4871C44.4877 15.2968 44.4877 15.2968 44.398 15.1026C44.3132 14.9338 44.2284 14.7651 44.141 14.5912C44.02 14.3418 44.02 14.3418 43.8965 14.0873C43.3368 13.3547 42.7749 13.0462 41.9009 12.6203C41.0822 12.4859 40.2815 12.4861 39.4508 12.4933C39.2187 12.4924 38.9867 12.4915 38.7476 12.4906C38.2592 12.4899 37.7707 12.4917 37.2822 12.4957C36.536 12.5008 35.7904 12.4957 35.0442 12.4896C34.5683 12.4902 34.0924 12.4915 33.6165 12.4933C33.2834 12.4904 33.2834 12.4904 32.9435 12.4875C31.8623 12.5031 31.3222 12.5534 30.3823 13.0761C29.804 13.5208 29.804 13.5208 29.8645 14.0537C29.688 13.9502 29.5115 13.8467 29.3296 13.7401C27.4209 12.7812 25.6406 12.2713 23.4451 12.6203C22.4817 13.0166 21.6266 13.4963 20.7704 14.0537C20.8131 13.9243 20.8559 13.795 20.9 13.6617C21.3389 11.8677 21.2419 9.93954 20.2354 8.32004C19.2794 7.03921 18.1506 6.16937 16.4908 5.69213C13.293 5.35351 10.7711 5.77192 8.16566 7.51375C4.47767 10.324 2.22793 14.2527 1.69716 18.5433C1.57035 20.9218 2.32677 23.3129 4.05532 25.1448C5.65925 26.6562 7.38615 27.4604 9.73341 27.534C12.8095 27.5488 15.3484 27.0164 17.9953 25.5704C18.6306 25.282 18.6306 25.282 19.7005 25.282C19.8691 25.3599 20.0377 25.4379 20.2114 25.5181C20.9179 25.8236 21.4432 25.8153 22.2248 25.8046C22.4727 25.8031 22.7206 25.8015 22.976 25.8C23.7161 25.7758 23.7161 25.7758 24.4409 25.6227C25.05 25.5209 25.05 25.5209 25.5849 25.7598C26.1026 25.7831 26.6213 25.7908 27.1396 25.7897C27.4172 25.7903 27.6947 25.7909 27.9807 25.7916C28.7899 25.7788 28.7899 25.7788 29.55 25.6236C29.7421 25.5897 29.9341 25.5558 30.132 25.5209C30.2203 25.5998 30.3085 25.6786 30.3995 25.7598C30.899 25.7837 31.3996 25.7911 31.8998 25.7916C32.2067 25.7919 32.5136 25.7922 32.8297 25.7925C33.3149 25.7911 33.3149 25.7911 33.8098 25.7897C34.1291 25.7906 34.4483 25.7915 34.7773 25.7925C35.0855 25.7922 35.3938 25.7919 35.7114 25.7916C36.1353 25.7912 36.1353 25.7912 36.5678 25.7907C37.3509 25.7786 37.3509 25.7786 38.0917 25.6235C38.6912 25.5209 38.6912 25.5209 39.2261 25.7598C41.0446 25.9168 42.3703 25.6605 44.0407 25.0431C45.2058 25.0431 45.4486 25.1756 46.3811 25.73C49.0808 27.2204 51.8396 27.2294 54.9236 26.6856C56.3374 26.3721 57.3702 25.896 58.5104 25.0926C59.0193 24.8042 59.0193 24.8042 60.0892 24.8042C60.354 24.9619 60.6188 25.1196 60.8916 25.282C62.2316 26.0027 63.6578 25.9429 65.1712 25.7598C65.9518 25.518 66.6122 25.1929 67.311 24.8042C67.6661 24.6423 68.0224 24.4823 68.3809 24.3264C68.4981 24.4299 68.6153 24.5334 68.7361 24.64C70.1266 25.7305 71.1552 25.9222 72.9885 25.8438C73.8177 25.7499 74.5485 25.528 75.3352 25.282C75.5798 25.392 75.5798 25.392 75.8294 25.5041C76.8502 25.9575 77.9644 25.8458 79.0798 25.7598C79.529 25.6083 79.9759 25.451 80.4172 25.282C81.1334 25.3564 81.6464 25.4726 82.2895 25.7598C82.8072 25.7831 83.3259 25.7908 83.8442 25.7897C84.1218 25.7903 84.3994 25.7909 84.6853 25.7916C85.4945 25.7788 85.4945 25.7788 86.2546 25.6236C86.5427 25.5728 86.5427 25.5728 86.8366 25.5209C86.9249 25.5998 87.0131 25.6786 87.1041 25.7598C89.209 26.0045 90.5803 25.7739 92.3167 24.7025C93.0403 24.2974 93.7125 24.0882 94.5265 23.8636C95.9385 23.4384 96.7617 22.8356 97.5356 21.6985C97.6239 21.462 97.7121 21.2255 97.8031 20.9818C97.9775 20.9584 98.152 20.935 98.3317 20.9109C100.539 20.5736 101.933 19.8772 103.351 18.3184C104.238 17.1523 104.488 15.6709 104.222 14.2926C103.595 12.6799 102.669 11.3645 101.013 10.4702C100.382 10.2438 99.811 10.1146 99.1404 9.99235C99.1591 9.81866 99.1777 9.64497 99.1969 9.46602C99.3341 7.18937 98.6465 5.54235 97.0874 3.74079C95.7192 2.42325 93.888 1.46897 91.8591 1.33498C88.5874 1.2785 86.1571 1.77532 83.8944 4.01982Z" fill="#F6FAFD"/>
<path d="M16.8609 8.54962C17.699 9.05191 18.255 9.42682 18.6011 10.2675C18.8343 11.8518 18.6549 13.1266 17.5602 14.4454C16.8934 15.1051 16.8934 15.1051 16.2591 15.5449C16.0015 15.5449 15.7439 15.5449 15.4785 15.5449C15.4176 14.6869 15.4007 14.1343 15.8688 13.3597C16.3913 12.4583 16.3752 11.9245 16.2591 10.9272C15.8653 10.4814 15.6054 10.2992 14.9723 10.1412C13.72 10.0863 12.942 10.2686 11.9493 10.9272C9.79437 12.7162 8.39535 15.4818 8.11409 18.0066C8.08931 19.736 8.08931 19.736 8.97301 21.262C9.8397 21.8898 10.624 22.0449 11.7653 21.993C14.6867 21.6403 16.8683 20.1387 19.1631 18.6816C19.642 18.4034 19.642 18.4034 20.2028 18.1736C20.8484 17.8913 20.9799 17.5796 21.2846 17.0291C21.9925 15.8772 22.9428 15.0298 24.3259 14.4454C25.1066 14.4042 25.1066 14.4042 25.8872 14.4454C26.1448 14.6631 26.1448 14.6631 26.4076 14.8852C26.925 14.9726 27.4458 15.0474 27.969 15.1051C28.0269 16.28 27.946 17.2881 27.5644 18.4189C27.3831 19.0826 27.4151 19.704 27.4485 20.3824C29.1216 19.9154 30.124 18.9607 31.0916 17.7438C31.4799 16.8007 31.6829 15.8682 31.8722 14.8852C31.9581 14.7401 32.044 14.5949 32.1325 14.4454C32.6528 14.4361 33.1734 14.4364 33.6938 14.4454C33.954 14.6653 33.954 14.6653 33.9865 15.3525C33.9554 16.1663 33.8489 16.9408 33.6938 17.7438C33.7726 17.5978 33.8514 17.4518 33.9326 17.3014C35.1378 15.1549 35.1378 15.1549 36.2959 14.4454C37.3864 14.4873 37.3864 14.4873 37.8573 14.8852C37.8339 15.2571 37.7933 15.6283 37.7434 15.9984C37.7169 16.2005 37.6904 16.4026 37.6631 16.6108C37.6304 16.8451 37.6304 16.8451 37.597 17.0841C38.0589 16.6938 38.3969 16.2172 38.768 15.7648C39.6499 14.6897 39.6499 14.6897 39.939 14.4454C40.5895 14.4179 40.5895 14.4179 41.2401 14.4454C41.5003 14.6653 41.5003 14.6653 41.506 15.2151C41.4937 15.4535 41.4814 15.6918 41.4688 15.9374C41.4562 16.1946 41.4436 16.4519 41.4307 16.7169C41.4161 16.9877 41.4015 17.2586 41.3865 17.5376C41.3729 17.8093 41.3593 18.081 41.3453 18.3609C41.3114 19.0348 41.2763 19.7086 41.2401 20.3824C42.9034 19.8576 44.0575 19.0924 45.3843 18.1123C46.5449 17.2961 46.5449 17.2961 47.467 17.3418C47.6448 17.4019 47.8226 17.462 48.0058 17.5239C47.9997 17.6883 47.9937 17.8527 47.9875 18.0221C47.9828 18.2386 47.9781 18.4552 47.9732 18.6783C47.9672 18.8926 47.9612 19.1069 47.9549 19.3277C48.0076 19.9652 48.0931 20.3021 48.5262 20.8222C49.8297 21.6155 51.6933 21.3793 53.2101 21.262C54.2021 21.02 55.0427 20.7238 55.606 19.9521C55.9163 19.2766 55.8011 18.871 55.5521 18.1835C54.5201 17.1442 53.3083 16.5989 51.9091 15.9846C50.0694 15.1771 48.362 14.3629 47.4853 12.6863C47.3505 11.6609 47.3568 11.1579 47.8757 10.2263C49.0167 9.14157 50.4433 8.34129 52.1886 8.24384C56.181 8.20007 56.181 8.20007 57.5759 9.31924C58.3688 10.0759 58.9062 10.6109 59 11.6418C58.9067 12.8238 58.507 13.4877 57.52 14.3217C56.8532 14.6653 56.8532 14.6653 56.2514 14.6103C56.1065 14.5559 55.9616 14.5015 55.8123 14.4454C55.7601 13.6283 55.7728 13.3961 56.3328 12.6863C56.3954 12.234 56.3954 12.234 56.3653 11.7655C56.3546 11.4889 56.3438 11.2122 56.3328 10.9272C54.9476 10.1879 53.757 10.1374 52.1693 10.2675C51.279 10.4756 50.627 10.7191 50.0875 11.367C49.8701 11.8876 49.8701 11.8876 50.0875 12.4664C51.4083 13.6944 53.1535 14.3974 54.8797 15.1321C56.4121 15.8152 57.6257 16.6306 58.4145 17.9637C58.6295 19.3596 58.4799 20.3992 57.4976 21.5515C56.1834 22.8178 54.3346 23.3621 52.399 23.5322C50.3188 23.5922 48.331 23.4362 46.7362 22.2034C46.1368 21.6273 45.6469 21.0207 45.1434 20.3824C44.9428 20.5069 44.7422 20.6313 44.5355 20.7595C44.2745 20.9208 44.0136 21.0821 43.7447 21.2483C43.4851 21.409 43.2254 21.5697 42.9579 21.7353C41.891 22.3756 41.2598 22.4594 39.939 22.3615C39.0663 21.6601 39.0378 20.9831 38.9794 19.9976C38.9623 19.7403 38.9452 19.4829 38.9276 19.2177C38.9179 19.0216 38.9082 18.8254 38.8981 18.6233C38.7915 18.8563 38.6848 19.0893 38.5749 19.3294C38.4333 19.6346 38.2917 19.9398 38.15 20.245C38.0799 20.3986 38.0098 20.5523 37.9376 20.7106C37.3958 21.8719 37.3958 21.8719 36.8164 22.3615C36.1658 22.4302 36.1658 22.4302 35.5153 22.3615C34.8443 21.5109 34.992 20.8737 35.0924 19.9014C35.1146 19.6542 35.1146 19.6542 35.1372 19.402C35.1739 18.9957 35.2142 18.5896 35.2551 18.1835C35.1646 18.35 35.1646 18.35 35.0722 18.5197C34.7982 19.022 34.5225 19.5236 34.2467 20.0251C34.1518 20.1997 34.0569 20.3743 33.9591 20.5542C33.8668 20.7215 33.7746 20.8887 33.6795 21.061C33.595 21.2153 33.5106 21.3696 33.4235 21.5286C33.1733 21.9217 33.1733 21.9217 32.6529 22.3615C31.9698 22.3889 31.9698 22.3889 31.3518 22.3615C31.0942 21.8535 30.8366 21.3456 30.5711 20.8222C30.4457 20.9149 30.3202 21.0076 30.191 21.1031C29.9444 21.2838 29.9444 21.2838 29.6929 21.4682C29.5299 21.5881 29.3669 21.708 29.1989 21.8315C28.3539 22.4147 27.7485 22.451 26.6679 22.3615C25.9197 21.9217 25.9197 21.9217 25.3668 21.4819C25.1038 21.627 24.8408 21.7722 24.5699 21.9217C23.5843 22.3928 22.8652 22.5044 21.7237 22.3615C20.9756 21.9904 20.9756 21.9904 20.4226 21.4819C20.258 20.9004 20.258 20.9004 20.1624 20.3824C19.986 20.5126 19.8095 20.6427 19.6277 20.7767C16.6393 22.9208 13.9135 24.0452 9.92952 23.9986C8.13026 23.8144 7.11043 23.0799 5.99676 21.9217C4.76965 19.9308 4.76714 18.0065 5.49259 15.861C6.70602 12.8565 8.7073 10.039 12.0956 8.50839C13.7572 7.878 15.2799 7.77011 16.8609 8.54962Z" fill="#F8FCFD"/>
<path d="M80.8848 6.21503C81.8491 7.49587 81.6734 9.08919 81.4317 10.5733C80.758 13.076 79.6619 15.4577 78.3876 17.7624C77.9915 18.6961 78.0593 19.5152 78.1505 20.5005C79.4989 20.5728 80.1052 20.2994 81.1465 19.5745C82.0546 18.7181 82.5578 17.69 83.1449 16.6454C83.8623 15.518 84.7629 14.7884 86.0801 14.2052C86.9004 14.1598 86.9004 14.1598 87.7207 14.2052C87.9012 14.365 88.0816 14.5248 88.2676 14.6894C88.8112 14.7857 89.3584 14.8681 89.9082 14.9316C89.969 16.2253 89.884 17.3353 89.4831 18.5805C89.2926 19.3113 89.3261 19.9955 89.3613 20.7426C91.1182 20.196 91.5623 19.5391 92.3691 18.0792C92.9159 17.595 92.9159 17.595 93.8388 17.5042C94.83 17.595 94.83 17.595 95.4965 17.9884C96.0493 18.7325 96.068 19.1403 95.9237 20.0162C95.6674 20.5761 95.6674 20.5761 95.1034 20.9847C94.5683 21.0462 94.5683 21.0462 93.9413 21.0755C92.6368 21.1471 92.0299 21.5491 91.1141 22.3467C90.545 22.838 90.2107 22.9189 89.4126 22.9974C88.3512 22.9052 87.9381 22.5902 87.1738 21.9532C86.8975 22.113 86.6211 22.2728 86.3364 22.4375C85.2983 22.9556 84.5472 23.099 83.3457 22.9217C82.5425 22.3467 82.5425 22.3467 81.9786 21.7111C81.9786 21.5513 81.9786 21.3915 81.9786 21.2268C81.7805 21.3492 81.5824 21.4715 81.3783 21.5976C80.9818 21.8336 80.9818 21.8336 80.5772 22.0743C80.187 22.3102 80.187 22.3102 79.789 22.551C78.8716 22.9667 78.3461 23.0292 77.3302 22.9217C76.5441 22.4677 76.5441 22.4677 75.963 21.9532C75.963 21.7934 75.963 21.6336 75.963 21.469C75.8344 21.5536 75.7057 21.6381 75.5732 21.7253C75.4029 21.8355 75.2327 21.9456 75.0573 22.0592C74.8891 22.1687 74.721 22.2783 74.5478 22.3911C73.499 22.9977 72.536 23.0166 71.3146 22.9217C70.668 22.4697 70.3138 22.1177 69.9475 21.469C69.9506 21.2311 69.9538 20.9933 69.9571 20.7483C70.0007 18.9475 70.0007 18.9475 69.0481 17.4247C68.366 16.9517 67.6873 16.5291 66.9397 16.1422C67.0278 16.2758 67.1159 16.4094 67.2067 16.547C67.7889 17.7197 67.709 19.1322 67.2889 20.3444C66.6585 21.5491 65.8361 22.3208 64.4788 22.9217C62.5725 23.0601 62.5725 23.0601 61.5223 22.5434C60.1859 21.2249 59.9471 19.9818 60.0088 18.2523C60.2092 16.8661 60.8766 15.9838 61.8982 14.9467C63.065 14.1796 64.4349 14.1151 65.8459 14.2052C67.8192 14.6898 69.2951 15.6543 70.4943 17.1107C70.6635 16.9136 70.6635 16.9136 70.8361 16.7125C72.2806 15.1279 72.2806 15.1279 73.5705 14.9164C74.1451 14.7994 74.1451 14.7994 74.5958 14.4473C74.9249 13.5654 75.0896 12.683 75.2452 11.7678C75.6505 9.50926 76.5092 7.77688 78.4239 6.21503C79.2849 5.83384 79.9674 6.04095 80.8848 6.21503Z" fill="#F8FBFD"/>
<path d="M93.8117 3.5136C95.1705 4.23756 96.0984 5.23546 96.7865 6.50734C97.2665 8.71961 96.969 10.3229 95.5695 12.2199C94.507 13.2858 93.1741 13.7711 91.6249 13.9869C89.7893 14.0729 88.3655 13.7463 86.9493 12.6628C85.2776 10.8183 84.8251 9.41723 85.0563 7.04194C85.5159 5.53061 86.5955 4.46741 88.0311 3.62052C89.8016 2.84699 92.0034 2.77998 93.8117 3.5136Z" fill="#FBFDFE"/>
<path d="M99.5757 12.0807C100.725 12.5901 101.434 13.1129 101.934 14.1705C102.077 15.1685 102.016 15.6601 101.475 16.5506C100.767 17.3174 100.275 17.8165 99.151 17.9946C97.1479 18.0143 97.1479 18.0143 96.1535 17.3488C95.3054 16.3062 94.9777 15.7567 95.0012 14.4862C95.2103 13.5375 95.8892 12.9337 96.6938 12.3129C97.604 11.9095 98.5805 11.9738 99.5757 12.0807Z" fill="#FBFDFE"/>
<path d="M64.4166 16C64.9021 16.0568 64.9021 16.0568 65.4189 16.2273C66.0975 17.1505 66.0529 17.8709 65.9201 18.9545C65.6611 19.7593 65.3291 20.3996 64.6672 21C63.5256 20.8737 63.5256 20.8737 63.1637 20.5455C62.8945 17.748 62.8945 17.748 63.6492 16.7386C64.166 16.2273 64.166 16.2273 64.4166 16Z" fill="#F1ACED"/>
<path d="M88 16C87.4094 19.9087 87.4094 19.9087 86.1192 21C85.5483 20.9148 85.5483 20.9148 85.0445 20.7727C84.8968 19.2733 85.0827 18.158 86.1192 16.9091C87.2477 16 87.2477 16 88 16Z" fill="#F1ACED"/>
<path d="M74.9088 16C74.9346 16.6583 74.9535 17.3151 74.9684 17.9738C74.9804 18.2528 74.9804 18.2528 74.9926 18.5373C75.0163 19.9223 75.0163 19.9223 74.4547 20.6794C73.9544 21.0242 73.9544 21.0242 73.5249 20.9794C73.1909 20.785 73.1909 20.785 73 20.5457C73.0488 18.8012 73.5051 17.5848 74.451 16.3037C74.7179 16 74.7179 16 74.9088 16Z" fill="#F1ACED"/>
<path d="M26 16C25.7639 17.7462 25.5458 19.2825 24.4088 20.7727C23.8598 20.9467 23.8598 20.9467 23.3481 21C22.942 20.652 23.0184 20.3336 23 19.8494C23.0171 18.6976 23.3732 17.8496 24.1436 16.9091C25.2575 16 25.2575 16 26 16Z" fill="#F1ACED"/>
<path d="M78.6215 9C78.742 9 78.8626 9 78.9867 9C79.0488 10.7532 78.8911 12.1616 78.5607 13.8125C78.52 14.0246 78.4794 14.2366 78.4375 14.4551C78.3383 14.9712 78.2373 15.486 78.1346 16C78.0944 16 78.0543 16 78.0129 16C77.9429 13.5754 78.1595 11.2892 78.6215 9Z" fill="#F1ACED"/>
<path d="M89 4.03674C91.3353 3.88545 92.8743 4.17752 94.8371 5.36028C95.9062 6.23902 95.9264 6.58907 96 7.92463C95.9661 8.45694 95.9661 8.45694 95.9316 9C95.2932 8.95864 95.2932 8.95864 94.4723 8.66912C93.9684 8.0182 93.4819 7.35594 93.013 6.68381C91.7564 5.92399 90.8467 5.84331 89.3648 5.69116C89.2444 5.1452 89.124 4.59925 89 4.03674Z" fill="#F1ACED"/>
</svg>
