<svg width="40" height="41" viewBox="0 0 40 41" fill="none" xmlns="http://www.w3.org/2000/svg">
<g filter="url(#filter0_d_250_4357)">
<rect y="1" width="40" height="40" rx="20" fill="#282E2D" fill-opacity="0.2" shape-rendering="crispEdges"/>
<path d="M19.5312 9.0972C18.4325 9.5472 11.84 12.2484 10.7425 12.6984C10.2812 12.8868 10 13.3044 10 13.7856C10 19.0416 10.2187 21.3936 11.2112 24.102C12.51 27.648 15.06 30.474 19.375 32.8416C19.7587 33.0528 20.2413 33.0528 20.625 32.8416C24.9788 30.4524 27.54 27.636 28.8275 24.102C29.8075 21.4128 30 19.176 30 13.7856C30 13.3068 29.7163 12.888 29.2575 12.6984L20.5475 9.0972C20.2325 8.9676 19.8462 8.9676 19.5312 9.0972Z" fill="#FF5CD6" fill-opacity="0.8"/>
</g>
<defs>
<filter id="filter0_d_250_4357" x="0" y="0" width="40" height="41" filterUnits="userSpaceOnUse" color-interpolation-filters="sRGB">
<feFlood flood-opacity="0" result="BackgroundImageFix"/>
<feColorMatrix in="SourceAlpha" type="matrix" values="0 0 0 0 0 0 0 0 0 0 0 0 0 0 0 0 0 0 127 0" result="hardAlpha"/>
<feOffset dy="-1"/>
<feComposite in2="hardAlpha" operator="out"/>
<feColorMatrix type="matrix" values="0 0 0 0 1 0 0 0 0 0.858824 0 0 0 0 0.87451 0 0 0 0.2 0"/>
<feBlend mode="normal" in2="BackgroundImageFix" result="effect1_dropShadow_250_4357"/>
<feBlend mode="normal" in="SourceGraphic" in2="effect1_dropShadow_250_4357" result="shape"/>
</filter>
</defs>
</svg>
