<svg width="57" height="45" viewBox="0 0 57 45" fill="none" xmlns="http://www.w3.org/2000/svg">
<path d="M22.0401 3.70305C25.1991 -1.09431 33.0254 -1.05884 36.1275 3.7669L55.6707 34.169C58.7728 38.9948 54.8241 44.9915 48.563 44.9631L9.11839 44.7843C2.85733 44.7559 -1.02029 38.7237 2.13867 33.9264L22.0401 3.70305Z" fill="white"/>
<path d="M5.74902 38.346V35.0062C5.74902 33.7755 7.7793 33.6028 8.04967 34.8105L8.48297 36.746C8.59187 37.2324 8.8998 37.6672 9.34893 37.9688L11.6031 39.4824C12.6508 40.1859 11.759 41.6314 10.513 41.2494L7.30418 40.2658C6.37272 39.9802 5.74902 39.2103 5.74902 38.346Z" fill="#FF7CEC"/>
<path d="M24.5929 15.9501C24.4492 13.433 26.4516 11.313 28.9728 11.313C31.494 11.313 33.4965 13.433 33.3528 15.9501L32.9004 23.8753C32.7815 25.9574 31.0584 27.585 28.9728 27.585C26.8873 27.585 25.1641 25.9574 25.0453 23.8753L24.5929 15.9501Z" fill="#FF7CEC"/>
<ellipse cx="28.9728" cy="33.687" rx="3.48352" ry="3.051" fill="#FF7CEC"/>
</svg>
