<svg width="24" height="24" viewBox="0 0 24 24" fill="none" xmlns="http://www.w3.org/2000/svg">
<path opacity="0.4" d="M20.4 16.33C20.12 17.08 19.53 17.65 18.76 17.91C17.68 18.27 16.57 18.54 15.45 18.73C15.34 18.75 15.23 18.7701 15.12 18.7801C14.94 18.8101 14.76 18.83 14.58 18.85C14.36 18.8801 14.13 18.9 13.9 18.92C13.27 18.97 12.65 19 12.02 19C11.38 19 10.74 18.97 10.11 18.91C9.83996 18.89 9.57996 18.8601 9.31996 18.82C9.16996 18.8 9.01996 18.7801 8.87996 18.76C8.76996 18.74 8.65996 18.73 8.54996 18.71C7.43996 18.53 6.33996 18.26 5.26996 17.9C4.46996 17.63 3.85996 17.06 3.58996 16.33C3.31996 15.61 3.41996 14.77 3.84996 14.05L4.97996 12.17C5.21996 11.76 5.43996 10.97 5.43996 10.49V8.63005C5.43996 5.00005 8.38996 2.05005 12.02 2.05005C15.64 2.05005 18.59 5.00005 18.59 8.63005V10.49C18.59 10.97 18.81 11.76 19.06 12.17L20.19 14.05C20.6 14.75 20.68 15.57 20.4 16.33Z" fill="#FF7CEC"/>
<path d="M12 10.7599C11.58 10.7599 11.24 10.4199 11.24 9.99989V6.89989C11.24 6.47989 11.58 6.13989 12 6.13989C12.42 6.13989 12.76 6.47989 12.76 6.89989V9.99989C12.75 10.4199 12.41 10.7599 12 10.7599Z" fill="#FF7CEC"/>
<path d="M14.8299 20.01C14.4099 21.17 13.2999 22 11.9999 22C11.2099 22 10.4299 21.68 9.87993 21.11C9.55993 20.81 9.31993 20.41 9.17993 20C9.30993 20.02 9.43993 20.03 9.57993 20.05C9.80993 20.08 10.0499 20.11 10.2899 20.13C10.8599 20.18 11.4399 20.21 12.0199 20.21C12.5899 20.21 13.1599 20.18 13.7199 20.13C13.9299 20.11 14.1399 20.1 14.3399 20.07C14.4999 20.05 14.6599 20.03 14.8299 20.01Z" fill="#FF7CEC"/>
</svg>
