<svg width="75" height="98" viewBox="0 0 75 98" fill="none" xmlns="http://www.w3.org/2000/svg">
<path d="M0.299805 5.6289C0.299805 2.59134 2.76224 0.128906 5.7998 0.128906H74.2998V97.1289H2.5498C1.30716 97.1289 0.299805 96.1215 0.299805 94.8789V5.6289Z" fill="white"/>
<path d="M5.7998 1.12891H73.2998V96.1289H2.5498C1.85945 96.1289 1.2998 95.5693 1.2998 94.8789V5.62891C1.2998 3.14363 3.31452 1.12891 5.7998 1.12891Z" stroke="#FB64D2" stroke-opacity="0.25" stroke-width="2"/>
<path d="M27.6352 55.3835L29.1305 59.9058H29.1894L30.6818 55.3835H31.8264L29.8009 61.1289H28.5161L26.4934 55.3835H27.6352ZM32.5383 61.1289V56.8198H33.5539V61.1289H32.5383ZM33.0489 56.2082C32.888 56.2082 32.7496 56.1549 32.6337 56.0483C32.5177 55.9399 32.4598 55.8099 32.4598 55.6584C32.4598 55.505 32.5177 55.375 32.6337 55.2684C32.7496 55.16 32.888 55.1057 33.0489 55.1057C33.2116 55.1057 33.35 55.16 33.4641 55.2684C33.58 55.375 33.638 55.505 33.638 55.6584C33.638 55.8099 33.58 55.9399 33.4641 56.0483C33.35 56.1549 33.2116 56.2082 33.0489 56.2082ZM36.1972 61.2047C35.8587 61.2047 35.5557 61.1177 35.2883 60.9437C35.0209 60.7698 34.8095 60.5173 34.6543 60.1863C34.499 59.8553 34.4214 59.4531 34.4214 58.98C34.4214 58.5012 34.5 58.0972 34.6571 57.768C34.8161 57.437 35.0302 57.1873 35.2995 57.019C35.5688 56.8488 35.869 56.7637 36.2001 56.7637C36.4525 56.7637 36.6601 56.8067 36.8229 56.8928C36.9856 56.9769 37.1146 57.0788 37.21 57.1985C37.3054 57.3164 37.3793 57.4277 37.4316 57.5324H37.4737V55.3835H38.4921V61.1289H37.4933V60.45H37.4316C37.3793 60.5547 37.3035 60.666 37.2044 60.7838C37.1053 60.8998 36.9743 60.9989 36.8116 61.0812C36.6489 61.1635 36.4441 61.2047 36.1972 61.2047ZM36.4806 60.3714C36.6957 60.3714 36.879 60.3135 37.0305 60.1975C37.1819 60.0797 37.297 59.916 37.3755 59.7066C37.4541 59.4971 37.4933 59.253 37.4933 58.9744C37.4933 58.6957 37.4541 58.4535 37.3755 58.2478C37.2988 58.042 37.1847 57.8821 37.0333 57.768C36.8836 57.654 36.6994 57.5969 36.4806 57.5969C36.2543 57.5969 36.0654 57.6558 35.9139 57.7737C35.7624 57.8915 35.6483 58.0542 35.5716 58.2618C35.495 58.4694 35.4566 58.7069 35.4566 58.9744C35.4566 59.2437 35.495 59.484 35.5716 59.6953C35.6502 59.9048 35.7652 60.0703 35.9167 60.1919C36.0701 60.3116 36.258 60.3714 36.4806 60.3714ZM41.4819 61.2131C41.0499 61.2131 40.6768 61.1233 40.3626 60.9437C40.0502 60.7623 39.8099 60.5061 39.6416 60.1751C39.4733 59.8422 39.3891 59.4503 39.3891 58.9996C39.3891 58.5564 39.4733 58.1673 39.6416 57.8326C39.8118 57.4959 40.0493 57.2341 40.3541 57.0471C40.659 56.8582 41.0172 56.7637 41.4286 56.7637C41.6942 56.7637 41.9448 56.8067 42.1805 56.8928C42.418 56.9769 42.6275 57.1078 42.8089 57.2855C42.9922 57.4632 43.1362 57.6895 43.2409 57.9644C43.3456 58.2375 43.398 58.5629 43.398 58.9407V59.2521H39.866V58.5676H42.4245C42.4227 58.3731 42.3806 58.2001 42.2983 58.0486C42.216 57.8952 42.101 57.7746 41.9532 57.6867C41.8073 57.5988 41.6371 57.5548 41.4426 57.5548C41.235 57.5548 41.0527 57.6053 40.8956 57.7063C40.7385 57.8054 40.616 57.9364 40.5281 58.0991C40.442 58.2599 40.3981 58.4367 40.3962 58.6293V59.2268C40.3962 59.4775 40.442 59.6925 40.5337 59.8721C40.6253 60.0498 40.7534 60.1863 40.918 60.2817C41.0826 60.3752 41.2753 60.4219 41.4959 60.4219C41.6437 60.4219 41.7774 60.4014 41.8971 60.3602C42.0168 60.3172 42.1206 60.2546 42.2085 60.1723C42.2964 60.09 42.3628 59.988 42.4077 59.8665L43.3559 59.9731C43.2961 60.2237 43.182 60.4425 43.0137 60.6295C42.8472 60.8147 42.634 60.9587 42.374 61.0616C42.1141 61.1626 41.8167 61.2131 41.4819 61.2131ZM46.1368 61.2131C45.716 61.2131 45.3513 61.1205 45.0427 60.9353C44.7341 60.7502 44.4947 60.4911 44.3245 60.1582C44.1562 59.8253 44.072 59.4363 44.072 58.9912C44.072 58.5461 44.1562 58.1561 44.3245 57.8213C44.4947 57.4866 44.7341 57.2266 45.0427 57.0414C45.3513 56.8563 45.716 56.7637 46.1368 56.7637C46.5576 56.7637 46.9223 56.8563 47.2309 57.0414C47.5395 57.2266 47.7779 57.4866 47.9463 57.8213C48.1164 58.1561 48.2015 58.5461 48.2015 58.9912C48.2015 59.4363 48.1164 59.8253 47.9463 60.1582C47.7779 60.4911 47.5395 60.7502 47.2309 60.9353C46.9223 61.1205 46.5576 61.2131 46.1368 61.2131ZM46.1424 60.3995C46.3706 60.3995 46.5613 60.3368 46.7147 60.2115C46.868 60.0844 46.9821 59.9142 47.0569 59.701C47.1336 59.4877 47.172 59.2502 47.172 58.9884C47.172 58.7247 47.1336 58.4862 47.0569 58.273C46.9821 58.0579 46.868 57.8868 46.7147 57.7596C46.5613 57.6324 46.3706 57.5689 46.1424 57.5689C45.9086 57.5689 45.7141 57.6324 45.5589 57.7596C45.4055 57.8868 45.2905 58.0579 45.2138 58.273C45.139 58.4862 45.1016 58.7247 45.1016 58.9884C45.1016 59.2502 45.139 59.4877 45.2138 59.701C45.2905 59.9142 45.4055 60.0844 45.5589 60.2115C45.7141 60.3368 45.9086 60.3995 46.1424 60.3995ZM52.4693 57.9588L51.5435 58.0598C51.5173 57.9663 51.4715 57.8784 51.406 57.7961C51.3424 57.7138 51.2564 57.6474 51.1479 57.5969C51.0394 57.5464 50.9067 57.5212 50.7495 57.5212C50.5382 57.5212 50.3605 57.567 50.2165 57.6586C50.0744 57.7503 50.0042 57.869 50.0061 58.0149C50.0042 58.1402 50.0501 58.2422 50.1436 58.3207C50.239 58.3993 50.3961 58.4638 50.6149 58.5143L51.3499 58.6714C51.7576 58.7593 52.0606 58.8986 52.2589 59.0894C52.459 59.2801 52.56 59.5298 52.5618 59.8384C52.56 60.1096 52.4805 60.349 52.3234 60.5566C52.1681 60.7623 51.9521 60.9232 51.6753 61.0391C51.3985 61.1551 51.0806 61.2131 50.7215 61.2131C50.1941 61.2131 49.7695 61.1027 49.4478 60.882C49.1262 60.6595 48.9345 60.3499 48.8727 59.9534L49.863 59.8581C49.9079 60.0526 50.0033 60.1994 50.1492 60.2985C50.2951 60.3976 50.4849 60.4472 50.7187 60.4472C50.96 60.4472 51.1535 60.3976 51.2994 60.2985C51.4472 60.1994 51.521 60.0769 51.521 59.931C51.521 59.8076 51.4733 59.7056 51.378 59.6252C51.2844 59.5448 51.1386 59.4831 50.9403 59.4401L50.2053 59.2858C49.792 59.1997 49.4862 59.0548 49.2879 58.8509C49.0897 58.6452 48.9915 58.3852 48.9934 58.071C48.9915 57.8054 49.0635 57.5754 49.2094 57.3809C49.3571 57.1845 49.5619 57.033 49.8238 56.9264C50.0875 56.8179 50.3914 56.7637 50.7355 56.7637C51.2405 56.7637 51.6379 56.8712 51.9278 57.0863C52.2196 57.3014 52.4001 57.5922 52.4693 57.9588Z" fill="#8F8F8F"/>
<path d="M27.9073 77.3835V83.1289H26.8665V77.3835H27.9073ZM28.9895 83.1289V78.8198H29.9601V79.552H30.0106C30.1004 79.3051 30.2491 79.1125 30.4567 78.9741C30.6643 78.8338 30.9121 78.7637 31.2001 78.7637C31.4919 78.7637 31.7378 78.8348 31.938 78.9769C32.1399 79.1172 32.2821 79.3089 32.3644 79.552H32.4093C32.5046 79.3126 32.6655 79.1219 32.8918 78.9797C33.12 78.8357 33.3902 78.7637 33.7025 78.7637C34.099 78.7637 34.4226 78.889 34.6732 79.1396C34.9238 79.3902 35.0491 79.7559 35.0491 80.2365V83.1289H34.0308V80.3936C34.0308 80.1262 33.9597 79.9308 33.8176 79.8073C33.6754 79.682 33.5015 79.6194 33.2958 79.6194C33.0508 79.6194 32.8591 79.696 32.7207 79.8494C32.5841 80.0009 32.5159 80.1982 32.5159 80.4413V83.1289H31.5199V80.3516C31.5199 80.129 31.4526 79.9513 31.318 79.8185C31.1852 79.6857 31.0112 79.6194 30.7962 79.6194C30.6503 79.6194 30.5175 79.6568 30.3978 79.7316C30.2781 79.8045 30.1827 79.9083 30.1116 80.043C30.0406 80.1758 30.005 80.331 30.005 80.5087V83.1289H28.9895ZM37.3194 83.2159C37.0463 83.2159 36.8004 83.1672 36.5816 83.07C36.3646 82.9709 36.1926 82.825 36.0654 82.6324C35.9401 82.4397 35.8774 82.2022 35.8774 81.9198C35.8774 81.6766 35.9223 81.4756 36.0121 81.3166C36.1019 81.1576 36.2244 81.0305 36.3796 80.9351C36.5348 80.8397 36.7097 80.7677 36.9042 80.7191C37.1006 80.6686 37.3035 80.6321 37.513 80.6097C37.7655 80.5835 37.9703 80.5601 38.1274 80.5395C38.2845 80.5171 38.3986 80.4834 38.4696 80.4385C38.5426 80.3918 38.579 80.3198 38.579 80.2225V80.2057C38.579 79.9943 38.5164 79.8307 38.3911 79.7147C38.2658 79.5988 38.0853 79.5408 37.8496 79.5408C37.6009 79.5408 37.4036 79.595 37.2577 79.7035C37.1137 79.812 37.0164 79.9401 36.9659 80.0879L36.0177 79.9532C36.0925 79.6914 36.216 79.4725 36.388 79.2967C36.5601 79.1191 36.7705 78.9863 37.0192 78.8984C37.268 78.8086 37.5429 78.7637 37.844 78.7637C38.0516 78.7637 38.2583 78.788 38.464 78.8366C38.6697 78.8853 38.8577 78.9657 39.0279 79.0779C39.1981 79.1883 39.3346 79.3388 39.4375 79.5296C39.5422 79.7203 39.5946 79.9588 39.5946 80.245V83.1289H38.6183V82.537H38.5846C38.5229 82.6567 38.436 82.7689 38.3237 82.8736C38.2134 82.9765 38.0741 83.0597 37.9057 83.1233C37.7393 83.185 37.5438 83.2159 37.3194 83.2159ZM37.5831 82.4696C37.787 82.4696 37.9637 82.4294 38.1133 82.349C38.263 82.2667 38.378 82.1582 38.4584 82.0236C38.5407 81.8889 38.5818 81.7421 38.5818 81.5831V81.0754C38.55 81.1015 38.4958 81.1259 38.4191 81.1483C38.3443 81.1707 38.2602 81.1904 38.1666 81.2072C38.0731 81.224 37.9805 81.239 37.8889 81.2521C37.7973 81.2652 37.7178 81.2764 37.6504 81.2858C37.499 81.3063 37.3634 81.34 37.2437 81.3868C37.124 81.4335 37.0295 81.499 36.9603 81.5831C36.8911 81.6654 36.8565 81.772 36.8565 81.9029C36.8565 82.09 36.9248 82.2312 37.0613 82.3266C37.1978 82.4219 37.3718 82.4696 37.5831 82.4696ZM42.4898 84.8346C42.1251 84.8346 41.8118 84.785 41.5499 84.6859C41.2881 84.5886 41.0777 84.4577 40.9187 84.2931C40.7598 84.1286 40.6494 83.9462 40.5877 83.7461L41.5023 83.5245C41.5434 83.6086 41.6032 83.6919 41.6818 83.7741C41.7604 83.8583 41.866 83.9275 41.9988 83.9817C42.1335 84.0379 42.3027 84.0659 42.5066 84.0659C42.7946 84.0659 43.0331 83.9958 43.222 83.8555C43.4109 83.7171 43.5053 83.4889 43.5053 83.171V82.3546H43.4548C43.4024 82.4594 43.3258 82.5669 43.2248 82.6772C43.1256 82.7876 42.9938 82.8802 42.8292 82.955C42.6665 83.0298 42.4617 83.0672 42.2148 83.0672C41.8838 83.0672 41.5836 82.9896 41.3143 82.8343C41.0468 82.6772 40.8336 82.4435 40.6747 82.133C40.5176 81.8207 40.439 81.4298 40.439 80.9603C40.439 80.4872 40.5176 80.0879 40.6747 79.7624C40.8336 79.4351 41.0478 79.1873 41.3171 79.019C41.5864 78.8488 41.8866 78.7637 42.2176 78.7637C42.4701 78.7637 42.6777 78.8067 42.8404 78.8928C43.005 78.9769 43.1359 79.0788 43.2332 79.1985C43.3304 79.3164 43.4043 79.4277 43.4548 79.5324H43.5109V78.8198H44.5124V83.199C44.5124 83.5675 44.4245 83.8723 44.2487 84.1136C44.0729 84.3549 43.8326 84.5353 43.5278 84.655C43.2229 84.7747 42.8769 84.8346 42.4898 84.8346ZM42.4982 82.2705C42.7133 82.2705 42.8965 82.2181 43.048 82.1134C43.1995 82.0086 43.3145 81.8581 43.3931 81.6617C43.4716 81.4653 43.5109 81.2297 43.5109 80.9547C43.5109 80.6835 43.4716 80.446 43.3931 80.2422C43.3164 80.0383 43.2023 79.8803 43.0508 79.768C42.9012 79.654 42.717 79.5969 42.4982 79.5969C42.2719 79.5969 42.083 79.6558 41.9315 79.7737C41.78 79.8915 41.6659 80.0533 41.5892 80.259C41.5125 80.4628 41.4742 80.6948 41.4742 80.9547C41.4742 81.2184 41.5125 81.4494 41.5892 81.6477C41.6678 81.844 41.7828 81.9974 41.9343 82.1077C42.0876 82.2162 42.2756 82.2705 42.4982 82.2705ZM47.4609 83.2131C47.0289 83.2131 46.6558 83.1233 46.3416 82.9437C46.0292 82.7623 45.7889 82.5061 45.6206 82.1751C45.4523 81.8422 45.3681 81.4503 45.3681 80.9996C45.3681 80.5564 45.4523 80.1673 45.6206 79.8326C45.7908 79.4959 46.0283 79.2341 46.3332 79.0471C46.638 78.8582 46.9962 78.7637 47.4076 78.7637C47.6732 78.7637 47.9238 78.8067 48.1595 78.8928C48.397 78.9769 48.6065 79.1078 48.7879 79.2855C48.9712 79.4632 49.1152 79.6895 49.2199 79.9644C49.3246 80.2375 49.377 80.5629 49.377 80.9407V81.2521H45.845V80.5676H48.4035C48.4017 80.3731 48.3596 80.2001 48.2773 80.0486C48.195 79.8952 48.08 79.7746 47.9322 79.6867C47.7863 79.5988 47.6162 79.5548 47.4216 79.5548C47.214 79.5548 47.0317 79.6053 46.8746 79.7063C46.7175 79.8054 46.595 79.9364 46.5071 80.0991C46.4211 80.2599 46.3771 80.4367 46.3752 80.6293V81.2268C46.3752 81.4775 46.4211 81.6925 46.5127 81.8721C46.6043 82.0498 46.7325 82.1863 46.897 82.2817C47.0616 82.3752 47.2543 82.4219 47.4749 82.4219C47.6227 82.4219 47.7564 82.4014 47.8761 82.3602C47.9958 82.3172 48.0996 82.2546 48.1875 82.1723C48.2754 82.09 48.3418 81.988 48.3867 81.8665L49.3349 81.9731C49.2751 82.2237 49.161 82.4425 48.9927 82.6295C48.8262 82.8147 48.613 82.9587 48.353 83.0616C48.0931 83.1626 47.7957 83.2131 47.4609 83.2131ZM53.6419 79.9588L52.7161 80.0598C52.6899 79.9663 52.6441 79.8784 52.5787 79.7961C52.5151 79.7138 52.429 79.6474 52.3206 79.5969C52.2121 79.5464 52.0793 79.5212 51.9222 79.5212C51.7109 79.5212 51.5332 79.567 51.3892 79.6586C51.247 79.7503 51.1769 79.869 51.1788 80.0149C51.1769 80.1402 51.2227 80.2422 51.3162 80.3207C51.4116 80.3993 51.5687 80.4638 51.7875 80.5143L52.5226 80.6714C52.9303 80.7593 53.2333 80.8986 53.4315 81.0894C53.6316 81.2801 53.7326 81.5298 53.7345 81.8384C53.7326 82.1096 53.6531 82.349 53.496 82.5566C53.3408 82.7623 53.1248 82.9232 52.848 83.0391C52.5712 83.1551 52.2532 83.2131 51.8941 83.2131C51.3667 83.2131 50.9422 83.1027 50.6205 82.882C50.2988 82.6595 50.1071 82.3499 50.0454 81.9534L51.0357 81.8581C51.0806 82.0526 51.176 82.1994 51.3218 82.2985C51.4677 82.3976 51.6576 82.4472 51.8913 82.4472C52.1326 82.4472 52.3262 82.3976 52.4721 82.2985C52.6198 82.1994 52.6937 82.0769 52.6937 81.931C52.6937 81.8076 52.646 81.7056 52.5506 81.6252C52.4571 81.5448 52.3112 81.4831 52.113 81.4401L51.378 81.2858C50.9646 81.1997 50.6588 81.0548 50.4606 80.8509C50.2623 80.6452 50.1642 80.3852 50.166 80.071C50.1642 79.8054 50.2362 79.5754 50.382 79.3809C50.5298 79.1845 50.7346 79.033 50.9964 78.9264C51.2601 78.8179 51.564 78.7637 51.9082 78.7637C52.4131 78.7637 52.8106 78.8712 53.1005 79.0863C53.3922 79.3014 53.5727 79.5922 53.6419 79.9588Z" fill="#8F8F8F"/>
<path d="M27.7755 37.1289V31.3835H28.8163V36.2564H31.3468V37.1289H27.7755ZM32.2052 37.1289V32.8198H33.2208V37.1289H32.2052ZM32.7158 32.2082C32.5549 32.2082 32.4165 32.1549 32.3006 32.0483C32.1846 31.9399 32.1267 31.8099 32.1267 31.6584C32.1267 31.505 32.1846 31.375 32.3006 31.2684C32.4165 31.16 32.5549 31.1057 32.7158 31.1057C32.8785 31.1057 33.0169 31.16 33.131 31.2684C33.2469 31.375 33.3049 31.505 33.3049 31.6584C33.3049 31.8099 33.2469 31.9399 33.131 32.0483C33.0169 32.1549 32.8785 32.2082 32.7158 32.2082ZM35.2806 34.604V37.1289H34.2651V32.8198H35.2357V33.552H35.2862C35.3854 33.3108 35.5434 33.1191 35.7603 32.9769C35.9792 32.8348 36.2494 32.7637 36.5711 32.7637C36.8685 32.7637 37.1275 32.8273 37.3482 32.9545C37.5708 33.0817 37.7428 33.2659 37.8644 33.5071C37.9878 33.7484 38.0486 34.0411 38.0467 34.3852V37.1289H37.0312V34.5423C37.0312 34.2543 36.9564 34.0289 36.8068 33.8662C36.659 33.7035 36.4542 33.6222 36.1924 33.6222C36.0147 33.6222 35.8567 33.6614 35.7183 33.74C35.5817 33.8167 35.4742 33.9279 35.3956 34.0738C35.319 34.2197 35.2806 34.3964 35.2806 34.604ZM40.0049 35.7767L40.0021 34.5507H40.1648L41.7134 32.8198H42.9001L40.9952 34.9407H40.7848L40.0049 35.7767ZM39.0791 37.1289V31.3835H40.0947V37.1289H39.0791ZM41.7835 37.1289L40.3808 35.1679L41.0654 34.4526L42.9983 37.1289H41.7835ZM46.9826 33.9588L46.0569 34.0598C46.0307 33.9663 45.9848 33.8784 45.9194 33.7961C45.8558 33.7138 45.7698 33.6474 45.6613 33.5969C45.5528 33.5464 45.42 33.5212 45.2629 33.5212C45.0516 33.5212 44.8739 33.567 44.7299 33.6586C44.5878 33.7503 44.5176 33.869 44.5195 34.0149C44.5176 34.1402 44.5634 34.2422 44.657 34.3207C44.7523 34.3993 44.9094 34.4638 45.1283 34.5143L45.8633 34.6714C46.271 34.7593 46.574 34.8986 46.7722 35.0894C46.9723 35.2801 47.0733 35.5298 47.0752 35.8384C47.0733 36.1096 46.9939 36.349 46.8368 36.5566C46.6815 36.7623 46.4655 36.9232 46.1887 37.0391C45.9119 37.1551 45.594 37.2131 45.2349 37.2131C44.7075 37.2131 44.2829 37.1027 43.9612 36.882C43.6395 36.6595 43.4478 36.3499 43.3861 35.9534L44.3764 35.8581C44.4213 36.0526 44.5167 36.1994 44.6626 36.2985C44.8085 36.3976 44.9983 36.4472 45.2321 36.4472C45.4733 36.4472 45.6669 36.3976 45.8128 36.2985C45.9605 36.1994 46.0344 36.0769 46.0344 35.931C46.0344 35.8076 45.9867 35.7056 45.8913 35.6252C45.7978 35.5448 45.6519 35.4831 45.4537 35.4401L44.7187 35.2858C44.3054 35.1997 43.9996 35.0548 43.8013 34.8509C43.6031 34.6452 43.5049 34.3852 43.5067 34.071C43.5049 33.8054 43.5769 33.5754 43.7228 33.3809C43.8705 33.1845 44.0753 33.033 44.3371 32.9264C44.6009 32.8179 44.9048 32.7637 45.2489 32.7637C45.7539 32.7637 46.1513 32.8712 46.4412 33.0863C46.733 33.3014 46.9134 33.5922 46.9826 33.9588Z" fill="#9B9B9B"/>
<path d="M6.6364 14.1289V9.87851H8.4778C8.909 9.87851 9.272 9.95111 9.5668 10.0963C9.8616 10.2371 10.086 10.4659 10.24 10.7827C10.394 11.0951 10.471 11.5109 10.471 12.0301C10.471 12.7605 10.3016 13.2929 9.9628 13.6273C9.6284 13.9617 9.1334 14.1289 8.4778 14.1289H6.6364ZM7.699 13.3105H8.3326C8.5614 13.3105 8.7528 13.2775 8.9068 13.2115C9.0652 13.1411 9.184 13.0135 9.2632 12.8287C9.3468 12.6439 9.3886 12.3777 9.3886 12.0301C9.3886 11.6781 9.3512 11.4075 9.2764 11.2183C9.206 11.0247 9.0916 10.8905 8.9332 10.8157C8.7792 10.7365 8.579 10.6969 8.3326 10.6969H7.699V13.3105ZM10.5198 14.1289L12.1434 9.87851H13.2918L14.9154 14.1289H13.8066L13.4238 13.1653H12.0048L11.6286 14.1289H10.5198ZM12.15 12.3799H13.2786L12.711 10.9015L12.15 12.3799ZM15.8762 14.1289V10.6969H14.6288V9.87851H18.1862V10.6969H16.9388V14.1289H15.8762ZM17.9706 14.1289L19.5942 9.87851H20.7426L22.3662 14.1289H21.2574L20.8746 13.1653H19.4556L19.0794 14.1289H17.9706ZM19.6008 12.3799H20.7294L20.1618 10.9015L19.6008 12.3799Z" fill="black" fill-opacity="0.3"/>
<path opacity="0.4" d="M16.4186 52.3789H11.1811C8.90605 52.3789 7.5498 53.7352 7.5498 56.0102V61.2414C7.5498 63.5227 8.90605 64.8789 11.1811 64.8789H16.4123C18.6873 64.8789 20.0436 63.5227 20.0436 61.2477V56.0102C20.0498 53.7352 18.6936 52.3789 16.4186 52.3789Z" fill="#FB64D2"/>
<path d="M11.9873 58.6286V57.7036C11.9873 56.5098 12.8311 56.0286 13.8623 56.6223L14.6623 57.0848L15.4623 57.5473C16.4936 58.1411 16.4936 59.1161 15.4623 59.7098L14.6623 60.1723L13.8623 60.6348C12.8311 61.2286 11.9873 60.7411 11.9873 59.5536V58.6286Z" fill="black"/>
<path opacity="0.4" d="M20.0498 78.0102V81.8164L19.0311 80.9414C18.5436 80.5227 17.7561 80.5227 17.2686 80.9414L14.6686 83.1727C14.1811 83.5914 13.3936 83.5914 12.9061 83.1727L12.6936 82.9977C12.2498 82.6102 11.5436 82.5727 11.0436 82.9102L7.96855 84.9727L7.8998 85.0227C7.66855 84.5227 7.5498 83.9289 7.5498 83.2477V78.0102C7.5498 75.7352 8.90605 74.3789 11.1811 74.3789H16.4186C18.6936 74.3789 20.0498 75.7352 20.0498 78.0102Z" fill="#FB64D2"/>
<path d="M11.925 79.6166C12.7465 79.6166 13.4125 78.9506 13.4125 78.1291C13.4125 77.3076 12.7465 76.6416 11.925 76.6416C11.1035 76.6416 10.4375 77.3076 10.4375 78.1291C10.4375 78.9506 11.1035 79.6166 11.925 79.6166Z" fill="black"/>
<path d="M20.0494 81.816V83.2473C20.0494 85.5223 18.6932 86.8785 16.4182 86.8785H11.1807C9.58691 86.8785 8.43691 86.2098 7.89941 85.0223L7.96816 84.9723L11.0432 82.9098C11.5432 82.5723 12.2494 82.6098 12.6932 82.9973L12.9057 83.1723C13.3932 83.591 14.1807 83.591 14.6682 83.1723L17.2682 80.941C17.7557 80.5223 18.5432 80.5223 19.0307 80.941L20.0494 81.816Z" fill="#FB64D2"/>
<path opacity="0.4" d="M14.0332 40.3862C17.5343 40.3368 20.3324 37.4631 20.2829 33.9676C20.2334 30.4721 17.355 27.6785 13.8539 27.7279C10.3528 27.7773 7.55478 30.651 7.60428 34.1465C7.65379 37.642 10.5321 40.4356 14.0332 40.3862Z" fill="#FB64D2"/>
<path d="M11.37 36.1198C11.313 36.1198 11.2622 36.1135 11.2052 36.0881C10.6917 35.8983 10.2605 35.5248 9.98792 35.0374C9.35393 33.898 9.74701 32.4105 10.8565 31.7206L12.34 30.8028C12.8853 30.4673 13.5256 30.366 14.1342 30.5243C14.7429 30.6825 15.2564 31.0813 15.5671 31.6383C16.2011 32.7777 15.808 34.2652 14.6985 34.9551L14.5337 35.0754C14.3181 35.2273 14.0201 35.1767 13.868 34.9678C13.7158 34.7526 13.7665 34.4551 13.9757 34.3032L14.1723 34.1639C14.8824 33.7208 15.1233 32.803 14.7365 32.1004C14.5527 31.7712 14.2547 31.537 13.8997 31.4421C13.5446 31.3471 13.1706 31.4041 12.8472 31.6067L11.3637 32.5245C10.679 32.9486 10.4381 33.8664 10.8248 34.5753C10.9833 34.8602 11.2369 35.0817 11.5412 35.1956C11.7885 35.2843 11.9153 35.5565 11.8202 35.8033C11.7504 35.9995 11.5666 36.1198 11.37 36.1198Z" fill="black"/>
<path d="M14.3624 37.6329C14.1722 37.6329 13.9757 37.6076 13.7855 37.5569C13.1769 37.3987 12.6633 36.9999 12.359 36.4429C11.725 35.3035 12.1181 33.816 13.2276 33.1261L13.3924 33.0058C13.608 32.8539 13.906 32.9045 14.0581 33.1134C14.2103 33.3286 14.1596 33.6261 13.9503 33.778L13.7538 33.9173C13.0437 34.3604 12.8028 35.2782 13.1895 35.9808C13.3734 36.31 13.6714 36.5441 14.0264 36.6391C14.3815 36.734 14.7555 36.6771 15.0788 36.4745L16.5624 35.5567C17.2471 35.1326 17.488 34.2148 17.1013 33.5059C16.9428 33.221 16.6892 32.9995 16.3849 32.8855C16.1376 32.7969 16.0108 32.5247 16.1059 32.2779C16.1947 32.031 16.4736 31.9044 16.7145 31.9994C17.2281 32.1893 17.6592 32.5627 17.9318 33.0501C18.5658 34.1895 18.1727 35.677 17.0632 36.3669L15.5797 37.2847C15.2056 37.5126 14.7872 37.6329 14.3624 37.6329Z" fill="black"/>
</svg>
