<svg width="118" height="25" viewBox="0 0 118 25" fill="none" xmlns="http://www.w3.org/2000/svg">
<path d="M0 0C38.94 0 77.88 0 118 0C118 8.25 118 16.5 118 25C79.06 25 40.12 25 0 25C0 16.75 0 8.5 0 0Z" fill="#F1ACED"/>
<path d="M16.8487 7.81818V18H15.0043V7.81818H16.8487Z" fill="white"/>
<path d="M81.3966 6C81.628 6.07251 81.7426 6.28603 81.8575 6.49974C81.8998 6.58325 81.9417 6.66705 81.9832 6.75107C82.0169 6.81814 82.0169 6.81814 82.0513 6.88656C82.1984 7.18126 82.339 7.479 82.4759 7.77932C82.6016 8.05312 82.737 8.32047 82.874 8.58782C83.1163 9.0608 83.3471 9.53948 83.5757 10.0202C83.8171 10.528 84.0623 11.0326 84.3188 11.5319C84.5626 12.0089 84.7926 12.4936 85.0229 12.9782C85.0383 13.0105 85.0537 13.0429 85.0695 13.0762C85.1115 13.1643 85.1533 13.2524 85.1951 13.3406C85.2541 13.4613 85.3149 13.5784 85.3791 13.6959C85.4621 13.8567 85.4621 13.8567 85.4621 13.957C85.4929 13.957 85.5236 13.957 85.5553 13.957C85.5679 13.9133 85.5806 13.8695 85.5936 13.8245C85.646 13.6637 85.7075 13.5202 85.7805 13.3693C85.8068 13.3149 85.833 13.2605 85.86 13.2044C85.8882 13.1466 85.9164 13.0888 85.9454 13.0292C85.975 12.968 86.0047 12.9068 86.0343 12.8456C86.2309 12.4405 86.4331 12.0389 86.6381 11.6387C86.8694 11.1846 87.0879 10.7235 87.3072 10.2625C87.5328 9.78834 87.763 9.31784 88.0024 8.85157C88.1977 8.46953 88.3833 8.08237 88.5684 7.69452C88.7598 7.2937 88.9515 6.89339 89.1565 6.50032C89.1812 6.45258 89.1812 6.45258 89.2065 6.40387C89.2708 6.28243 89.3291 6.1828 89.4214 6.08345C89.5462 6.06661 89.5462 6.06661 89.695 6.06465C89.7683 6.06251 89.7683 6.06251 89.8431 6.06034C90.0162 6.0895 90.0577 6.13857 90.1666 6.28405C90.2078 6.42838 90.2078 6.42838 90.2332 6.59849C90.2432 6.66277 90.2532 6.72704 90.2635 6.79326C90.2737 6.86396 90.2838 6.93465 90.294 7.00535C90.3052 7.07919 90.3164 7.15302 90.3278 7.22683C90.3579 7.42505 90.3872 7.62341 90.4163 7.82182C90.4467 8.02822 90.478 8.23447 90.5092 8.44073C90.571 8.85049 90.6319 9.26042 90.6924 9.6704C90.7397 9.99047 90.7874 10.3105 90.8351 10.6304C90.8819 10.9444 90.9285 11.2583 90.9748 11.5724C91.0657 12.1888 91.1613 12.8041 91.2609 13.419C91.4145 14.3723 91.5546 15.328 91.6971 16.2832C91.7191 16.4304 91.7411 16.5775 91.7631 16.7246C91.7783 16.8265 91.7934 16.9283 91.8085 17.0302C91.8569 17.3536 91.9072 17.6762 91.9654 17.9978C91.9954 18.2019 92.0162 18.4165 91.9832 18.6209C91.9079 18.7267 91.8662 18.7669 91.7431 18.7912C91.7042 18.7916 91.6654 18.792 91.6254 18.7924C91.5812 18.7932 91.5371 18.794 91.4916 18.7949C91.444 18.7949 91.3964 18.7949 91.3473 18.7949C91.2983 18.7953 91.2494 18.7957 91.1989 18.7961C91.0952 18.7966 90.9916 18.7967 90.888 18.7965C90.7293 18.7965 90.5707 18.7985 90.412 18.8008C90.3114 18.801 90.2107 18.8012 90.1101 18.8012C90.0626 18.802 90.015 18.8028 89.9661 18.8037C89.9218 18.8032 89.8775 18.8027 89.8319 18.8022C89.793 18.8023 89.7541 18.8024 89.714 18.8026C89.549 18.7542 89.5074 18.6788 89.4214 18.5206C89.3784 18.3533 89.3576 18.1847 89.3368 18.0128C89.3267 17.9363 89.3267 17.9363 89.3163 17.8582C89.2942 17.69 89.2731 17.5215 89.252 17.3531C89.2368 17.236 89.2215 17.1189 89.2061 17.0018C89.1659 16.6936 89.1265 16.3854 89.0874 16.077C89.0475 15.7634 89.0067 15.45 88.966 15.1365C88.9203 14.7843 88.8747 14.432 88.8297 14.0797C88.8228 14.0261 88.816 13.9725 88.8089 13.9173C88.7961 13.8174 88.7834 13.7174 88.7707 13.6175C88.7651 13.5732 88.7594 13.5289 88.7536 13.4833C88.7463 13.4259 88.7463 13.4259 88.7388 13.3673C88.7213 13.2454 88.6993 13.1249 88.6761 13.0041C88.6616 13.0356 88.6471 13.0671 88.6322 13.0995C88.5635 13.2485 88.4946 13.3975 88.4257 13.5464C88.403 13.5958 88.3802 13.6452 88.3568 13.6962C88.207 14.0197 88.0527 14.3402 87.8955 14.6597C87.6431 15.1734 87.4022 15.6931 87.1623 16.2137C86.868 16.8523 86.5685 17.4871 86.258 18.1167C86.1542 18.3281 86.0522 18.5405 85.9499 18.7528C85.8813 18.8717 85.8813 18.8717 85.7416 18.972C85.6342 18.9906 85.6342 18.9906 85.5145 18.9939C85.4753 18.9959 85.436 18.9979 85.3955 19C85.2225 18.9595 85.1598 18.8628 85.0429 18.7212C84.9778 18.6045 84.9193 18.4914 84.8633 18.37C84.8473 18.3363 84.8313 18.3027 84.8149 18.268C84.7633 18.1591 84.7124 18.05 84.6615 17.9408C84.6259 17.8653 84.5903 17.7898 84.5546 17.7144C84.4528 17.4987 84.3518 17.2826 84.2511 17.0663C84.2264 17.0134 84.2018 16.9604 84.1764 16.9059C84.101 16.7438 84.0257 16.5816 83.9509 16.4192C83.8279 16.1527 83.7007 15.8889 83.5711 15.626C83.3989 15.2754 83.2299 14.9231 83.0633 14.5694C83.0422 14.5246 83.0211 14.4799 82.9993 14.4338C82.9129 14.2507 82.8266 14.0676 82.7407 13.8842C82.6767 13.7478 82.6124 13.6116 82.548 13.4755C82.5188 13.4129 82.5188 13.4129 82.489 13.349C82.471 13.3109 82.4529 13.2729 82.4343 13.2336C82.4185 13.2001 82.4027 13.1665 82.3865 13.132C82.3448 13.0453 82.3448 13.0453 82.2481 13.0041C82.2466 13.048 82.2451 13.0918 82.2435 13.137C82.2145 13.7706 82.1306 14.3925 82.0444 15.0195C82.03 15.1254 82.0157 15.2312 82.0014 15.337C81.9732 15.5453 81.945 15.7537 81.9166 15.962C81.7991 16.8116 81.7991 16.8116 81.6965 17.6634C81.6912 17.7109 81.686 17.7584 81.6806 17.8074C81.6705 17.9015 81.6607 17.9957 81.6512 18.0899C81.6214 18.355 81.5932 18.5739 81.4097 18.7714C81.3404 18.7768 81.2709 18.7789 81.2014 18.7795C81.1571 18.7799 81.1128 18.7804 81.0671 18.7809C81.0189 18.7811 80.9707 18.7814 80.921 18.7816C80.8471 18.782 80.8471 18.782 80.7718 18.7824C80.6674 18.7829 80.563 18.7832 80.4586 18.7834C80.2986 18.7839 80.1387 18.7855 79.9787 18.7871C79.8774 18.7874 79.7762 18.7876 79.675 18.7878C79.6269 18.7885 79.5789 18.7891 79.5294 18.7897C79.4848 18.7896 79.4402 18.7894 79.3943 18.7893C79.355 18.7894 79.3157 18.7896 79.2753 18.7898C79.1739 18.7714 79.1739 18.7714 79.0912 18.7087C78.8925 18.4028 79.0724 17.8035 79.1262 17.4647C79.1406 17.3713 79.1406 17.3713 79.1552 17.276C79.181 17.1089 79.2071 16.9419 79.2334 16.7749C79.2607 16.6005 79.2876 16.4259 79.3145 16.2514C79.3668 15.9127 79.4196 15.5742 79.4725 15.2356C79.5252 14.8989 79.5774 14.5621 79.6296 14.2253C79.6458 14.1213 79.662 14.0174 79.6782 13.9134C79.7397 13.5174 79.7995 13.121 79.8578 12.7244C79.8648 12.677 79.8718 12.6296 79.879 12.5808C79.8897 12.5078 79.8897 12.5078 79.9006 12.4335C80.144 10.7798 80.4038 9.1293 80.6642 7.47874C80.6698 7.44359 80.6753 7.40844 80.681 7.37222C80.6968 7.27203 80.7128 7.17186 80.7287 7.07169C80.7476 6.95038 80.7657 6.82893 80.7829 6.70734C80.7906 6.65349 80.7983 6.59965 80.8062 6.54418C80.8158 6.47427 80.8158 6.47427 80.8255 6.40295C80.8508 6.28405 80.8508 6.28405 80.9468 6.12107C81.1069 6.01839 81.2135 6.00347 81.3966 6Z" fill="#FEFCFC"/>
<path d="M103.638 6.01636C103.825 6.1153 103.956 6.24569 104.1 6.40557C104.234 6.55297 104.369 6.69271 104.515 6.82553C104.736 7.03054 104.942 7.24947 105.148 7.47119C105.187 7.51334 105.227 7.55548 105.267 7.5989C105.434 7.77753 105.601 7.95646 105.768 8.13537C105.89 8.26667 106.013 8.39782 106.135 8.52897C106.172 8.56889 106.21 8.60882 106.248 8.64995C106.41 8.82345 106.573 8.99285 106.747 9.15244C106.978 9.36419 107.191 9.59443 107.405 9.8249C107.471 9.89547 107.537 9.96605 107.603 10.0366C107.718 10.1591 107.832 10.2818 107.946 10.4044C108.084 10.5521 108.222 10.6997 108.36 10.8471C108.445 10.9386 108.531 11.0302 108.616 11.1219C108.654 11.163 108.693 11.2041 108.732 11.2465C108.766 11.2828 108.8 11.3191 108.835 11.3565C108.915 11.4439 108.915 11.4439 109.013 11.4904C109.013 11.5236 109.013 11.5567 109.013 11.5909C109.039 11.6021 109.065 11.6133 109.092 11.6248C109.235 11.7113 109.34 11.8275 109.454 11.952C109.478 11.9774 109.501 12.0028 109.526 12.0289C109.601 12.1097 109.675 12.1908 109.75 12.272C109.825 12.3533 109.9 12.4345 109.975 12.5156C110.022 12.566 110.069 12.6165 110.115 12.6672C110.236 12.7988 110.236 12.7988 110.381 12.8966C110.38 12.8631 110.38 12.8296 110.38 12.7951C110.376 11.9803 110.373 11.1655 110.371 10.3507C110.37 9.95667 110.369 9.56266 110.366 9.16863C110.365 8.82526 110.363 8.48189 110.363 8.13852C110.363 7.95665 110.362 7.77479 110.361 7.59292C110.359 7.39005 110.359 7.1872 110.359 6.98432C110.359 6.92382 110.358 6.86331 110.357 6.80097C110.357 6.74583 110.358 6.69069 110.358 6.63388C110.358 6.58587 110.358 6.53787 110.357 6.48841C110.381 6.36791 110.381 6.36791 110.47 6.27717C110.586 6.20702 110.658 6.19789 110.791 6.19695C110.835 6.19631 110.879 6.19568 110.924 6.19502C110.971 6.19517 111.017 6.19532 111.066 6.19547C111.114 6.1952 111.163 6.19494 111.213 6.19467C111.315 6.19435 111.418 6.19441 111.52 6.19484C111.677 6.19527 111.833 6.19382 111.99 6.19223C112.09 6.19215 112.189 6.19218 112.289 6.19233C112.336 6.19176 112.383 6.1912 112.431 6.19062C112.497 6.19133 112.497 6.19133 112.564 6.19205C112.621 6.19206 112.621 6.19206 112.68 6.19207C112.835 6.22897 112.88 6.28112 112.974 6.41813C113.003 6.58177 112.999 6.7439 112.998 6.90995C112.998 6.96043 112.999 7.01091 112.999 7.06292C113 7.23257 112.999 7.40218 112.998 7.57183C112.999 7.69325 112.999 7.81467 112.999 7.93609C113 8.23194 113 8.52779 113 8.82364C112.999 9.06406 112.999 9.30448 112.999 9.5449C112.999 9.5791 112.999 9.6133 112.999 9.64854C112.999 9.71802 112.999 9.7875 113 9.85698C113 10.5087 112.999 11.1603 112.998 11.812C112.998 12.3714 112.998 12.9307 112.999 13.49C113 14.1393 113 14.7887 112.999 15.438C112.999 15.5072 112.999 15.5764 112.999 15.6457C112.999 15.6968 112.999 15.6968 112.999 15.7489C112.999 15.989 112.999 16.2292 113 16.4694C113 16.7925 113 17.1157 112.999 17.4389C112.999 17.5577 112.999 17.6765 112.999 17.7953C113 17.9571 112.999 18.1188 112.998 18.2806C112.998 18.328 112.999 18.3753 112.999 18.4241C112.996 18.7411 112.996 18.7411 112.885 18.9019C112.772 18.9828 112.714 19.0004 112.579 18.9984C112.528 18.9992 112.528 18.9992 112.475 19C112.186 18.9324 111.974 18.6757 111.773 18.4593C111.745 18.4294 111.717 18.3994 111.688 18.3685C111.629 18.3053 111.57 18.242 111.511 18.1786C111.422 18.0826 111.332 17.9871 111.242 17.8916C111.185 17.8298 111.127 17.7679 111.069 17.706C111.043 17.678 111.016 17.6499 110.989 17.621C110.854 17.4747 110.723 17.3255 110.597 17.1697C110.422 16.9548 110.236 16.7547 110.046 16.5549C110.011 16.5174 109.975 16.4799 109.939 16.4413C109.827 16.3226 109.715 16.2041 109.603 16.0856C109.455 15.9294 109.307 15.7729 109.159 15.6164C109.109 15.5637 109.109 15.5637 109.058 15.51C108.873 15.3144 108.699 15.1133 108.529 14.9034C108.391 14.7378 108.243 14.5837 108.095 14.4287C108.03 14.3596 107.964 14.2904 107.899 14.2212C107.797 14.1136 107.694 14.0062 107.592 13.8988C107.492 13.7942 107.393 13.6893 107.294 13.5844C107.247 13.536 107.247 13.536 107.2 13.4866C107.172 13.4567 107.144 13.4269 107.115 13.3961C107.09 13.3699 107.065 13.3436 107.039 13.3166C106.986 13.2482 106.986 13.2482 106.986 13.1477C106.939 13.1311 106.892 13.1146 106.844 13.0975C106.774 13.0215 106.774 13.0215 106.698 12.9233C106.5 12.6751 106.286 12.4474 106.069 12.2186C106.011 12.1567 106.011 12.1567 105.951 12.0935C105.856 11.9928 105.761 11.8922 105.665 11.7917C105.665 11.8268 105.665 11.8619 105.665 11.898C105.662 12.7505 105.659 13.603 105.654 14.4555C105.652 14.8678 105.65 15.28 105.649 15.6923C105.648 16.0516 105.646 16.4108 105.644 16.7701C105.643 16.9604 105.642 17.1507 105.642 17.341C105.642 17.52 105.641 17.699 105.639 17.878C105.639 17.9752 105.639 18.0724 105.639 18.1696C105.638 18.2273 105.638 18.2849 105.637 18.3444C105.637 18.3946 105.637 18.4448 105.636 18.4966C105.618 18.6218 105.618 18.6218 105.553 18.7132C105.45 18.7932 105.382 18.7919 105.256 18.7927C105.189 18.7937 105.189 18.7937 105.12 18.7947C105.072 18.7945 105.024 18.7944 104.974 18.7942C104.925 18.7945 104.875 18.7947 104.824 18.795C104.719 18.7953 104.614 18.7953 104.509 18.7948C104.349 18.7944 104.188 18.7959 104.028 18.7974C103.926 18.7975 103.824 18.7975 103.722 18.7973C103.674 18.7979 103.626 18.7985 103.576 18.7991C103.531 18.7986 103.486 18.7981 103.44 18.7976C103.381 18.7976 103.381 18.7976 103.321 18.7976C103.165 18.7611 103.12 18.7099 103.025 18.5716C102.996 18.4078 103 18.2456 103.001 18.0794C103.001 18.0289 103.001 17.9784 103 17.9263C103 17.7565 103 17.5868 103.001 17.4171C103.001 17.2956 103.001 17.174 103 17.0525C103 16.7565 103 16.4605 103.001 16.1644C103.002 15.8198 103.001 15.4752 103.001 15.1306C103.001 14.5159 103.002 13.9011 103.003 13.2863C103.004 12.6895 103.004 12.0927 103.004 11.4959C103.003 10.8463 103.003 10.1966 103.004 9.54697C103.004 9.47773 103.004 9.40849 103.004 9.33925C103.004 9.30518 103.004 9.27111 103.004 9.23601C103.004 8.99568 103.004 8.75534 103.004 8.515C103.004 8.19171 103.004 7.86842 103.005 7.54513C103.006 7.42622 103.006 7.30732 103.005 7.18842C103.005 7.02661 103.006 6.86483 103.006 6.70303C103.006 6.65553 103.006 6.60804 103.006 6.55911C103.006 6.51589 103.006 6.47268 103.007 6.42816C103.007 6.3908 103.007 6.35344 103.007 6.31494C103.03 6.18954 103.074 6.14606 103.166 6.06658C103.314 5.98763 103.476 5.99035 103.638 6.01636Z" fill="#FEFDFD"/>
<path d="M58.8538 6C58.918 6.00091 58.918 6.00091 58.9836 6.00184C59.0264 6.00123 59.0692 6.00063 59.1133 6C59.2958 6.0463 59.3365 6.11873 59.4392 6.26706C59.5328 6.43051 59.6177 6.59724 59.7018 6.76508C59.7265 6.81372 59.7511 6.86235 59.7765 6.91247C59.9419 7.23996 60.1033 7.56903 60.2617 7.8995C60.451 8.29459 60.6443 8.68794 60.8377 9.08131C61.1064 9.62809 61.3744 10.1752 61.6414 10.7227C61.9191 11.2922 62.1978 11.8613 62.4773 12.4301C62.6584 12.7986 62.8392 13.1672 63.0189 13.5362C63.0343 13.5677 63.0496 13.5991 63.0654 13.6315C63.0963 13.695 63.1272 13.7585 63.1581 13.822C63.4373 14.3952 63.7189 14.9673 64.0024 15.5387C64.0612 15.6573 64.1199 15.776 64.1786 15.8947C64.3419 16.2248 64.5057 16.5547 64.6738 16.8827C64.6981 16.9309 64.7225 16.9791 64.7477 17.0288C64.7907 17.1138 64.8344 17.1985 64.8788 17.2829C64.9843 17.4926 65.0464 17.6359 64.9573 17.8659C64.7972 17.9653 64.7538 17.9727 64.57 17.9761C64.5223 17.9772 64.4747 17.9782 64.4256 17.9793C64.3741 17.9799 64.3227 17.9804 64.2697 17.981C64.2167 17.9816 64.1637 17.9823 64.1091 17.983C63.9969 17.9841 63.8847 17.9849 63.7725 17.9854C63.6011 17.9867 63.4299 17.9902 63.2585 17.9938C63.1495 17.9946 63.0404 17.9952 62.9313 17.9957C62.8802 17.9971 62.8291 17.9985 62.7765 18C62.431 17.998 62.431 17.998 62.2792 17.8947C62.1186 17.7281 62.0093 17.5384 61.9109 17.3347C61.8847 17.2811 61.8585 17.2275 61.8315 17.1723C61.8053 17.1172 61.7791 17.0621 61.7521 17.0054C61.7249 16.9496 61.6978 16.8938 61.6698 16.8363C61.4753 16.4353 61.4753 16.4353 61.4136 16.2628C59.8098 16.2472 58.2059 16.2317 56.5535 16.2156C56.5368 16.2934 56.5201 16.3712 56.5029 16.4514C56.4213 16.651 56.3266 16.8454 56.234 17.0408C56.2093 17.094 56.1847 17.1471 56.1593 17.2019C56.1351 17.2533 56.1108 17.3046 56.0858 17.3576C56.0529 17.4275 56.0529 17.4275 56.0193 17.4989C55.9002 17.7121 55.7836 17.8688 55.541 17.9602C55.4274 17.9725 55.4274 17.9725 55.302 17.9731C55.2549 17.9736 55.2078 17.974 55.1592 17.9745C55.1087 17.9745 55.0582 17.9744 55.0061 17.9744C54.9539 17.9746 54.9018 17.9748 54.848 17.975C54.7379 17.9753 54.6277 17.9753 54.5175 17.9751C54.3486 17.9749 54.1798 17.976 54.0109 17.9772C53.9039 17.9773 53.7969 17.9774 53.6898 17.9773C53.6392 17.9778 53.5886 17.9782 53.5364 17.9786C53.4895 17.9783 53.4425 17.978 53.3941 17.9777C53.3528 17.9778 53.3114 17.9778 53.2689 17.9778C53.1353 17.9559 53.0906 17.9186 53.0098 17.8187C52.9663 17.5587 53.0751 17.368 53.1935 17.14C53.2128 17.1018 53.232 17.0635 53.2519 17.0241C53.3152 16.8988 53.3792 16.7738 53.4432 16.6488C53.4876 16.5612 53.5319 16.4736 53.5761 16.3859C53.6434 16.2525 53.7107 16.1191 53.7782 15.9859C53.9754 15.5966 54.1674 15.2052 54.3577 14.8129C54.4189 14.6869 54.4802 14.561 54.5416 14.435C54.5568 14.4037 54.5721 14.3723 54.5878 14.34C54.7775 13.9509 54.9695 13.5627 55.1613 13.1745C55.4495 12.5912 55.7363 12.0073 56.0212 11.4226C56.2483 10.9565 56.4762 10.4907 56.7049 10.0253C56.9722 9.48117 57.2393 8.93701 57.5055 8.39244C57.5372 8.32752 57.569 8.26261 57.6008 8.19771C57.7682 7.85546 57.9341 7.51267 58.0958 7.16806C58.1167 7.12365 58.1167 7.12365 58.1381 7.07835C58.2035 6.93949 58.2685 6.8005 58.3328 6.6612C58.3556 6.61258 58.3784 6.56395 58.402 6.51386C58.4215 6.47166 58.4411 6.42947 58.4612 6.38599C58.6485 6.0521 58.6485 6.0521 58.8538 6Z" fill="#FEFCFC"/>
<path d="M71.2172 6.00233C72.472 5.96246 73.6808 6.43505 74.6498 7.31011C74.7343 7.40301 74.7343 7.40301 74.7407 7.49005C74.7154 7.78016 74.632 7.9679 74.4809 8.20422C74.4601 8.23793 74.4393 8.27165 74.4179 8.30638C74.3754 8.37504 74.3326 8.44348 74.2895 8.51168C74.2314 8.60439 74.1752 8.69811 74.1196 8.79261C74.087 8.84712 74.0543 8.90162 74.0216 8.95608C73.993 9.00392 73.9643 9.05176 73.9348 9.10105C73.8363 9.2289 73.7845 9.27146 73.6362 9.30734C73.3662 9.30273 73.1944 9.17758 72.9763 9.01995C72.3963 8.61706 71.7137 8.18925 71.0019 8.35535C70.7503 8.43499 70.593 8.55311 70.4555 8.80513C70.3986 9.06103 70.3955 9.30534 70.4766 9.55409C70.8704 10.1962 71.6611 10.5418 72.2709 10.8827C72.2995 10.8988 72.3281 10.9148 72.3575 10.9313C72.5009 11.0117 72.6444 11.0916 72.7883 11.1706C73.6601 11.6541 74.543 12.4033 74.8666 13.4577C74.8977 13.5913 74.924 13.7233 74.9455 13.8592C74.957 13.9268 74.957 13.9268 74.9687 13.9958C75.0916 14.9158 74.8452 15.8099 74.3542 16.5531C73.7944 17.3547 72.9361 17.7989 72.0452 17.9679C71.9417 17.9817 71.8399 17.9889 71.7357 17.993C71.6926 17.9948 71.6496 17.9967 71.6052 17.9986C70.7204 18.0175 69.8212 17.8474 69.0327 17.3892C68.9944 17.3683 68.9562 17.3474 68.9167 17.3258C68.5854 17.1383 68.1726 16.8997 68.0191 16.5067C68.012 16.1805 68.1767 15.9271 68.3227 15.6532C68.3465 15.6072 68.3704 15.5612 68.395 15.5138C68.4426 15.423 68.4909 15.3326 68.54 15.2426C68.5859 15.1582 68.6303 15.0728 68.673 14.9864C68.7304 14.8771 68.7833 14.7852 68.8638 14.6952C69.0866 14.6359 69.2017 14.6843 69.3972 14.8073C69.467 14.8564 69.5364 14.9062 69.6055 14.9565C70.2275 15.388 70.9172 15.7559 71.6732 15.6026C71.9021 15.5301 72.0923 15.4125 72.2425 15.2061C72.3699 14.9323 72.4104 14.6556 72.3459 14.3543C72.1079 13.5491 71.1595 13.1703 70.5294 12.8141C69.9373 12.479 69.3835 12.1472 68.906 11.6297C68.8767 11.6008 68.8474 11.572 68.8173 11.5422C68.3275 11.0452 68.0357 10.3643 68.0019 9.63556C67.9802 8.72201 68.1354 7.8813 68.7133 7.19109C69.3945 6.41656 70.2455 6.04718 71.2172 6.00233Z" fill="#FEFCFC"/>
<path d="M48.8143 6.00133C48.8589 6.00089 48.9036 6.00045 48.9496 6C48.9976 6.00077 49.0455 6.00155 49.0949 6.00234C49.1443 6.00234 49.1938 6.00234 49.2447 6.00234C49.3492 6.00259 49.4536 6.00342 49.5581 6.00478C49.7182 6.00675 49.8783 6.00671 50.0385 6.00639C50.1399 6.00688 50.2414 6.00749 50.3428 6.00823C50.3909 6.00824 50.4389 6.00825 50.4884 6.00826C50.5329 6.00901 50.5774 6.00976 50.6233 6.01053C50.6821 6.01113 50.6821 6.01113 50.742 6.01173C50.8725 6.03574 50.9038 6.06107 50.981 6.17167C50.9946 6.29235 50.9996 6.40159 50.9985 6.5223C50.9987 6.55832 50.999 6.59434 50.9992 6.63145C50.9997 6.75255 50.9993 6.87362 50.9989 6.99471C50.9991 7.0814 50.9993 7.16809 50.9996 7.25477C51.0002 7.49068 51 7.72658 50.9995 7.96249C50.9992 8.20963 50.9995 8.45677 50.9997 8.70391C51 9.11954 50.9997 9.53517 50.999 9.9508C50.9983 10.4301 50.9985 10.9094 50.9993 11.3887C50.9999 11.8007 51 12.2127 50.9996 12.6247C50.9994 12.8706 50.9994 13.1164 50.9998 13.3622C51.0002 13.5939 50.9999 13.8256 50.9991 14.0573C50.999 14.1419 50.999 14.2265 50.9993 14.3111C51.0027 15.3411 50.7851 16.2915 50.0724 17.0675C49.8608 17.2725 49.6218 17.4249 49.3707 17.5741C49.3421 17.5925 49.3136 17.6109 49.2841 17.6298C48.5324 18.0734 47.5025 18.073 46.6904 17.8656C46.0314 17.6741 45.441 17.3132 45.046 16.7259C45.0077 16.589 45.0077 16.589 45 16.4432C45.0586 16.3407 45.0586 16.3407 45.1553 16.24C45.1927 16.2004 45.2301 16.1608 45.2687 16.12C45.2909 16.0974 45.3131 16.0748 45.336 16.0515C45.429 15.9568 45.5208 15.861 45.6127 15.7652C45.7516 15.6211 45.8906 15.4772 46.0307 15.3343C46.0603 15.304 46.09 15.2737 46.1205 15.2425C46.2184 15.1501 46.2769 15.1259 46.409 15.1033C46.6035 15.1292 46.6921 15.2082 46.8391 15.3356C47.1068 15.5396 47.3937 15.5292 47.7145 15.5009C47.9237 15.4487 48.0921 15.3497 48.2205 15.1711C48.3971 14.7657 48.3776 14.3587 48.3755 13.9241C48.3757 13.8408 48.3758 13.7576 48.3761 13.6744C48.3764 13.4958 48.3764 13.3173 48.3761 13.1387C48.3755 12.8564 48.3761 12.574 48.3768 12.2917C48.3785 11.5908 48.3788 10.8898 48.3787 10.1889C48.3786 9.64343 48.3789 9.09798 48.3805 8.55252C48.3813 8.27183 48.3812 7.99116 48.3805 7.71046C48.3802 7.53604 48.3807 7.36162 48.3814 7.1872C48.3816 7.1063 48.3814 7.0254 48.3809 6.94451C48.3803 6.8341 48.3808 6.72376 48.3816 6.61336C48.3816 6.55158 48.3816 6.48981 48.3816 6.42616C48.4207 6.15326 48.5407 6.00065 48.8143 6.00133Z" fill="#FEFDFD"/>
<path d="M96.2928 6.00603C96.3435 6.00512 96.3435 6.00512 96.3952 6.00419C96.4317 6.00433 96.4681 6.00447 96.5057 6.00461C96.5432 6.00436 96.5807 6.00411 96.6193 6.00386C96.6987 6.00355 96.7781 6.00361 96.8574 6.00402C96.9789 6.00443 97.1004 6.00305 97.2218 6.00153C97.2989 6.00146 97.376 6.00148 97.453 6.00163C97.4894 6.00109 97.5258 6.00055 97.5633 6C97.5972 6.00045 97.6311 6.0009 97.6661 6.00136C97.7107 6.00137 97.7107 6.00137 97.7563 6.00138C97.8743 6.03609 97.9085 6.08538 97.9804 6.21653C98.002 6.36987 97.9996 6.5217 97.9985 6.67736C97.9987 6.72462 97.9989 6.77188 97.9992 6.82058C97.9997 6.9794 97.9993 7.13819 97.9988 7.29701C97.999 7.41069 97.9993 7.52436 97.9996 7.63804C98.0002 7.91501 98.0001 8.19198 97.9997 8.46896C97.9993 8.69404 97.9993 8.91912 97.9995 9.1442C97.9995 9.17622 97.9995 9.20824 97.9995 9.24123C97.9996 9.30628 97.9996 9.37133 97.9997 9.43638C98.0001 10.0465 97.9996 10.6566 97.9988 11.2667C97.9982 11.7904 97.9983 12.314 97.999 12.8376C97.9997 13.4455 98 14.0535 97.9996 14.6614C97.9995 14.7262 97.9995 14.791 97.9995 14.8558C97.9994 14.8877 97.9994 14.9196 97.9994 14.9524C97.9993 15.1773 97.9995 15.4021 97.9998 15.627C98.0002 15.9295 97.9999 16.232 97.9991 16.5346C97.9989 16.6458 97.999 16.757 97.9993 16.8683C97.9997 17.0197 97.9992 17.1712 97.9985 17.3226C97.9988 17.367 97.9991 17.4113 97.9994 17.4569C97.9967 17.7537 97.9967 17.7537 97.9129 17.9064C97.8242 17.987 97.7765 17.9986 97.6699 17.9986C97.6368 17.9991 97.6037 17.9995 97.5696 18C97.5164 17.9992 97.5164 17.9992 97.4621 17.9984C97.4071 17.9985 97.4071 17.9985 97.351 17.9986C97.2735 17.9985 97.1961 17.998 97.1186 17.997C97 17.9956 96.8815 17.996 96.7629 17.9966C96.6876 17.9963 96.6123 17.9959 96.537 17.9954C96.5015 17.9955 96.4661 17.9957 96.4295 17.9958C96.3964 17.9952 96.3633 17.9946 96.3292 17.994C96.3002 17.9937 96.2712 17.9935 96.2413 17.9932C96.1323 17.9679 96.0943 17.9424 96.0188 17.8313C95.9964 17.6788 95.9997 17.5271 96.0009 17.3722C96.0007 17.3246 96.0005 17.2769 96.0003 17.2279C95.9998 17.0675 96.0003 16.9071 96.0009 16.7467C96.0007 16.632 96.0005 16.5173 96.0003 16.4026C95.9998 16.123 96.0001 15.8434 96.0006 15.5638C96.0012 15.2383 96.0011 14.9128 96.0009 14.5874C96.0007 14.0068 96.0012 13.4262 96.0021 12.8456C96.003 12.2818 96.0032 11.7182 96.0029 11.1544C96.0024 10.541 96.0024 9.92748 96.0029 9.314C96.0029 9.24861 96.003 9.18322 96.0031 9.11783C96.0031 9.08566 96.0031 9.05349 96.0031 9.02034C96.0033 8.79335 96.0032 8.56636 96.0031 8.33936C96.0029 8.03399 96.0033 7.72861 96.004 7.42324C96.0042 7.31092 96.0043 7.1986 96.0041 7.08629C96.0039 6.93344 96.0043 6.78061 96.0049 6.62776C96.0047 6.5829 96.0045 6.53804 96.0043 6.49182C96.0046 6.45099 96.0049 6.41017 96.0052 6.36811C96.0052 6.33282 96.0053 6.29752 96.0053 6.26116C96.0368 6.04464 96.144 6.00732 96.2928 6.00603Z" fill="#FEFEFE"/>
<path d="M0 0C38.94 0 77.88 0 118 0C118 8.25 118 16.5 118 25C79.06 25 40.12 25 0 25C0 16.75 0 8.5 0 0ZM0.0927673 0.095057C0.0927673 8.28232 0.0927673 16.4696 0.0927673 24.9049C38.9715 24.9049 77.8503 24.9049 117.907 24.9049C117.907 16.7177 117.907 8.53042 117.907 0.095057C79.0285 0.095057 40.1497 0.095057 0.0927673 0.095057Z" fill="#F1ACED"/>
<path d="M34 6C36.31 6 38.62 6 41 6C41 6.20758 41 6.41516 41 6.62903C38.9194 6.62903 36.8387 6.62903 34.695 6.62903C34.695 8.22581 34.695 9.82258 34.695 11.4677C36.4972 11.4677 38.2993 11.4677 40.156 11.4677C40.156 11.6753 40.156 11.8829 40.156 12.0968C38.3539 12.0968 36.5518 12.0968 34.695 12.0968C34.695 13.8373 34.695 15.5777 34.695 17.371C36.7757 17.371 38.8563 17.371 41 17.371C41 17.5785 41 17.7861 41 18C38.69 18 36.38 18 34 18C34 14.04 34 10.08 34 6Z" fill="#FDF7F8"/>
<path d="M21 6C21.2152 6 21.4304 6 21.6522 6C21.8117 6.33729 21.94 6.68591 22.0679 7.03903C22.0923 7.10584 22.1166 7.17265 22.141 7.23946C22.1949 7.38724 22.2486 7.53506 22.3024 7.68291C22.3978 7.94535 22.4935 8.20765 22.5892 8.46995C22.6238 8.5648 22.6584 8.65966 22.693 8.75451C22.7191 8.82603 22.7191 8.82603 22.7457 8.899C22.8172 9.09496 22.8887 9.29093 22.9601 9.48691C23.4248 10.7612 23.8912 12.0347 24.3601 13.3071C24.6122 13.9911 24.8637 14.6754 25.1141 15.3603C25.1279 15.3979 25.1416 15.4355 25.1558 15.4742C25.2344 15.6892 25.3129 15.9041 25.3913 16.1192C25.4081 16.1628 25.425 16.2064 25.4423 16.2513C25.4783 16.3601 25.4783 16.3601 25.4783 16.5047C25.507 16.5047 25.5357 16.5047 25.5652 16.5047C25.5723 16.4433 25.5723 16.4433 25.5796 16.3806C25.611 16.2025 25.6623 16.0544 25.7266 15.8875C25.7387 15.8556 25.7509 15.8238 25.7634 15.7909C25.7899 15.7213 25.8166 15.6517 25.8434 15.5822C25.9182 15.3878 25.9919 15.1929 26.0657 14.9981C26.0815 14.9565 26.0973 14.9148 26.1136 14.8719C26.3001 14.3791 26.4802 13.8834 26.6603 13.3876C26.7307 13.1941 26.8012 13.0005 26.8716 12.8069C26.8893 12.7583 26.907 12.7097 26.9252 12.6596C27.1219 12.1197 27.3203 11.5805 27.519 11.0415C27.5458 10.9688 27.5458 10.9688 27.5732 10.8946C27.6457 10.6979 27.7182 10.5012 27.7908 10.3045C27.9228 9.94653 28.0546 9.58848 28.1863 9.23039C28.8368 7.462 28.8368 7.462 29.1386 6.65353C29.1598 6.59674 29.181 6.53995 29.2028 6.48144C29.3421 6.10905 29.3421 6.10905 29.3913 6C29.5922 6 29.793 6 30 6C29.9651 6.19312 29.9257 6.33937 29.8592 6.51876C29.8383 6.57543 29.8174 6.63209 29.7959 6.69047C29.7724 6.75345 29.749 6.81643 29.7255 6.87941C29.7009 6.94602 29.6763 7.01263 29.6517 7.07926C29.5965 7.22884 29.5411 7.37836 29.4857 7.52786C29.3232 7.96656 29.1617 8.40572 29 8.8448C28.9443 8.99583 28.8886 9.14683 28.8329 9.29783C28.652 9.78841 28.4724 10.2795 28.2953 10.7718C28.178 11.0974 28.0582 11.4218 27.9373 11.7457C27.6635 12.4788 27.3927 13.2132 27.1223 13.9478C27.1034 13.9991 27.0845 14.0504 27.0651 14.1032C26.9572 14.3962 26.8494 14.6892 26.7416 14.9823C26.7009 15.0931 26.6601 15.2039 26.6193 15.3148C26.5587 15.4795 26.4981 15.6443 26.4375 15.809C26.4198 15.8571 26.4021 15.9051 26.3839 15.9547C26.2904 16.2089 26.1973 16.4632 26.1046 16.7177C26.0519 16.8623 25.9991 17.0068 25.9464 17.1513C25.9207 17.2217 25.8951 17.292 25.8695 17.3624C25.8342 17.4597 25.7987 17.5569 25.7632 17.654C25.7428 17.7101 25.7224 17.7662 25.7014 17.8239C25.6522 17.9503 25.6522 17.9503 25.6087 17.9985C25.5363 18.0005 25.4637 18.0006 25.3913 17.9985C25.0648 17.135 24.7401 16.2707 24.4239 15.4024C24.1788 14.7294 23.9299 14.0582 23.6793 13.3876C23.3822 12.5922 23.0885 11.7953 22.7978 10.9969C22.5589 10.3413 22.3178 9.68674 22.0759 9.0325C21.8991 8.55439 21.7227 8.07613 21.5479 7.59713C21.5327 7.55548 21.5175 7.51383 21.5018 7.47093C21.43 7.2741 21.3583 7.07722 21.2867 6.88029C21.2613 6.81073 21.236 6.74116 21.2106 6.6716C21.1993 6.64034 21.1879 6.60907 21.1763 6.57686C21.133 6.45833 21.0894 6.34237 21.0358 6.22908C21 6.14456 21 6.14456 21 6Z" fill="#FCF6F6"/>
<path d="M5 6C5.20687 6 5.41373 6 5.62687 6C5.62687 9.75242 5.62687 13.5048 5.62687 17.371C7.4 17.371 9.17313 17.371 11 17.371C11 17.5785 11 17.7861 11 18C9.02 18 7.04 18 5 18C5 14.04 5 10.08 5 6Z" fill="#FEFDFD"/>
<path d="M5 6C5.20687 6 5.41373 6 5.62687 6C5.62687 9.75242 5.62687 13.5048 5.62687 17.371C7.4 17.371 9.17313 17.371 11 17.371C11 17.5785 11 17.7861 11 18C9.02 18 7.04 18 5 18C5 14.04 5 10.08 5 6ZM5.04478 6.04839C5.04478 9.97645 5.04478 13.9045 5.04478 17.9516C6.99522 17.9516 8.94567 17.9516 10.9552 17.9516C10.9819 17.6042 10.9819 17.6042 10.9104 17.4677C9.23939 16.8658 7.38825 17.3875 5.62687 17.371C5.61209 13.6345 5.59731 9.89806 5.58209 6.04839C5.40478 6.04839 5.22746 6.04839 5.04478 6.04839Z" fill="#FEDAE0"/>
<path d="M96.2928 6.00603C96.3435 6.00512 96.3435 6.00512 96.3952 6.00419C96.4317 6.00433 96.4681 6.00447 96.5057 6.00461C96.5432 6.00436 96.5807 6.00411 96.6193 6.00386C96.6987 6.00355 96.7781 6.00361 96.8574 6.00402C96.9789 6.00443 97.1004 6.00305 97.2218 6.00153C97.2989 6.00146 97.376 6.00148 97.453 6.00163C97.4894 6.00109 97.5258 6.00055 97.5633 6C97.5972 6.00045 97.6311 6.0009 97.6661 6.00136C97.7107 6.00137 97.7107 6.00137 97.7563 6.00138C97.8743 6.03609 97.9085 6.08538 97.9804 6.21653C98.002 6.36987 97.9996 6.5217 97.9985 6.67736C97.9987 6.72462 97.9989 6.77188 97.9992 6.82058C97.9997 6.9794 97.9993 7.13819 97.9988 7.29701C97.999 7.41069 97.9993 7.52436 97.9996 7.63804C98.0002 7.91501 98.0001 8.19198 97.9997 8.46896C97.9993 8.69404 97.9993 8.91912 97.9995 9.1442C97.9995 9.17622 97.9995 9.20824 97.9995 9.24123C97.9996 9.30628 97.9996 9.37133 97.9997 9.43638C98.0001 10.0465 97.9996 10.6566 97.9988 11.2667C97.9982 11.7904 97.9983 12.314 97.999 12.8376C97.9997 13.4455 98 14.0535 97.9996 14.6614C97.9995 14.7262 97.9995 14.791 97.9995 14.8558C97.9994 14.8877 97.9994 14.9196 97.9994 14.9524C97.9993 15.1773 97.9995 15.4021 97.9998 15.627C98.0002 15.9295 97.9999 16.232 97.9991 16.5346C97.9989 16.6458 97.999 16.757 97.9993 16.8683C97.9997 17.0197 97.9992 17.1712 97.9985 17.3226C97.9988 17.367 97.9991 17.4113 97.9994 17.4569C97.9967 17.7537 97.9967 17.7537 97.9129 17.9064C97.8242 17.987 97.7765 17.9986 97.6699 17.9986C97.6368 17.9991 97.6037 17.9995 97.5696 18C97.5164 17.9992 97.5164 17.9992 97.4621 17.9984C97.4071 17.9985 97.4071 17.9985 97.351 17.9986C97.2735 17.9985 97.1961 17.998 97.1186 17.997C97 17.9956 96.8815 17.996 96.7629 17.9966C96.6876 17.9963 96.6123 17.9959 96.537 17.9954C96.5015 17.9955 96.4661 17.9957 96.4295 17.9958C96.3964 17.9952 96.3633 17.9946 96.3292 17.994C96.3002 17.9937 96.2712 17.9935 96.2413 17.9932C96.1323 17.9679 96.0943 17.9424 96.0188 17.8313C95.9964 17.6788 95.9997 17.5271 96.0009 17.3722C96.0007 17.3246 96.0005 17.2769 96.0003 17.2279C95.9998 17.0675 96.0003 16.9071 96.0009 16.7467C96.0007 16.632 96.0005 16.5173 96.0003 16.4026C95.9998 16.123 96.0001 15.8434 96.0006 15.5638C96.0012 15.2383 96.0011 14.9128 96.0009 14.5874C96.0007 14.0068 96.0012 13.4262 96.0021 12.8456C96.003 12.2818 96.0032 11.7182 96.0029 11.1544C96.0024 10.541 96.0024 9.92748 96.0029 9.314C96.0029 9.24861 96.003 9.18322 96.0031 9.11783C96.0031 9.08566 96.0031 9.05349 96.0031 9.02034C96.0033 8.79335 96.0032 8.56636 96.0031 8.33936C96.0029 8.03399 96.0033 7.72861 96.004 7.42324C96.0042 7.31092 96.0043 7.1986 96.0041 7.08629C96.0039 6.93344 96.0043 6.78061 96.0049 6.62776C96.0047 6.5829 96.0045 6.53804 96.0043 6.49182C96.0046 6.45099 96.0049 6.41017 96.0052 6.36811C96.0052 6.33282 96.0053 6.29752 96.0053 6.26116C96.0368 6.04464 96.144 6.00732 96.2928 6.00603ZM96.0901 6.12093C96.0578 6.25061 96.0499 6.32498 96.0498 6.45808C96.0497 6.49765 96.0496 6.53722 96.0495 6.57799C96.0495 6.62145 96.0496 6.66491 96.0497 6.70969C96.0496 6.75587 96.0495 6.80205 96.0494 6.84963C96.0492 7.00506 96.0492 7.16049 96.0492 7.31592C96.0491 7.42708 96.049 7.53824 96.0489 7.6494C96.0486 7.95189 96.0485 8.25438 96.0485 8.55686C96.0484 8.80916 96.0483 9.06145 96.0482 9.31375C96.0479 9.87488 96.0478 10.436 96.0478 10.9972C96.0478 11.0308 96.0478 11.0645 96.0478 11.0992C96.0478 11.1329 96.0478 11.1667 96.0478 11.2014C96.0478 11.7478 96.0475 12.2942 96.047 12.8406C96.0465 13.4016 96.0462 13.9626 96.0463 14.5235C96.0463 14.8385 96.0462 15.1535 96.0458 15.4685C96.0454 15.7647 96.0454 16.0609 96.0457 16.3572C96.0457 16.4659 96.0457 16.5747 96.0454 16.6835C96.0452 16.8319 96.0453 16.9803 96.0456 17.1287C96.0454 17.1719 96.0452 17.215 96.0451 17.2594C96.046 17.4822 96.0527 17.6739 96.1258 17.8791C96.2252 17.9235 96.2851 17.9329 96.3878 17.933C96.4346 17.9333 96.4346 17.9333 96.4823 17.9335C96.5326 17.9334 96.5326 17.9334 96.584 17.9332C96.6185 17.9333 96.653 17.9333 96.6886 17.9334C96.7615 17.9334 96.8344 17.9333 96.9074 17.9331C97.0193 17.9328 97.1312 17.9331 97.2432 17.9334C97.314 17.9334 97.3848 17.9333 97.4556 17.9332C97.4892 17.9333 97.5228 17.9334 97.5574 17.9335C97.5885 17.9334 97.6196 17.9332 97.6516 17.933C97.679 17.933 97.7064 17.933 97.7346 17.9329C97.8052 17.9324 97.8052 17.9324 97.8734 17.8791C97.9348 17.7453 97.9536 17.6439 97.9537 17.488C97.954 17.4284 97.954 17.4284 97.9542 17.3676C97.9541 17.3242 97.9539 17.2808 97.9538 17.2361C97.9539 17.1667 97.9539 17.1667 97.9541 17.0959C97.9544 16.9403 97.9542 16.7848 97.9539 16.6293C97.954 16.518 97.9542 16.4067 97.9543 16.2954C97.9546 15.9927 97.9545 15.69 97.9543 15.3873C97.9541 15.103 97.9542 14.8187 97.9543 14.5343C97.9546 13.9369 97.9543 13.3394 97.9539 12.742C97.9536 12.2292 97.9537 11.7164 97.954 11.2037C97.9544 10.6084 97.9545 10.013 97.9543 9.41773C97.9542 9.10254 97.9542 8.78736 97.9544 8.47218C97.9546 8.17591 97.9545 7.87963 97.9541 7.58336C97.954 7.47445 97.954 7.36555 97.9542 7.25664C97.9544 7.10832 97.9541 6.96 97.9538 6.81168C97.954 6.74659 97.954 6.74659 97.9542 6.6802C97.9541 6.64047 97.9539 6.60075 97.9537 6.55982C97.9537 6.50847 97.9537 6.50847 97.9536 6.45608C97.9429 6.34012 97.9216 6.26615 97.8734 6.16873C97.6651 6.07111 97.4696 6.05957 97.2506 6.06212C97.204 6.06215 97.204 6.06215 97.1564 6.06219C97.0912 6.06233 97.0261 6.0627 96.9609 6.0633C96.8609 6.06418 96.7609 6.06428 96.6609 6.06427C96.5974 6.0645 96.5339 6.06478 96.4704 6.06511C96.4405 6.06516 96.4105 6.06521 96.3797 6.06527C96.2301 6.06157 96.2301 6.06157 96.0901 6.12093Z" fill="#FEE3E7"/>
<path d="M111 6.02304C111.257 6.01819 111.514 6.01483 111.771 6.01252C111.859 6.01155 111.946 6.01025 112.034 6.00859C112.159 6.00626 112.285 6.00518 112.411 6.00433C112.469 6.00285 112.469 6.00285 112.529 6.00133C112.584 6.00131 112.584 6.00131 112.64 6.00129C112.688 6.00065 112.688 6.00065 112.737 6C112.866 6.0337 112.902 6.08297 112.98 6.21468C113.004 6.37126 113.001 6.52633 112.999 6.68514C112.999 6.73343 112.999 6.78172 112.999 6.83147C113 6.99376 112.999 7.156 112.998 7.31829C112.998 7.43443 112.998 7.55056 112.998 7.6667C112.998 7.91698 112.998 8.16725 112.997 8.41753C112.995 8.77939 112.995 9.14124 112.995 9.5031C112.994 10.0902 112.993 10.6773 112.992 11.2644C112.991 11.8347 112.989 12.405 112.989 12.9753C112.989 13.0104 112.989 13.0456 112.989 13.0818C112.988 13.2582 112.988 13.4345 112.988 13.6109C112.986 15.0739 112.984 16.537 112.98 18C112.967 18 112.955 18 112.941 18C112.941 17.9399 112.941 17.8799 112.941 17.818C112.939 16.3927 112.936 14.9675 112.933 13.5423C112.932 13.3669 112.932 13.1916 112.931 13.0162C112.931 12.9813 112.931 12.9464 112.931 12.9104C112.93 12.3449 112.929 11.7793 112.928 11.2138C112.927 10.6336 112.926 10.0535 112.924 9.47338C112.923 9.11529 112.922 8.7572 112.922 8.3991C112.922 8.12471 112.921 7.85033 112.92 7.57595C112.92 7.46324 112.919 7.35053 112.919 7.23782C112.92 7.0843 112.919 6.93082 112.918 6.77731C112.918 6.73239 112.918 6.68746 112.919 6.64118C112.917 6.40434 112.917 6.40434 112.848 6.18705C112.766 6.09691 112.718 6.09419 112.609 6.09271C112.555 6.09129 112.555 6.09129 112.501 6.08984C112.462 6.08979 112.424 6.08973 112.384 6.08967C112.345 6.08887 112.305 6.08808 112.264 6.08727C112.138 6.08494 112.012 6.08392 111.886 6.08293C111.8 6.08158 111.715 6.08015 111.629 6.07863C111.419 6.07508 111.21 6.07261 111 6.07095C111 6.05514 111 6.03933 111 6.02304Z" fill="#FFE1E6"/>
<path d="M62 10C62.1579 10.0513 62.1579 10.0513 62.235 10.1971C62.2606 10.259 62.2861 10.3209 62.3125 10.3846C62.34 10.4499 62.3674 10.5152 62.3949 10.5805C62.4209 10.6428 62.4469 10.7051 62.4737 10.7692C62.5149 10.8613 62.5565 10.9532 62.5987 11.0449C62.6269 11.1062 62.6551 11.1676 62.6842 11.2308C62.7189 11.1969 62.7537 11.1631 62.7895 11.1282C62.8793 11.4158 62.9427 11.7047 63 12C62.9653 12 62.9305 12 62.8947 12C62.7755 11.7482 62.6566 11.4964 62.5378 11.2444C62.4974 11.1587 62.4569 11.0731 62.4164 10.9875C62.3581 10.8643 62.3 10.7411 62.242 10.6178C62.2238 10.5796 62.2057 10.5414 62.187 10.502C62.1091 10.336 62.0414 10.178 62 10Z" fill="#F1ACED"/>
<path d="M68.8 7C68.866 7.01375 68.932 7.0275 69 7.04167C68.9661 7.06546 68.9323 7.08925 68.8974 7.11377C68.5199 7.39166 68.2891 7.6641 68.0667 8C68 7.875 68 7.875 68 7.70833C68.044 7.70833 68.088 7.70833 68.1333 7.70833C68.1773 7.59833 68.2213 7.48833 68.2667 7.375C68.3107 7.375 68.3547 7.375 68.4 7.375C68.4 7.33375 68.4 7.2925 68.4 7.25C68.444 7.25 68.488 7.25 68.5333 7.25C68.5333 7.2225 68.5333 7.195 68.5333 7.16667C68.6195 7.10945 68.7083 7.05374 68.8 7Z" fill="#F1ACED"/>
<path d="M74 6C74.2115 6.06717 74.4084 6.17275 74.6111 6.3C74.6111 6.366 74.6111 6.432 74.6111 6.5C74.7394 6.5 74.8678 6.5 75 6.5C74.945 6.533 74.89 6.566 74.8333 6.6C74.8517 6.732 74.87 6.864 74.8889 7C74.7614 6.87123 74.6342 6.742 74.5069 6.6125C74.4708 6.57602 74.4346 6.53954 74.3974 6.50195C74.2498 6.35134 74.1205 6.21698 74 6Z" fill="#F1ACED"/>
<path d="M85 12C85.7281 12.2548 85.7298 12.3894 86 12.9C85.8586 12.9495 85.8586 12.9495 85.7143 13C85.4786 12.67 85.2429 12.34 85 12Z" fill="#F1ACED"/>
</svg>
