<?xml version="1.0" encoding="utf-8"?>
<!-- Generator: Adobe Illustrator 27.3.1, SVG Export Plug-In . SVG Version: 6.00 Build 0)  -->
<svg version="1.1" id="Layer_1" xmlns="http://www.w3.org/2000/svg" xmlns:xlink="http://www.w3.org/1999/xlink" x="0px" y="0px"
	 viewBox="0 0 91.67 91.67" style="enable-background:new 0 0 91.67 91.67;" xml:space="preserve">
<style type="text/css">
	.st0{fill:#5C5E5F;}
</style>
<path class="st0" d="M45.83,0C20.52,0,0,20.52,0,45.83c0,25.32,20.52,45.84,45.83,45.84c25.32,0,45.84-20.52,45.84-45.84
	C91.67,20.52,71.15,0,45.83,0z M33.96,66.73c-0.08,0,1.23-6.02,1.34-6.48c0.73-2.89,1.46-5.78,2.19-8.68
	c0.23-0.89,0.46-1.81,0.57-2.74c0.09-0.77,0.11-1.54-0.01-2.31c-0.25-1.53-1.55-2.55-2.33-3.81c-0.86-1.4-1.42-2.99-1.62-4.62
	c-0.55-4.75,2.08-9.39,6.19-11.71c5.75-3.23,12.78-0.79,15.93,4.84c1.12,2,1.67,4.32,1.45,6.61c-0.15,1.57-0.65,3.1-1.44,4.47
	c-0.79,1.36-2.14,2.34-2.84,3.75c-0.69,1.4,0.08,2.88,0.45,4.26c0.49,1.82,0.98,3.65,1.45,5.49c0.92,3.62,1.77,7.26,2.43,10.93
	C57.72,66.73,34.03,66.73,33.96,66.73z"/>
</svg>
