<svg width="40" height="41" viewBox="0 0 40 41" fill="none" xmlns="http://www.w3.org/2000/svg">
<g filter="url(#filter0_d_250_4293)">
<g clip-path="url(#clip0_250_4293)">
<rect y="1" width="40" height="40" rx="20" fill="#282E2D" fill-opacity="0.2" shape-rendering="crispEdges"/>
<path fill-rule="evenodd" clip-rule="evenodd" d="M26.229 9C26.5713 9 26.8751 9.21187 26.9834 9.52597L27.8516 12.0457L30.4563 12.8856C30.781 12.9903 31 13.2842 31 13.6153C31 13.9464 30.781 14.2404 30.4563 14.3451L27.8516 15.185L26.9834 17.7046C26.8751 18.0188 26.5713 18.2306 26.229 18.2306C25.8867 18.2306 25.5829 18.0188 25.4746 17.7046L24.6064 15.185L22.0017 14.3451C21.677 14.2404 21.458 13.9464 21.458 13.6153C21.458 13.2842 21.677 12.9903 22.0017 12.8856L24.6064 12.0457L25.4746 9.52597C25.5829 9.21187 25.8867 9 26.229 9Z" fill="#FF5CD6" fill-opacity="0.8"/>
<path fill-rule="evenodd" clip-rule="evenodd" d="M26.229 20.0255C26.9609 20.0255 27.5543 20.5994 27.5543 21.3075V27.7176C27.5543 28.4257 26.9609 28.9997 26.229 28.9997C25.4971 28.9997 24.9037 28.4257 24.9037 27.7176V21.3075C24.9037 20.5994 25.4971 20.0255 26.229 20.0255Z" fill="#FF5CD6" fill-opacity="0.8"/>
<path fill-rule="evenodd" clip-rule="evenodd" d="M13.1735 13.2664C13.3348 12.7144 13.8557 12.3333 14.4487 12.3333H16.8048C17.3978 12.3333 17.9186 12.7144 18.08 13.2664L22.203 27.3687C22.4022 28.0501 21.9927 28.7586 21.2884 28.9513C20.5841 29.144 19.8517 28.7479 19.6525 28.0665L15.8023 14.8973H15.4512L11.6009 28.0665C11.4017 28.7479 10.6692 29.144 9.96494 28.9513C9.26064 28.7586 8.85117 28.0501 9.05036 27.3687L13.1735 13.2664Z" fill="#FF5CD6" fill-opacity="0.8"/>
<path fill-rule="evenodd" clip-rule="evenodd" d="M10.3256 23.8716C10.3256 23.1635 10.919 22.5895 11.6509 22.5895H19.6026C20.3345 22.5895 20.9279 23.1635 20.9279 23.8716C20.9279 24.5796 20.3345 25.1536 19.6026 25.1536H11.6509C10.919 25.1536 10.3256 24.5796 10.3256 23.8716Z" fill="#FF5CD6" fill-opacity="0.8"/>
</g>
</g>
<defs>
<filter id="filter0_d_250_4293" x="0" y="0" width="40" height="41" filterUnits="userSpaceOnUse" color-interpolation-filters="sRGB">
<feFlood flood-opacity="0" result="BackgroundImageFix"/>
<feColorMatrix in="SourceAlpha" type="matrix" values="0 0 0 0 0 0 0 0 0 0 0 0 0 0 0 0 0 0 127 0" result="hardAlpha"/>
<feOffset dy="-1"/>
<feComposite in2="hardAlpha" operator="out"/>
<feColorMatrix type="matrix" values="0 0 0 0 1 0 0 0 0 0.858824 0 0 0 0 0.87451 0 0 0 0.2 0"/>
<feBlend mode="normal" in2="BackgroundImageFix" result="effect1_dropShadow_250_4293"/>
<feBlend mode="normal" in="SourceGraphic" in2="effect1_dropShadow_250_4293" result="shape"/>
</filter>
<clipPath id="clip0_250_4293">
<rect y="1" width="40" height="40" rx="20" fill="white"/>
</clipPath>
</defs>
</svg>
