<svg width="40" height="29" viewBox="0 0 40 29" fill="none" xmlns="http://www.w3.org/2000/svg">
<rect x="0.154141" y="0.904141" width="39.6917" height="27.6917" rx="2.31211" fill="white" stroke="black" stroke-width="0.308281"/>
<rect x="3" y="9.75" width="13.6034" height="15.9579" rx="1.84969" fill="#C77ABC"/>
<path d="M12.3975 15.7403C12.4062 16.8023 11.7827 17.7157 10.8807 18.1272C12.6435 18.5353 14.042 19.9144 14.4762 21.6735C14.5633 22.0267 14.2781 22.3408 13.9149 22.3408H5.76452C5.40124 22.3408 5.1108 22.0264 5.19244 21.6731C5.59873 19.915 6.97434 18.5353 8.72925 18.1283C7.82048 17.7168 7.18196 16.8035 7.17325 15.7415C7.16137 14.2931 8.3212 13.1191 9.76388 13.1191C11.2066 13.1191 12.3857 14.2931 12.3975 15.7403Z" fill="black"/>
<path d="M8.85938 16.5879C8.95089 16.798 9.26871 17.2181 9.80783 17.2181C10.347 17.2181 10.6565 16.798 10.7438 16.5879" stroke="#C77ABC" stroke-width="0.616563" stroke-linecap="round"/>
<rect opacity="0.8" x="19" y="20.75" width="5" height="5" rx="0.616563" fill="#C77ABC" fill-opacity="0.12"/>
<rect x="25" y="23.0391" width="4.5" height="1" rx="0.5" fill="#EBE9E9"/>
<rect x="25" y="24.75" width="3" height="1" rx="0.5" fill="#EBE9E9"/>
<rect x="19" y="10.25" width="7.5" height="1.5" rx="0.616563" fill="#EBE9E9"/>
<rect x="28" y="10.25" width="9" height="1.5" rx="0.616563" fill="#EBE9E9"/>
<rect x="19" y="13.75" width="4" height="1.5" rx="0.616563" fill="#EBE9E9"/>
<rect x="24.5" y="13.75" width="12.5" height="1.5" rx="0.616563" fill="#EBE9E9"/>
<rect x="19" y="17.25" width="18" height="1.5" rx="0.616563" fill="#EBE9E9"/>
<rect x="3" y="3.25" width="34" height="4.5" rx="1.23313" fill="#EBE9E9"/>
</svg>
