<svg width="19" height="18" viewBox="0 0 19 18" fill="none" xmlns="http://www.w3.org/2000/svg">
<path opacity="0.4" d="M13.7854 14.3521L10.1592 14.3887L6.15138 17.0521C5.55698 17.448 4.74594 17.0397 4.73879 16.3309L4.71976 14.4436C2.00006 14.471 0.169056 12.7172 0.142246 10.059L0.0886276 4.74275C0.0618182 2.0846 1.85708 0.294213 4.57678 0.266783L13.6424 0.175349C16.3621 0.147919 18.1931 1.90173 18.2199 4.55988L18.2736 9.87618C18.3004 12.5343 16.5051 14.3247 13.7854 14.3521Z" fill="#FF52C3"/>
<path d="M8.92452 8.79086C8.55292 8.78202 8.25192 8.4735 8.26057 8.11031L8.26499 7.92431C8.28944 6.89674 9.07184 6.41012 9.36651 6.22214C9.70714 6.00866 9.81947 5.86066 9.82495 5.63034C9.83549 5.18742 9.47255 4.81535 9.01937 4.80457C8.5662 4.79378 8.18597 5.14817 8.17543 5.59109C8.16679 5.95429 7.85146 6.24814 7.47986 6.2393C7.10825 6.23046 6.80726 5.92194 6.8159 5.55874C6.84393 4.38057 7.84554 3.44712 9.05099 3.4758C10.2564 3.50448 11.2125 4.48452 11.1845 5.66269C11.1605 6.67255 10.3871 7.15935 10.1017 7.33869C9.74278 7.5606 9.63043 7.70863 9.62452 7.95666L9.6201 8.14266C9.61125 8.51471 9.29613 8.79971 8.92452 8.79086Z" fill="#FF52C3"/>
<path d="M8.87227 10.9973C8.4916 10.9882 8.19967 10.6799 8.20831 10.3167C8.21695 9.95353 8.53228 9.65968 8.90389 9.66852C9.27549 9.67736 9.57649 9.98588 9.56785 10.3491C9.5592 10.7123 9.25294 11.0063 8.87227 10.9973Z" fill="#FF52C3"/>
</svg>
