<svg xmlns="http://www.w3.org/2000/svg" id="Solid" viewBox="0 0 64 64" width="300" height="300" version="1.1" xmlns:xlink="http://www.w3.org/1999/xlink" xmlns:svgjs="http://svgjs.dev/svgjs"><g width="100%" height="100%" transform="matrix(1,0,0,1,0,0)"><path d="M43.5,3h-23a13.5,13.5,0,0,0,0,27h23a13.5,13.5,0,0,0,0-27ZM18.2383,7.2725a9.5735,9.5735,0,0,0-7.1416,7.87A1.0014,1.0014,0,0,1,10.1074,16a1.0221,1.0221,0,0,1-.1435-.01,1.0018,1.0018,0,0,1-.8477-1.1328,11.5956,11.5956,0,0,1,8.6455-9.5283,1,1,0,0,1,.4766,1.9434ZM22,7a1,1,0,1,1,1-1A1,1,0,0,1,22,7ZM43.5,26A9.5,9.5,0,1,1,53,16.5,9.5108,9.5108,0,0,1,43.5,26Z" fill="#5c5d5e" fill-opacity="1" data-original-color="#000000ff" stroke="none" stroke-opacity="1"/><circle cx="42" cy="10" r="1" fill="#5c5d5e" fill-opacity="1" data-original-color="#000000ff" stroke="none" stroke-opacity="1"/><path d="M37.1758,16a1.001,1.001,0,0,1-.9737-1.23,7.4872,7.4872,0,0,1,1.8917-3.4619.9994.9994,0,0,1,1.4414,1.3848,5.5076,5.5076,0,0,0-1.3877,2.5381A.999.999,0,0,1,37.1758,16Z" fill="#5c5d5e" fill-opacity="1" data-original-color="#000000ff" stroke="none" stroke-opacity="1"/><path d="M20.5,38A9.5,9.5,0,1,0,30,47.5,9.5108,9.5108,0,0,0,20.5,38Zm-3.9648,5.6924a5.5076,5.5076,0,0,0-1.3877,2.5381,1,1,0,1,1-1.9454-.461,7.4872,7.4872,0,0,1,1.8917-3.4619.9994.9994,0,0,1,1.4414,1.3848ZM19,42a1,1,0,1,1,1-1A1,1,0,0,1,19,42Z" fill="#5c5d5e" fill-opacity="1" data-original-color="#000000ff" stroke="none" stroke-opacity="1"/><path d="M43.5,61h-23a13.5,13.5,0,0,1,0-27h23a13.5,13.5,0,0,1,0,27Zm-23-25a11.5,11.5,0,0,0,0,23h23a11.5,11.5,0,0,0,0-23Z" fill="#5c5d5e" fill-opacity="1" data-original-color="#000000ff" stroke="none" stroke-opacity="1"/></g></svg>