<svg width="24" height="24" viewBox="0 0 24 24" fill="none" xmlns="http://www.w3.org/2000/svg">
<path opacity="0.4" d="M20.4101 6.95994V9.79994L7.40009 19.3399L4.77009 17.3699C4.12009 16.8799 3.59009 15.8299 3.59009 15.0199V6.95994C3.59009 5.83994 4.45009 4.59994 5.50009 4.20994L10.9701 2.15994C11.5401 1.94994 12.4601 1.94994 13.0301 2.15994L18.5001 4.20994C19.5501 4.59994 20.4101 5.83994 20.4101 6.95994Z" fill="#FF7CEC"/>
<path d="M20.4101 11.1699V15.0199C20.4101 15.8299 19.8801 16.8799 19.2301 17.3699L13.7601 21.4599C13.2801 21.8199 12.6401 21.9999 12.0001 21.9999C11.3601 21.9999 10.7201 21.8199 10.2401 21.4599L8.32007 20.0299L20.4101 11.1699Z" fill="#FF7CEC"/>
</svg>
