<svg width="35" height="245" viewBox="0 0 35 245" fill="none" xmlns="http://www.w3.org/2000/svg">
<g clip-path="url(#clip0_1296_2893)">
<g clip-path="url(#clip1_1296_2893)">
<path d="M17.0093 0V245" stroke="#E1E1E1" stroke-width="0.906724"/>
<path d="M17.1469 105.379H17.1468C7.88562 105.379 0.37793 112.887 0.37793 122.148V122.148C0.37793 131.409 7.88562 138.917 17.1468 138.917H17.1469C26.4081 138.917 33.9158 131.409 33.9158 122.148V122.148C33.9158 112.887 26.4081 105.379 17.1469 105.379Z" fill="white" fill-opacity="0.9"/>
<path d="M17.4645 116.764L13.5949 127.315H11.0253L7.15576 116.764H9.42305L12.3252 125.153L15.2123 116.764H17.4645ZM22.376 127.421C21.6404 127.421 20.9753 127.295 20.3808 127.043C19.7963 126.791 19.3328 126.428 18.9902 125.955C18.6475 125.481 18.4712 124.922 18.4611 124.277H20.7284C20.7586 124.71 20.9098 125.053 21.1819 125.305C21.464 125.557 21.8469 125.682 22.3306 125.682C22.8244 125.682 23.2124 125.567 23.4945 125.335C23.7767 125.093 23.9177 124.781 23.9177 124.398C23.9177 124.085 23.822 123.828 23.6306 123.627C23.4391 123.425 23.1972 123.269 22.905 123.158C22.6229 123.037 22.2299 122.906 21.726 122.765C21.0408 122.564 20.4815 122.367 20.0482 122.176C19.625 121.974 19.2572 121.677 18.9448 121.284C18.6425 120.881 18.4913 120.347 18.4913 119.682C18.4913 119.057 18.6475 118.513 18.9599 118.049C19.2723 117.586 19.7106 117.233 20.275 116.991C20.8393 116.739 21.4842 116.613 22.2097 116.613C23.298 116.613 24.1797 116.88 24.8549 117.414C25.5401 117.938 25.918 118.674 25.9885 119.621H23.6608C23.6406 119.258 23.4844 118.961 23.1922 118.729C22.9101 118.488 22.5322 118.367 22.0586 118.367C21.6454 118.367 21.3129 118.472 21.0609 118.684C20.8191 118.896 20.6982 119.203 20.6982 119.606C20.6982 119.888 20.7889 120.125 20.9703 120.317C21.1617 120.498 21.3935 120.649 21.6656 120.77C21.9477 120.881 22.3407 121.012 22.8446 121.163C23.5298 121.365 24.0891 121.566 24.5224 121.768C24.9557 121.969 25.3285 122.271 25.6409 122.675C25.9533 123.078 26.1095 123.607 26.1095 124.262C26.1095 124.826 25.9634 125.35 25.6711 125.834C25.3789 126.317 24.9506 126.705 24.3863 126.997C23.822 127.28 23.1519 127.421 22.376 127.421Z" fill="#C52BAF"/>
<path d="M17.1469 105.379H17.1468C7.88562 105.379 0.37793 112.887 0.37793 122.148V122.148C0.37793 131.409 7.88562 138.917 17.1468 138.917H17.1469C26.4081 138.917 33.9158 131.409 33.9158 122.148V122.148C33.9158 112.887 26.4081 105.379 17.1469 105.379Z" stroke="#E1E1E1" stroke-width="0.755766"/>
</g>
</g>
<defs>
<clipPath id="clip0_1296_2893">
<rect width="35" height="245" fill="white"/>
</clipPath>
<clipPath id="clip1_1296_2893">
<rect width="35" height="245" fill="white"/>
</clipPath>
</defs>
</svg>
