<svg id="Capa_1" enable-background="new 0 0 512 512" height="300" viewBox="0 0 512 512" width="300" xmlns="http://www.w3.org/2000/svg" version="1.1" xmlns:xlink="http://www.w3.org/1999/xlink" xmlns:svgjs="http://svgjs.dev/svgjs"><g width="100%" height="100%" transform="matrix(1,0,0,1,0,0)"><path d="m454.734 242.361c-3.839 0-7.678-1.465-10.607-4.394-50.25-50.251-117.062-77.925-188.127-77.925s-137.877 27.674-188.128 77.925c-2.813 2.813-6.628 4.394-10.607 4.394s-7.794-1.58-10.606-4.394l-42.265-42.265c-2.813-2.813-4.394-6.628-4.394-10.607s1.58-7.794 4.394-10.606c33.962-33.962 73.567-60.26 117.717-78.163 42.634-17.289 87.682-26.056 133.889-26.056s91.255 8.767 133.89 26.056c44.15 17.903 83.755 44.201 117.717 78.163 5.858 5.857 5.858 15.354.001 21.213l-42.267 42.266c-2.929 2.928-6.768 4.393-10.607 4.393z" fill="#5c5d5e" fill-opacity="1" data-original-color="#000000ff" stroke="none" stroke-opacity="1"/><path d="m367.178 329.6c-3.979 0-7.794-1.58-10.606-4.393-26.865-26.864-62.582-41.659-100.572-41.659-37.991 0-73.708 14.795-100.571 41.658-2.813 2.813-6.628 4.393-10.606 4.393s-7.794-1.58-10.606-4.393l-42.267-42.268c-5.857-5.857-5.856-15.354.001-21.212 43.819-43.819 102.08-67.952 164.05-67.952s120.23 24.133 164.05 67.952c5.857 5.857 5.858 15.355.001 21.213l-42.266 42.267c-2.814 2.813-6.63 4.394-10.608 4.394z" fill="#5c5d5e" fill-opacity="1" data-original-color="#000000ff" stroke="none" stroke-opacity="1"/><path d="m256 441.73c-34.283 0-62.174-27.613-62.174-61.556 0-33.942 27.891-61.556 62.174-61.556s62.174 27.613 62.174 61.556-27.891 61.556-62.174 61.556z" fill="#5c5d5e" fill-opacity="1" data-original-color="#000000ff" stroke="none" stroke-opacity="1"/></g></svg>