<svg version="1.1" id="Capa_1" xmlns="http://www.w3.org/2000/svg" xmlns:xlink="http://www.w3.org/1999/xlink" x="0px" y="0px" viewBox="0 0 439.296 439.296" style="enable-background:new 0 0 439.296 439.296;" xml:space="preserve" width="300" height="300" xmlns:svgjs="http://svgjs.dev/svgjs"><g width="100%" height="100%" transform="matrix(1,0,0,1,0,0)"><g>
	<g>
		<path d="M421.376,46.336H17.92C8.192,46.336,0,54.528,0,64.256V375.04c0,9.728,8.192,17.92,17.92,17.92h403.456&#10;&#9;&#9;&#9;c9.728,0,17.92-8.192,17.92-17.92V64.256C439.296,54.016,431.616,46.336,421.376,46.336z M403.456,260.864l-73.216-58.368&#10;&#9;&#9;&#9;c-6.656-5.12-16.384-5.12-23.04,0.512l-82.432,71.68l-109.056-122.88c-3.584-3.584-8.704-6.144-13.824-6.144&#10;&#9;&#9;&#9;s-9.728,2.048-13.312,5.632L35.84,208.64V82.176h367.616V260.864z" fill="#f1aced" fill-opacity="1" data-original-color="#000000ff" stroke="none" stroke-opacity="1"/>
	</g>
</g><g>
	<g>
		<path d="M219.648,92.928c-32.256,0-58.88,26.624-58.88,58.88c0,32.256,26.112,58.88,58.88,58.88s58.88-26.624,58.88-58.88&#10;&#9;&#9;&#9;C278.528,119.04,251.904,92.928,219.648,92.928z" fill="#f1aced" fill-opacity="1" data-original-color="#000000ff" stroke="none" stroke-opacity="1"/>
	</g>
</g><g>
</g><g>
</g><g>
</g><g>
</g><g>
</g><g>
</g><g>
</g><g>
</g><g>
</g><g>
</g><g>
</g><g>
</g><g>
</g><g>
</g><g>
</g></g></svg>