<svg id="Layer_1" height="300" viewBox="0 0 512 512" width="300" xmlns="http://www.w3.org/2000/svg" data-name="Layer 1" version="1.1" xmlns:xlink="http://www.w3.org/1999/xlink" xmlns:svgjs="http://svgjs.dev/svgjs"><g width="100%" height="100%" transform="matrix(1,0,0,1,0,0)"><path d="m483.716 481.881a30.127 30.127 0 0 1 -30.116 30.119h-395.2a30.117 30.117 0 1 1 0-60.234h395.2a30.127 30.127 0 0 1 30.117 30.117zm-257.834-169.84v-281.923a30.118 30.118 0 0 1 60.236 0v281.924l69.1-67.807a30.117 30.117 0 1 1 42.186 42.994l-120.313 118.052a30.117 30.117 0 0 1 -42.188 0l-120.313-118.052a30.118 30.118 0 1 1 42.187-43z" fill-rule="evenodd" fill="#f1aced" fill-opacity="1" data-original-color="#000000ff" stroke="none" stroke-opacity="1"/></g></svg>