<svg width="14" height="15" viewBox="0 0 14 15" fill="none" xmlns="http://www.w3.org/2000/svg">
<path d="M7.252 0.71805C7.17552 0.67342 7.08855 0.649902 7 0.649902C6.91145 0.649902 6.82448 0.67342 6.748 0.71805L1 4.07138L7 7.57138L13 4.07138L7.252 0.71805ZM13.5 4.93672L7.5 8.43672V14.4367L13.252 11.0821C13.3275 11.038 13.3901 10.9749 13.4336 10.8991C13.4771 10.8233 13.5 10.7375 13.5 10.6501V4.93672ZM6.5 14.4367V8.43672L0.5 4.93672V10.6501C0.499974 10.7375 0.522859 10.8233 0.566374 10.8991C0.609888 10.9749 0.672511 11.038 0.748 11.0821L6.5 14.4367Z" fill="#F7F8F8"/>
</svg>
