<svg width="36" height="36" viewBox="0 0 36 36" fill="none" xmlns="http://www.w3.org/2000/svg">
<rect width="36" height="36" rx="8" fill="#C52BAF"/>
<path d="M18 26.3346C22.6024 26.3346 26.3333 22.6037 26.3333 18.0013C26.3333 13.3989 22.6024 9.66797 18 9.66797C13.3976 9.66797 9.66667 13.3989 9.66667 18.0013C9.66667 22.6037 13.3976 26.3346 18 26.3346Z" stroke="white" stroke-width="1.66667" stroke-linecap="round" stroke-linejoin="round"/>
<path d="M18 23C20.7614 23 23 20.7614 23 18C23 15.2386 20.7614 13 18 13C15.2386 13 13 15.2386 13 18C13 20.7614 15.2386 23 18 23Z" stroke="white" stroke-width="1.66667" stroke-linecap="round" stroke-linejoin="round"/>
<path d="M18 19.6654C18.9205 19.6654 19.6667 18.9192 19.6667 17.9987C19.6667 17.0782 18.9205 16.332 18 16.332C17.0795 16.332 16.3333 17.0782 16.3333 17.9987C16.3333 18.9192 17.0795 19.6654 18 19.6654Z" stroke="white" stroke-width="1.66667" stroke-linecap="round" stroke-linejoin="round"/>
</svg>
