<svg width="44" height="44" viewBox="0 0 44 44" fill="none" xmlns="http://www.w3.org/2000/svg">
<rect width="44" height="44" rx="12" fill="#1D2021"/>
<path d="M22 12V32" stroke="#C52BAF" stroke-width="2" stroke-linecap="round" stroke-linejoin="round"/>
<path d="M27 15H19.5C18.5717 15 17.6815 15.3687 17.0251 16.0251C16.3687 16.6815 16 17.5717 16 18.5C16 19.4283 16.3687 20.3185 17.0251 20.9749C17.6815 21.6313 18.5717 22 19.5 22H24.5C25.4283 22 26.3185 22.3687 26.9749 23.0251C27.6313 23.6815 28 24.5717 28 25.5C28 26.4283 27.6313 27.3185 26.9749 27.9749C26.3185 28.6313 25.4283 29 24.5 29H16" stroke="#C52BAF" stroke-width="2" stroke-linecap="round" stroke-linejoin="round"/>
</svg>
