<svg width="16" height="20" viewBox="0 0 16 20" fill="none" xmlns="http://www.w3.org/2000/svg">
<path d="M1.67036 7.91422L4.73236 3.77122C6.71136 1.09322 7.70136 -0.245777 8.62436 0.0372226C9.54736 0.320223 9.54736 1.96222 9.54736 5.24722V5.55722C9.54736 6.74222 9.54736 7.33422 9.92636 7.70522L9.94636 7.72522C10.3334 8.08822 10.9494 8.08822 12.1824 8.08822C14.4024 8.08822 15.5114 8.08822 15.8864 8.76122L15.9044 8.79522C16.2584 9.47822 15.6154 10.3482 14.3304 12.0852L11.2684 16.2292C9.28836 18.9072 8.29936 20.2462 7.37636 19.9632C6.45336 19.6802 6.45336 18.0382 6.45336 14.7532V14.4432C6.45336 13.2582 6.45336 12.6662 6.07436 12.2952L6.05436 12.2752C5.66736 11.9122 5.05136 11.9122 3.81836 11.9122C1.59836 11.9122 0.489356 11.9122 0.114356 11.2392C0.108156 11.228 0.102155 11.2167 0.0963568 11.2052C-0.257643 10.5222 0.385357 9.65322 1.67036 7.91522V7.91422Z" fill="url(#paint0_linear_1383_4630)"/>
<defs>
<linearGradient id="paint0_linear_1383_4630" x1="8.00036" y1="0.000222589" x2="8.00036" y2="20.0002" gradientUnits="userSpaceOnUse">
<stop offset="0.174" stop-color="#F33BC0"/>
<stop offset="0.532" stop-color="#C52BAF"/>
<stop offset="1" stop-color="#F33BC0" stop-opacity="0.7"/>
</linearGradient>
</defs>
</svg>
