<svg width="46" height="37" viewBox="0 0 46 37" fill="none" xmlns="http://www.w3.org/2000/svg">
<path d="M11.3512 0.00470246C12.1001 0.0159541 12.6363 0.0485837 12.9457 0.100904C13.2023 0.144222 13.6216 0.231422 13.8776 0.294994C14.1341 0.358566 14.5753 0.487959 14.8589 0.582473C15.1425 0.676986 15.705 0.913832 16.11 1.10792C16.515 1.30201 17.0775 1.61199 17.3611 1.79652C17.6447 1.98105 18.0859 2.30453 18.3424 2.51606C18.599 2.72759 19.4871 3.56584 21.8242 5.85779L21.8248 6.28929L18.2671 9.76547L17.827 9.76322L16.2084 8.19025C15.1246 7.13766 14.4758 6.54414 14.2457 6.39618C14.057 6.27466 13.7148 6.08901 13.4853 5.98268C13.2558 5.87692 12.8583 5.73515 12.6023 5.6682C12.3458 5.60125 11.9155 5.52868 11.6457 5.50674C11.3759 5.4848 10.9457 5.48424 10.6891 5.50505C10.4326 5.52587 10.0357 5.58944 9.80617 5.6457C9.57666 5.70252 9.20162 5.82741 8.97211 5.92361C8.7426 6.01981 8.35662 6.22515 8.11331 6.3793C7.87056 6.53345 7.48172 6.84568 7.24875 7.07353C7.01636 7.30081 6.69654 7.68111 6.53893 7.91852C6.38075 8.15593 6.17137 8.53342 6.07243 8.75789C5.97407 8.9818 5.84579 9.3486 5.7877 9.57307C5.7296 9.79698 5.66517 10.1857 5.64332 10.4361C5.62203 10.6864 5.62261 11.1072 5.64504 11.3711C5.66748 11.6349 5.74168 12.0557 5.81071 12.3061C5.87916 12.5564 6.02411 12.9452 6.13225 13.1691C6.24039 13.393 6.43079 13.7277 6.55446 13.9123C6.71265 14.148 7.4311 14.8866 11.1545 18.5395L19.249 10.6358C23.7012 6.28873 27.5315 2.58638 27.7605 2.40861C27.99 2.23083 28.3875 1.94842 28.6434 1.78189C28.9 1.61481 29.3193 1.36952 29.5753 1.23732C29.8318 1.10455 30.284 0.899205 30.5808 0.780501C30.8776 0.661796 31.3855 0.489647 31.7094 0.398509C32.0332 0.307371 32.5848 0.181915 32.9357 0.120594C33.4931 0.0232676 33.7307 0.00920311 34.8247 0.00920311C35.9182 0.00920311 36.1558 0.0232676 36.7138 0.120594C37.0646 0.181915 37.6163 0.306808 37.9401 0.398509C38.264 0.489647 38.7719 0.661796 39.0687 0.780501C39.3655 0.899205 39.8182 1.10623 40.0742 1.24013C40.3307 1.37402 40.7276 1.60412 40.9571 1.75151C41.1867 1.89891 41.5841 2.18358 41.8401 2.38442C42.0967 2.58526 42.5499 2.99594 42.8479 3.29636C43.1459 3.59678 43.5238 4.01534 43.6871 4.22631C43.8505 4.43727 44.1001 4.7827 44.2422 4.99367C44.3837 5.20463 44.6621 5.70083 44.8606 6.09632C45.059 6.49182 45.3093 7.07465 45.4162 7.39082C45.5232 7.70755 45.6665 8.21444 45.7343 8.51767C45.8028 8.8209 45.8816 9.2524 45.9098 9.47687C45.938 9.70078 45.9754 10.1542 45.992 10.4839C46.0093 10.8231 45.9978 11.3745 45.9644 11.7548C45.9328 12.1238 45.862 12.6526 45.8074 12.9294C45.7527 13.2062 45.6532 13.627 45.5854 13.8644C45.5175 14.1018 45.3835 14.5007 45.2874 14.7516C45.1913 15.002 45.0182 15.4014 44.902 15.6388C44.7858 15.8762 44.5649 16.2751 44.4108 16.526C44.2566 16.7764 43.9828 17.1758 43.8028 17.4132C43.6227 17.6506 43.2644 18.0714 43.0061 18.3482C42.7478 18.625 41.9661 19.407 40 21.3198L39.5093 21.3203L37.7992 19.6545C36.8248 18.7054 36.0597 17.9218 36.0206 17.8329C35.9821 17.7446 35.9654 17.6197 35.9832 17.5454C36.0039 17.4576 36.5326 16.9012 37.5674 15.879C38.5826 14.876 39.2073 14.22 39.3701 13.9848C39.507 13.7868 39.6968 13.474 39.7918 13.2895C39.8867 13.105 40.0218 12.7758 40.0926 12.5581C40.1633 12.3404 40.2542 11.9736 40.2951 11.7429C40.3359 11.5123 40.3687 11.1455 40.3687 10.9278C40.3687 10.71 40.344 10.3652 40.3146 10.1604C40.2853 9.95619 40.2059 9.60514 40.1392 9.38123C40.0725 9.15732 39.9407 8.8119 39.8464 8.61387C39.7526 8.41584 39.5576 8.08167 39.4144 7.8707C39.2706 7.65973 39.0014 7.33513 38.8162 7.15004C38.631 6.96439 38.3249 6.69885 38.1363 6.55989C37.9476 6.42093 37.5829 6.20265 37.3269 6.07495C37.0704 5.94724 36.6735 5.78747 36.444 5.72052C36.2145 5.65357 35.8837 5.57425 35.7083 5.54443C35.5328 5.51462 35.1244 5.49099 34.8006 5.49211C34.4767 5.49324 34.0355 5.52699 33.8193 5.5675C33.6035 5.608 33.2613 5.6952 33.0588 5.76159C32.8563 5.82741 32.5475 5.9523 32.372 6.03838C32.1966 6.12445 31.8877 6.3011 31.6852 6.4305C31.4131 6.6049 30.7516 7.21642 26.9736 10.8923L32.7879 16.5744C38.1202 21.785 38.6022 22.2694 38.6022 22.4123C38.6022 22.4978 38.5706 22.6272 38.532 22.6998C38.4935 22.7723 35.2866 25.9295 31.4062 29.7157C26.0774 34.9145 24.2908 36.6304 24.1055 36.7255C23.9704 36.7947 23.7276 36.8852 23.566 36.9263C23.4043 36.9674 23.1392 37.0006 22.9775 37C22.8159 36.9994 22.5841 36.9758 22.4621 36.9482C22.3408 36.9207 22.1199 36.843 21.9715 36.7755C21.7362 36.6692 20.4972 35.4776 12.3394 27.5126C7.19065 22.4854 2.80059 18.167 2.5843 17.9167C2.36802 17.6664 2.05165 17.2562 1.88196 17.0059C1.7117 16.7555 1.47586 16.3775 1.35794 16.1665C1.24002 15.9555 1.05825 15.5994 0.953558 15.3755C0.848868 15.1516 0.688382 14.7522 0.596347 14.4883C0.504312 14.2245 0.376038 13.8037 0.311614 13.5533C0.246614 13.303 0.157455 12.8929 0.113739 12.6425C0.0665708 12.373 0.0234294 11.7761 0.00847367 11.1798C-0.0110838 10.4051 0.00157104 10.0344 0.0636947 9.57363C0.107987 9.24396 0.201172 8.72639 0.270773 8.42259C0.340375 8.11936 0.48418 7.62317 0.590595 7.31994C0.697011 7.01671 0.916744 6.49857 1.07838 6.1689C1.24059 5.83922 1.47471 5.40773 1.59895 5.2097C1.7232 5.01167 2.01426 4.60211 2.24492 4.29888C2.47559 3.99565 2.93001 3.4882 3.25443 3.17091C3.57886 2.85361 4.09828 2.40973 4.40832 2.18414C4.71836 1.95854 5.13827 1.67444 5.34018 1.55292C5.54265 1.43141 5.98385 1.20244 6.3215 1.04379C6.65858 0.885703 7.18835 0.670798 7.49897 0.56672C7.80902 0.462643 8.31693 0.321998 8.62755 0.253363C8.93759 0.185291 9.42365 0.0969657 9.70666 0.0581476C10.08 0.00639021 10.5321 -0.00823689 11.3501 0.00413988L11.3512 0.00470246ZM21.1633 17.3446C21.0017 17.4014 20.6594 17.5538 20.4029 17.6838C20.1463 17.8137 19.7396 18.0759 19.4992 18.2661C19.2587 18.4562 18.8992 18.8061 18.7014 19.0435C18.4626 19.3299 18.2418 19.6691 18.0468 20.0506C17.8644 20.4078 17.7039 20.8078 17.6245 21.1054C17.525 21.4767 17.4911 21.7417 17.4721 22.2801C17.4543 22.7971 17.4681 23.0801 17.5262 23.3827C17.5693 23.6066 17.6504 23.9307 17.7068 24.1017C17.7632 24.2733 17.9047 24.6075 18.0214 24.8449C18.1382 25.0823 18.3649 25.4491 18.5253 25.6601C18.6858 25.871 18.9861 26.2001 19.1932 26.3914C19.4002 26.5827 19.7402 26.8488 19.9496 26.9821C20.159 27.116 20.4621 27.287 20.6243 27.3619C20.7859 27.4367 21.0569 27.543 21.2254 27.5981C21.394 27.6533 21.6919 27.7315 21.8875 27.7725C22.0831 27.8136 22.4639 27.8597 22.7336 27.8749C23.0184 27.8913 23.4095 27.8783 23.6655 27.844C23.9082 27.8119 24.2948 27.732 24.5243 27.6668C24.7538 27.6015 25.1179 27.4676 25.3336 27.3692C25.5493 27.2707 25.9025 27.0727 26.1188 26.9292C26.3345 26.7852 26.6877 26.4949 26.904 26.284C27.1197 26.073 27.4171 25.7276 27.5643 25.5166C27.7116 25.3056 27.9141 24.9602 28.0147 24.7492C28.1154 24.5383 28.2517 24.1822 28.3184 23.9583C28.3852 23.7343 28.4668 23.3349 28.5008 23.0711C28.5359 22.7954 28.5497 22.4083 28.5324 22.1602C28.5163 21.9228 28.4697 21.5774 28.4295 21.3929C28.3892 21.2084 28.3087 20.9169 28.2511 20.7454C28.193 20.5738 28.0377 20.2289 27.906 19.978C27.7737 19.7276 27.558 19.3822 27.4257 19.2106C27.294 19.039 27.023 18.7471 26.824 18.562C26.625 18.3763 26.2971 18.1153 26.0946 17.9814C25.8922 17.8475 25.6161 17.6832 25.4815 17.6168C25.3463 17.5505 25.0374 17.4273 24.7946 17.344C24.5519 17.2607 24.1654 17.1606 23.9358 17.1223C23.7063 17.0835 23.2536 17.0543 22.9304 17.056C22.5559 17.0582 22.1809 17.0931 21.9001 17.1505C21.6574 17.2005 21.3261 17.2872 21.1644 17.344L21.1633 17.3446ZM23.1012 18.9935C23.3307 19.0042 23.635 19.0419 23.7771 19.0762C23.9767 19.1246 24.0285 19.1555 24.0037 19.2112C23.9859 19.2506 23.9422 19.3586 23.9065 19.4509C23.8708 19.5431 23.8409 19.7102 23.8398 19.8227C23.8386 19.9347 23.8812 20.14 23.9347 20.2784C23.9882 20.4168 24.0952 20.6058 24.1728 20.6981C24.2505 20.7904 24.4328 20.9304 24.5784 21.0098C24.8067 21.1341 24.8936 21.1538 25.2111 21.1538C25.5355 21.1538 25.612 21.1352 26.143 20.8421L26.2454 21.07C26.3017 21.1954 26.3932 21.4705 26.4478 21.6815C26.5312 22.001 26.5433 22.1608 26.5215 22.6407C26.503 23.0514 26.4645 23.3051 26.388 23.5279C26.3288 23.6995 26.2166 23.9583 26.1384 24.1034C26.0601 24.2485 25.8899 24.4966 25.7604 24.6547C25.6304 24.8128 25.3929 25.0463 25.2324 25.1734C25.0719 25.3006 24.7636 25.4873 24.5479 25.5892C24.3322 25.6904 24.0008 25.8097 23.8122 25.8547C23.551 25.916 23.3221 25.9307 22.8556 25.9143C22.354 25.8969 22.1711 25.8693 21.8501 25.7624C21.6344 25.6904 21.3031 25.5385 21.1144 25.4243C20.924 25.3096 20.6071 25.0485 20.4029 24.8387C20.1388 24.567 19.9766 24.3453 19.8294 24.0539C19.716 23.8305 19.5878 23.5076 19.5435 23.336C19.4992 23.1645 19.452 22.8517 19.4388 22.6407C19.4238 22.4083 19.4422 22.1062 19.4854 21.8733C19.5245 21.6624 19.6142 21.3496 19.6856 21.178C19.7569 21.0064 19.8863 20.7482 19.9743 20.6041C20.0618 20.4601 20.289 20.1901 20.4788 20.005C20.6686 19.8193 20.9447 19.5977 21.092 19.5122C21.2392 19.4267 21.5038 19.2995 21.6793 19.2298C21.8547 19.16 22.1527 19.0739 22.3413 19.039C22.5358 19.0025 22.8654 18.9834 23.1018 18.9946L23.1012 18.9935Z" fill="#F33BC0" fill-opacity="0.6"/>
</svg>
