<svg width="21" height="20" viewBox="0 0 21 20" fill="none" xmlns="http://www.w3.org/2000/svg">
<path d="M15.5338 0.126675C14.6978 -0.303325 13.6118 0.389675 11.4388 1.77667L10.8758 2.13668C10.2588 2.53068 9.94976 2.72767 9.60376 2.78467C9.25676 2.84067 8.91176 2.75068 8.22176 2.56968L7.59376 2.40568C5.16476 1.76868 3.94976 1.44968 3.25576 2.12968C2.55976 2.80968 2.84376 4.03767 3.41276 6.49267L3.55976 7.12768C3.72076 7.82468 3.80176 8.17367 3.73676 8.52067C3.67076 8.86667 3.46676 9.17067 3.05676 9.78067L2.68476 10.3357C1.24576 12.4807 0.526757 13.5527 0.931757 14.4027C1.33776 15.2527 2.59976 15.3177 5.12376 15.4477L5.77776 15.4807C6.49476 15.5177 6.85376 15.5367 7.15976 15.6937C7.46576 15.8517 7.68376 16.1297 8.12176 16.6877L8.51976 17.1947C10.0588 19.1567 10.8288 20.1377 11.7748 19.9827C12.7198 19.8287 13.2158 18.6407 14.2078 16.2657L14.4648 15.6517C14.7468 14.9767 14.8868 14.6397 15.1418 14.3907C15.3968 14.1407 15.7368 14.0087 16.4158 13.7437L17.0338 13.5037C19.4238 12.5707 20.6198 12.1037 20.7988 11.1587C20.9778 10.2137 20.0218 9.41468 18.1108 7.81668L17.6158 7.40368C17.0728 6.94968 16.8008 6.72367 16.6528 6.41167C16.5038 6.09967 16.4948 5.73967 16.4778 5.01867L16.4618 4.36167C16.3998 1.82367 16.3688 0.554675 15.5338 0.125675V0.126675ZM18.3498 16.4697C18.2811 16.396 18.1983 16.3369 18.1063 16.2959C18.0143 16.2549 17.915 16.2329 17.8143 16.2311C17.7136 16.2293 17.6135 16.2478 17.5202 16.2856C17.4268 16.3233 17.3419 16.3794 17.2707 16.4506C17.1995 16.5219 17.1434 16.6067 17.1056 16.7001C17.0679 16.7935 17.0494 16.8935 17.0512 16.9942C17.0529 17.0949 17.075 17.1942 17.116 17.2862C17.157 17.3782 17.2161 17.461 17.2898 17.5297L19.2898 19.5297C19.3584 19.6034 19.4412 19.6625 19.5332 19.7035C19.6252 19.7444 19.7245 19.7665 19.8252 19.7683C19.9259 19.77 20.026 19.7515 20.1194 19.7138C20.2127 19.6761 20.2976 19.6199 20.3688 19.5487C20.44 19.4775 20.4962 19.3927 20.5339 19.2993C20.5716 19.2059 20.5901 19.1059 20.5883 19.0052C20.5866 18.9045 20.5645 18.8051 20.5235 18.7131C20.4825 18.6211 20.4234 18.5383 20.3498 18.4697L18.3498 16.4697Z" fill="#A7ADBE"/>
</svg>
