<svg id="Capa_1" enable-background="new 0 0 507.89 507.89" height="300" viewBox="0 0 507.89 507.89" width="300" xmlns="http://www.w3.org/2000/svg" version="1.1" xmlns:xlink="http://www.w3.org/1999/xlink" xmlns:svgjs="http://svgjs.dev/svgjs"><g width="100%" height="100%" transform="matrix(1,0,0,1,0,0)"><g><path d="m457.101 135.437h-196.215l-62.64-62.809c-3.195-3.169-7.52-4.936-12.02-4.91h-135.437c-28.05.001-50.789 22.74-50.789 50.79v270.875c0 28.05 22.739 50.789 50.789 50.789h406.312c28.05 0 50.789-22.739 50.789-50.789v-203.157c0-28.05-22.739-50.789-50.789-50.789zm-287.804 237.016h-67.719c-9.35 0-16.93-7.58-16.93-16.93s7.58-16.93 16.93-16.93h67.719c9.35 0 16.93 7.58 16.93 16.93-.001 9.35-7.58 16.93-16.93 16.93z" fill="#f1aced" fill-opacity="1" data-original-color="#000000ff" stroke="none" stroke-opacity="1"/></g></g></svg>