<svg width="55" height="55" viewBox="0 0 55 55" fill="none" xmlns="http://www.w3.org/2000/svg">
<path d="M27.1566 54.3133C42.1548 54.3133 54.3133 42.1548 54.3133 27.1566C54.3133 12.1584 42.1548 0 27.1566 0C12.1584 0 0 12.1584 0 27.1566C0 42.1548 12.1584 54.3133 27.1566 54.3133Z" fill="url(#paint0_radial_2078_3444)"/>
<path d="M39.5928 17.3927C39.5928 16.1962 38.5962 15.2301 37.3711 15.2301C36.1459 15.2301 35.1484 16.1962 35.1484 17.3927C35.1484 18.5847 36.1459 19.5508 37.3711 19.5508C38.5962 19.5508 39.5928 18.5847 39.5928 17.3927" fill="url(#paint1_linear_2078_3444)"/>
<path d="M42.5568 34.2727C42.4745 36.0278 42.1728 36.9814 41.9223 37.6148C41.5858 38.4545 41.1845 39.055 40.5335 39.6848C39.8898 40.3146 39.2727 40.7042 38.4096 41.028C37.7587 41.2754 36.7749 41.5698 34.971 41.6534C33.0209 41.737 32.443 41.7549 27.4977 41.7549C22.557 41.7549 21.9745 41.737 20.0244 41.6534C18.2205 41.5698 17.2413 41.2754 16.5903 41.028C15.7227 40.7042 15.1102 40.3146 14.4628 39.6848C13.8109 39.055 13.4096 38.4545 13.0777 37.6148C12.8272 36.9814 12.5209 36.0278 12.4432 34.2727C12.3481 32.3752 12.3307 31.8041 12.3307 27.0022C12.3307 22.1906 12.3481 21.6239 12.4432 19.7264C12.5209 17.9713 12.8272 17.0186 13.0777 16.3798C13.4096 15.541 13.8109 14.9441 14.4628 14.3143C15.1102 13.6854 15.7227 13.2948 16.5903 12.9675C17.2413 12.7193 18.2205 12.4293 20.0244 12.3457C21.9745 12.262 22.557 12.2407 27.4977 12.2407C32.443 12.2407 33.0209 12.262 34.971 12.3457C36.7749 12.4293 37.7587 12.7193 38.4096 12.9675C39.2727 13.2948 39.8898 13.6854 40.5335 14.3143C41.1845 14.9441 41.5858 15.541 41.9223 16.3798C42.1728 17.0186 42.4745 17.9713 42.5568 19.7264C42.6473 21.6239 42.6692 22.1906 42.6692 27.0022C42.6692 31.8041 42.6473 32.3752 42.5568 34.2727V34.2727ZM45.8875 19.5788C45.797 17.6608 45.4861 16.3505 45.0244 15.2092C44.5545 14.0252 43.9246 13.0217 42.8933 12.0183C41.8665 11.0193 40.8352 10.4064 39.6183 9.94386C38.4407 9.49905 37.0985 9.19302 35.1264 9.10942C33.1543 9.01688 32.5244 9 27.4977 9C22.4756 9 21.8411 9.01688 19.869 9.10942C17.9014 9.19302 16.5602 9.49905 15.3771 9.94386C14.1648 10.4064 13.1335 11.0193 12.1067 12.0183C11.0754 13.0217 10.4455 14.0252 9.97096 15.2092C9.5138 16.3505 9.20297 17.6608 9.10786 19.5788C9.02194 21.4976 9 22.1114 9 27.0022C9 31.8886 9.02194 32.5015 9.10786 34.4203C9.20297 36.3347 9.5138 37.6441 9.97096 38.7908C10.4455 39.9704 11.0754 40.9783 12.1067 41.9772C13.1335 42.9762 14.1648 43.5936 15.3771 44.0553C16.5602 44.5 17.9014 44.8025 19.869 44.8906C21.8411 44.9787 22.4756 45 27.4977 45C32.5244 45 33.1543 44.9787 35.1264 44.8906C37.0985 44.8025 38.4407 44.5 39.6183 44.0553C40.8352 43.5936 41.8665 42.9762 42.8933 41.9772C43.9246 40.9783 44.5545 39.9704 45.0244 38.7908C45.4861 37.6441 45.797 36.3347 45.8875 34.4203C45.9781 32.5015 46 31.8886 46 27.0022C46 22.1114 45.9781 21.4976 45.8875 19.5788V19.5788Z" fill="url(#paint2_linear_2078_3444)"/>
<path d="M27.4966 32.9966C24.0927 32.9966 21.3307 30.3136 21.3307 27.0017C21.3307 23.6845 24.0927 20.998 27.4966 20.998C30.9014 20.998 33.6671 23.6845 33.6671 27.0017C33.6671 30.3136 30.9014 32.9966 27.4966 32.9966V32.9966ZM27.4966 17.7529C22.2495 17.7529 18 21.8965 18 27.0017C18 32.1025 22.2495 36.2417 27.4966 36.2417C32.7436 36.2417 36.9978 32.1025 36.9978 27.0017C36.9978 21.8965 32.7436 17.7529 27.4966 17.7529Z" fill="url(#paint3_linear_2078_3444)"/>
<defs>
<radialGradient id="paint0_radial_2078_3444" cx="0" cy="0" r="1" gradientUnits="userSpaceOnUse" gradientTransform="translate(27.1566) rotate(90) scale(54.3133)">
<stop stop-color="#F1ACED"/>
<stop offset="1" stop-color="#F33BC0"/>
</radialGradient>
<linearGradient id="paint1_linear_2078_3444" x1="9.33015" y1="44.6282" x2="41.9948" y2="11.0564" gradientUnits="userSpaceOnUse">
<stop stop-color="#F1ACED"/>
<stop offset="0.05" stop-color="#F1ACED"/>
<stop offset="0.501119" stop-color="#F1ACED"/>
<stop offset="0.95" stop-color="#F1ACED"/>
<stop offset="0.950079" stop-color="#F1ACED"/>
<stop offset="1" stop-color="#F1ACED"/>
</linearGradient>
<linearGradient id="paint2_linear_2078_3444" x1="9.33373" y1="44.6726" x2="42.0251" y2="11.0731" gradientUnits="userSpaceOnUse">
<stop stop-color="#F1ACED" stop-opacity="0.6"/>
<stop offset="0.05" stop-color="#F1ACED" stop-opacity="0.6"/>
<stop offset="0.501119" stop-color="#F1ACED"/>
<stop offset="0.95" stop-color="#F1ACED"/>
<stop offset="0.950079" stop-color="#F1ACED"/>
<stop offset="1" stop-color="#F1ACED"/>
</linearGradient>
<linearGradient id="paint3_linear_2078_3444" x1="9.34134" y1="44.673" x2="42.0249" y2="11.0816" gradientUnits="userSpaceOnUse">
<stop stop-color="#F1ACED" stop-opacity="0.6"/>
<stop offset="0.05" stop-color="#F1ACED"/>
<stop offset="0.501119" stop-color="#F1ACED"/>
<stop offset="0.95" stop-color="#F1ACED" stop-opacity="0.8"/>
<stop offset="0.950079" stop-color="#F1ACED" stop-opacity="0.8"/>
<stop offset="1" stop-color="#F1ACED"/>
</linearGradient>
</defs>
</svg>
