<svg width="42" height="43" viewBox="0 0 42 43" fill="none" xmlns="http://www.w3.org/2000/svg">
<path d="M34.7304 10.0241C34.7304 8.59496 33.5991 7.44105 32.2085 7.44105C30.8178 7.44105 29.6855 8.59496 29.6855 10.0241C29.6855 11.4479 30.8178 12.6018 32.2085 12.6018C33.5991 12.6018 34.7304 11.4479 34.7304 10.0241Z" fill="url(#paint0_linear_2_351)"/>
<path d="M38.0915 30.1868C37.9981 32.2832 37.6556 33.4222 37.3713 34.1787C36.9893 35.1818 36.5337 35.899 35.7948 36.6513C35.0642 37.4036 34.3636 37.869 33.3839 38.2557C32.645 38.5511 31.5282 38.9028 29.4806 39.0027C27.267 39.1026 26.611 39.1239 20.9974 39.1239C15.389 39.1239 14.7278 39.1026 12.5141 39.0027C10.4665 38.9028 9.35503 38.5511 8.61604 38.2557C7.63117 37.869 6.93585 37.4036 6.20107 36.6513C5.46107 35.899 5.00548 35.1818 4.62875 34.1787C4.34433 33.4222 3.99671 32.2832 3.90844 30.1868C3.80056 27.9204 3.78079 27.2382 3.78079 21.5027C3.78079 15.7554 3.80056 15.0785 3.90844 12.8121C3.99671 10.7158 4.34433 9.57777 4.62875 8.81482C5.00548 7.81287 5.46107 7.09988 6.20107 6.3476C6.93585 5.59643 7.63117 5.12992 8.61604 4.73896C9.35503 4.44252 10.4665 4.0961 12.5141 3.99625C14.7278 3.89632 15.389 3.87082 20.9974 3.87082C26.611 3.87082 27.267 3.89632 29.4806 3.99625C31.5282 4.0961 32.645 4.44252 33.3839 4.73896C34.3636 5.12992 35.0642 5.59643 35.7948 6.3476C36.5337 7.09988 36.9893 7.81287 37.3713 8.81482C37.6556 9.57777 37.9981 10.7158 38.0915 12.8121C38.1942 15.0785 38.2191 15.7554 38.2191 21.5027C38.2191 27.2382 38.1942 27.9204 38.0915 30.1868ZM41.8723 12.6357C41.7696 10.3449 41.4167 8.77975 40.8926 7.41656C40.3592 6.0023 39.6441 4.80375 38.4734 3.60521C37.308 2.412 36.1373 1.67988 34.7559 1.12739C33.4192 0.596092 31.8956 0.230549 29.657 0.130699C27.4184 0.0201683 26.7034 3.8147e-06 20.9974 3.8147e-06C15.2966 3.8147e-06 14.5764 0.0201683 12.3378 0.130699C10.1043 0.230549 8.5818 0.596092 7.23887 1.12739C5.86271 1.67988 4.69203 2.412 3.52658 3.60521C2.3559 4.80375 1.64081 6.0023 1.10218 7.41656C0.583235 8.77975 0.230398 10.3449 0.122438 12.6357C0.0249079 14.9276 0 15.6608 0 21.5027C0 27.3392 0.0249079 28.0712 0.122438 30.3631C0.230398 32.6498 0.583235 34.2138 1.10218 35.5834C1.64081 36.9924 2.3559 38.1963 3.52658 39.3895C4.69203 40.5827 5.86271 41.3201 7.23887 41.8716C8.5818 42.4028 10.1043 42.7641 12.3378 42.8693C14.5764 42.9745 15.2966 43 20.9974 43C26.7034 43 27.4184 42.9745 29.657 42.8693C31.8956 42.7641 33.4192 42.4028 34.7559 41.8716C36.1373 41.3201 37.308 40.5827 38.4734 39.3895C39.6441 38.1963 40.3592 36.9924 40.8926 35.5834C41.4167 34.2138 41.7696 32.6498 41.8723 30.3631C41.9751 28.0712 42 27.3392 42 21.5027C42 15.6608 41.9751 14.9276 41.8723 12.6357Z" fill="url(#paint1_linear_2_351)"/>
<path d="M20.9982 28.6632C17.1343 28.6632 13.9991 25.4585 13.9991 21.5026C13.9991 17.5404 17.1343 14.3316 20.9982 14.3316C24.8631 14.3316 28.0025 17.5404 28.0025 21.5026C28.0025 25.4585 24.8631 28.6632 20.9982 28.6632ZM20.9982 10.4555C15.0421 10.4555 10.2183 15.4047 10.2183 21.5026C10.2183 27.5953 15.0421 32.5393 20.9982 32.5393C26.9543 32.5393 31.7833 27.5953 31.7833 21.5026C31.7833 15.4047 26.9543 10.4555 20.9982 10.4555Z" fill="url(#paint2_linear_2_351)"/>
<defs>
<linearGradient id="paint0_linear_2_351" x1="0.378237" y1="42.5554" x2="39.3981" y2="4.44314" gradientUnits="userSpaceOnUse">
<stop stop-color="#F33BC0"/>
<stop offset="0.05" stop-color="#F8A8F9"/>
<stop offset="0.501119" stop-color="#C52BAF"/>
<stop offset="0.95" stop-color="#B900B4"/>
<stop offset="0.950079" stop-color="#B900B4"/>
<stop offset="1" stop-color="#B900B4"/>
</linearGradient>
<linearGradient id="paint1_linear_2_351" x1="0.378834" y1="42.609" x2="39.4307" y2="4.46523" gradientUnits="userSpaceOnUse">
<stop stop-color="#F33BC0" stop-opacity="0.6"/>
<stop offset="0.05" stop-color="#F33BC0" stop-opacity="0.6"/>
<stop offset="0.501119" stop-color="#F33BC0"/>
<stop offset="0.95" stop-color="#B900B4"/>
<stop offset="0.950079" stop-color="#B900B4"/>
<stop offset="1" stop-color="#B900B4"/>
</linearGradient>
<linearGradient id="paint2_linear_2_351" x1="0.389517" y1="42.61" x2="39.432" y2="4.47548" gradientUnits="userSpaceOnUse">
<stop stop-color="#F33BC0" stop-opacity="0.6"/>
<stop offset="0.05" stop-color="#F33BC0"/>
<stop offset="0.501119" stop-color="#F33BC0"/>
<stop offset="0.95" stop-color="#C52BAF" stop-opacity="0.8"/>
<stop offset="0.950079" stop-color="#C52BAF" stop-opacity="0.8"/>
<stop offset="1" stop-color="#770350"/>
</linearGradient>
</defs>
</svg>
