<svg width="18" height="20" viewBox="0 0 18 20" fill="none" xmlns="http://www.w3.org/2000/svg">
<path d="M9.83029 1.66536C9.83029 1.20513 9.4572 0.832031 8.99696 0.832031C8.53672 0.832031 8.16363 1.20513 8.16363 1.66536V10.4835L5.83955 8.15944C5.51411 7.834 4.98648 7.834 4.66104 8.15944C4.3356 8.48488 4.3356 9.01252 4.66104 9.33795L8.36495 13.0419C8.51777 13.2195 8.74423 13.332 8.99696 13.332L8.99858 13.332C9.21242 13.3325 9.4264 13.2511 9.58955 13.088L13.3395 9.33795C13.665 9.01252 13.665 8.48488 13.3395 8.15944C13.0141 7.834 12.4865 7.834 12.161 8.15944L9.83029 10.4902V1.66536Z" fill="white"/>
<path d="M1.86679 15.3057C2.60621 16.6002 3.67935 17.6727 4.97433 18.4113C6.26932 19.1498 7.73872 19.5275 9.22935 19.5049C10.72 19.4822 12.1772 19.0602 13.4492 18.2826C14.7212 17.5051 15.7613 16.4006 16.4611 15.0842C17.1608 13.7678 17.4947 12.2879 17.4278 10.7986C17.3609 9.30928 16.8957 7.8652 16.0807 6.61689C15.8291 6.23151 15.3128 6.12306 14.9274 6.37466C14.542 6.62626 14.4336 7.14263 14.6852 7.52801C15.3372 8.52666 15.7093 9.68193 15.7628 10.8734C15.8163 12.0648 15.5493 13.2488 14.9894 14.3019C14.4296 15.3549 13.5975 16.2386 12.5799 16.8606C11.5624 17.4826 10.3966 17.8203 9.20405 17.8384C8.01155 17.8565 6.83603 17.5544 5.80004 16.9635C4.76405 16.3727 3.90554 15.5147 3.314 14.4791C2.72247 13.4435 2.41957 12.2682 2.4369 11.0757C2.45423 9.88314 2.79114 8.71711 3.41251 7.69913C3.6523 7.30629 3.52823 6.79345 3.13539 6.55366C2.74255 6.31388 2.22971 6.43795 1.98993 6.83078C1.21321 8.10326 0.792068 9.5608 0.770411 11.0514C0.748752 12.5421 1.12737 14.0112 1.86679 15.3057Z" fill="white"/>
</svg>
