<svg width="20" height="20" viewBox="0 0 20 20" fill="none" xmlns="http://www.w3.org/2000/svg">
<g clip-path="url(#clip0_868_2034)">
<path fill-rule="evenodd" clip-rule="evenodd" d="M12.946 8.82164L11.1782 7.05387C10.5273 6.403 9.47204 6.403 8.82116 7.05387L7.0534 8.82164C6.40252 9.47252 6.40252 10.5278 7.0534 11.1787L8.82116 12.9464C9.47204 13.5973 10.5273 13.5973 11.1782 12.9464L12.946 11.1787C13.5968 10.5278 13.5968 9.47252 12.946 8.82164ZM9.99967 8.23239L11.7674 10.0002L9.99967 11.7679L8.23191 10.0002L9.99967 8.23239Z" fill="white"/>
<path fill-rule="evenodd" clip-rule="evenodd" d="M9.99967 0.833984C4.93706 0.833984 0.833008 4.93804 0.833008 10.0007C0.833008 15.0633 4.93706 19.1673 9.99967 19.1673C15.0623 19.1673 19.1663 15.0633 19.1663 10.0007C19.1663 4.93804 15.0623 0.833984 9.99967 0.833984ZM2.49967 10.0007C2.49967 5.85851 5.85754 2.50065 9.99967 2.50065C14.1418 2.50065 17.4997 5.85851 17.4997 10.0007C17.4997 14.1428 14.1418 17.5007 9.99967 17.5007C5.85754 17.5007 2.49967 14.1428 2.49967 10.0007Z" fill="white"/>
</g>
<defs>
<clipPath id="clip0_868_2034">
<rect width="20" height="20" fill="white"/>
</clipPath>
</defs>
</svg>
