<svg width="24" height="24" viewBox="0 0 24 24" fill="none" xmlns="http://www.w3.org/2000/svg">
<path d="M14.9052 12.4307C16.264 12.4307 18.3513 11.3279 18.3513 9.96919H20.453V8H18.2824H3V9.96919H4.56698C4.56698 11.3279 6.65432 12.4307 8.01306 12.4307C9.3718 12.4307 10.7207 11.3279 10.7207 9.96919H12.1976C12.1976 11.3279 13.5465 12.4307 14.9052 12.4307Z" fill="#C77ABC"/>
<path fill-rule="evenodd" clip-rule="evenodd" d="M2.74983 6.65087C4.64565 3.42804 8.10549 1.44922 11.8446 1.44922H12.1558C15.8949 1.44922 19.3549 3.42813 21.2506 6.65107C23.193 9.95312 23.193 14.0485 21.2506 17.3506C19.3549 20.5735 15.8949 22.5524 12.1558 22.5524H11.8446C8.1055 22.5524 4.64565 20.5736 2.74983 17.3508C0.807348 14.0486 0.807348 9.95302 2.74983 6.65087ZM11.8446 3.44922C8.81422 3.44922 6.01017 5.05297 4.47369 7.66492C2.89939 10.3412 2.89939 13.6605 4.47369 16.3367C6.01017 18.9487 8.81422 20.5524 11.8446 20.5524H12.1558C15.1862 20.5524 17.9903 18.9486 19.5268 16.3366C21.1009 13.6604 21.1009 10.3413 19.5268 7.66508C17.9903 5.05304 15.1862 3.44922 12.1558 3.44922H11.8446Z" fill="#8C8C8C"/>
</svg>
