<svg width="24" height="24" viewBox="0 0 24 24" fill="none" xmlns="http://www.w3.org/2000/svg">
<path d="M19.5 1.5C20.6046 1.5 21.5 2.39543 21.5 3.5V17.5C21.5 18.6046 20.6046 19.5 19.5 19.5H13.5V22.0996C13.5 22.3205 13.3205 22.5 13.0996 22.5H2.90039C2.67948 22.5 2.5 22.3205 2.5 22.0996V17.9004C2.5 17.6795 2.67948 17.5 2.90039 17.5H4.45508C3.99587 15.5217 3.55673 12.4229 3.50488 10.8086C3.49256 10.4244 3.59745 10.0457 3.80566 9.72266C4.66726 8.38608 6.07329 6.88132 7.21777 5.74414C7.79819 5.16743 8.32685 4.66969 8.71094 4.31641C8.90311 4.13965 9.0601 3.99878 9.16895 3.90137C9.22338 3.85265 9.26563 3.81399 9.29492 3.78809L9.3291 3.75879L9.34082 3.74805C9.39105 3.7041 9.4443 3.66498 9.5 3.63281V3.5C9.5 2.39543 10.3954 1.5 11.5 1.5H19.5ZM4.5 20.5H11.5V19.5H4.5V20.5ZM9.5 6.31641C9.23474 6.56773 8.93811 6.85294 8.62695 7.16211C7.50356 8.27833 6.2445 9.64225 5.50586 10.7783C5.56113 12.34 6.01686 15.5295 6.46973 17.3408C6.483 17.3939 6.49064 17.4471 6.49512 17.5H10.3145C10.3306 17.4647 10.3497 17.4242 10.3701 17.3789C10.4553 17.1898 10.5753 16.9167 10.7139 16.5869C10.9922 15.9245 11.3396 15.0422 11.627 14.1436C11.9194 13.229 12.128 12.3637 12.165 11.7148C12.1833 11.3949 12.1545 11.1994 12.1221 11.0996C11.9581 11.0476 11.8355 11.0694 11.709 11.1289C11.5275 11.2143 11.3182 11.3941 11.1035 11.668C10.8952 11.9337 10.7255 12.2321 10.6055 12.4736C10.5467 12.5919 10.5023 12.6912 10.4736 12.7588C10.4593 12.7925 10.4495 12.8184 10.4434 12.834L10.4365 12.8496C10.2436 13.3665 9.66858 13.6297 9.15137 13.4375C8.63376 13.2449 8.36997 12.669 8.5625 12.1514L8.56348 12.1504V12.1484L8.56543 12.1445L8.56934 12.1328L8.58301 12.0967C8.59465 12.0673 8.61189 12.0268 8.63281 11.9775C8.67462 11.879 8.73541 11.743 8.81445 11.584C8.96559 11.2798 9.19504 10.8711 9.5 10.4746V6.31641ZM11.5 9.11426C11.9551 9.03034 12.449 9.06676 12.959 9.27832C13.5296 9.51508 13.853 9.97946 14.0127 10.4473C14.1639 10.8904 14.1878 11.3787 14.1621 11.8291C14.1104 12.7352 13.839 13.7937 13.5322 14.7529C13.2204 15.7279 12.8489 16.6693 12.5576 17.3623C12.5378 17.4095 12.5171 17.4551 12.498 17.5H19.5V3.5H11.5V9.11426ZM16.9199 4.91699C17.4721 4.91699 17.9198 5.36479 17.9199 5.91699C17.9199 6.46928 17.4722 6.91699 16.9199 6.91699H13.9199C13.3676 6.91699 12.9199 6.46928 12.9199 5.91699C12.92 5.36479 13.3677 4.91699 13.9199 4.91699H16.9199Z" fill="#8C8C8C"/>
<path fill-rule="evenodd" clip-rule="evenodd" d="M12.9004 5.90039C12.9004 5.34811 13.3481 4.90039 13.9004 4.90039H16.9004C17.4527 4.90039 17.9004 5.34811 17.9004 5.90039C17.9004 6.45268 17.4527 6.90039 16.9004 6.90039H13.9004C13.3481 6.90039 12.9004 6.45268 12.9004 5.90039Z" fill="#C77ABC"/>
</svg>
