<svg width="14" height="14" viewBox="0 0 14 14" fill="none" xmlns="http://www.w3.org/2000/svg">
<path fill-rule="evenodd" clip-rule="evenodd" d="M2.232 0.697432C3.81075 0.465699 5.40433 0.349612 7 0.350099C8.62 0.350099 10.2113 0.468766 11.768 0.696766C13.0867 0.891433 14 2.0461 14 3.34343V7.35677C14 8.6541 13.0867 9.80877 11.768 10.0034C10.4747 10.1928 9.15733 10.3068 7.82 10.3401C7.75352 10.3414 7.69005 10.3681 7.64267 10.4148L4.85333 13.2034C4.78341 13.2733 4.69436 13.3208 4.59742 13.3401C4.50049 13.3593 4.40003 13.3494 4.30872 13.3116C4.21741 13.2738 4.13935 13.2098 4.08441 13.1277C4.02946 13.0455 4.00009 12.9489 4 12.8501V10.2134C3.40886 10.1593 2.8193 10.0891 2.232 10.0028C0.913333 9.80943 0 8.65343 0 7.3561V3.3441C0 2.04677 0.913333 0.890766 2.232 0.697432Z" fill="#F7F8F8"/>
</svg>
