<?xml version="1.0" encoding="utf-8"?>
<!-- Generator: Adobe Illustrator 27.3.1, SVG Export Plug-In . SVG Version: 6.00 Build 0)  -->
<svg version="1.1" id="Layer_1" xmlns="http://www.w3.org/2000/svg" xmlns:xlink="http://www.w3.org/1999/xlink" x="0px" y="0px"
	 viewBox="0 0 46 46" style="enable-background:new 0 0 46 46;" xml:space="preserve">
<style type="text/css">
	.st0{fill:#C16BAB;}
</style>
<g transform="matrix(1,0,0,1,0,0)">
	<g>
		<g>
			<path class="st0" d="M34.46,0H11.5C5.18,0,0,5.18,0,11.54V34.5C0,40.82,5.18,46,11.5,46h22.96C40.82,46,46,40.82,46,34.46V11.54
				C46,5.18,40.82,0,34.46,0z M29.17,23h-4.34v14.24h-5.48V23h-2.92v-5.84h2.56v-2.48c0-2.34,1.17-6.02,6.1-6.02h4.49v4.86H26.4
				c-0.51,0-1.2,0.33-1.2,1.46v2.19h4.49L29.17,23z"/>
		</g>
	</g>
</g>
</svg>
