<svg width="18" height="20" viewBox="0 0 18 20" fill="none" xmlns="http://www.w3.org/2000/svg">
<path d="M14.1402 9.26961C14.0551 9.22832 13.9686 9.18858 13.8811 9.15053C13.7285 6.30606 12.1929 4.6776 9.61448 4.66094C9.60279 4.66086 9.59118 4.66086 9.5795 4.66086C8.03724 4.66086 6.75458 5.32718 5.9651 6.53966L7.38317 7.52425C7.97294 6.61857 8.89852 6.4255 9.58017 6.4255C9.58805 6.4255 9.59595 6.4255 9.60374 6.42557C10.4527 6.43105 11.0934 6.6809 11.508 7.16813C11.8098 7.52284 12.0116 8.01302 12.1115 8.63165C11.3588 8.50216 10.5447 8.46234 9.67449 8.51284C7.22301 8.65577 5.647 10.1029 5.75285 12.1137C5.80656 13.1337 6.3086 14.0113 7.16644 14.5845C7.89172 15.0691 8.82585 15.306 9.79668 15.2524C11.0788 15.1813 12.0846 14.6861 12.7862 13.7808C13.3191 13.0933 13.6562 12.2024 13.805 11.0798C14.416 11.453 14.8688 11.9442 15.1189 12.5346C15.5442 13.5382 15.569 15.1875 14.2394 16.5321C13.0745 17.71 11.6742 18.2196 9.55804 18.2353C7.2106 18.2177 5.43527 17.4557 4.281 15.9705C3.20012 14.5798 2.64152 12.571 2.62068 10C2.64152 7.42894 3.20012 5.42017 4.281 4.02945C5.43527 2.54426 7.21058 1.78229 9.55801 1.76464C11.9225 1.78243 13.7287 2.54806 14.9272 4.04042C15.5148 4.77225 15.9579 5.69258 16.25 6.76566L17.9117 6.3169C17.5577 4.99606 17.0006 3.85789 16.2426 2.91396C14.7061 1.0007 12.4591 0.0203285 9.5638 0H9.55221C6.66283 0.0202579 4.44093 1.00435 2.94827 2.92493C1.62 4.634 0.934837 7.01205 0.911815 9.99297L0.911743 10L0.911815 10.007C0.934837 12.9879 1.62 15.366 2.94827 17.0751C4.44093 18.9956 6.66283 19.9798 9.55221 20H9.5638C12.1326 19.982 13.9433 19.3013 15.435 17.7928C17.3866 15.8194 17.3278 13.3457 16.6846 11.8272C16.2231 10.7382 15.3433 9.85377 14.1402 9.26961ZM9.7049 13.4903C8.63046 13.5516 7.51423 13.0634 7.45919 12.0179C7.41839 11.2427 8.00425 10.3777 9.77084 10.2747C9.97315 10.2629 10.1717 10.2571 10.3667 10.2571C11.0084 10.2571 11.6087 10.3202 12.1544 10.4409C11.9509 13.0141 10.7568 13.4319 9.7049 13.4903Z" fill="black"/>
</svg>
