<svg width="14" height="14" viewBox="0 0 14 14" fill="none" xmlns="http://www.w3.org/2000/svg">
<path fill-rule="evenodd" clip-rule="evenodd" d="M0.5 6.6499C0.5 3.0599 3.41 0.149902 7 0.149902C10.59 0.149902 13.5 3.0599 13.5 6.6499C13.5 10.2399 10.59 13.1499 7 13.1499C3.41 13.1499 0.5 10.2399 0.5 6.6499ZM9.40667 5.44057C9.44667 5.38727 9.47561 5.32651 9.49179 5.26187C9.50797 5.19722 9.51107 5.13 9.5009 5.06414C9.49073 4.99828 9.4675 4.93512 9.43257 4.87837C9.39764 4.82162 9.35172 4.77242 9.2975 4.73367C9.24329 4.69492 9.18188 4.6674 9.11687 4.65272C9.05187 4.63805 8.98459 4.63651 8.91899 4.64821C8.85338 4.65991 8.79078 4.6846 8.73485 4.72084C8.67893 4.75708 8.63081 4.80414 8.59333 4.85924L6.436 7.87924L5.35333 6.79657C5.25855 6.70825 5.13319 6.66017 5.00365 6.66245C4.87412 6.66474 4.75053 6.71721 4.65892 6.80882C4.56731 6.90043 4.51484 7.02402 4.51255 7.15355C4.51026 7.28309 4.55835 7.40845 4.64667 7.50324L6.14667 9.00324C6.19799 9.05452 6.25987 9.09403 6.32799 9.119C6.39612 9.14397 6.46886 9.15382 6.54118 9.14786C6.61349 9.1419 6.68364 9.12027 6.74675 9.08447C6.80987 9.04867 6.86443 8.99957 6.90667 8.94057L9.40667 5.44057Z" fill="#F7F8F8"/>
</svg>
