<svg width="14" height="15" viewBox="0 0 14 15" fill="none" xmlns="http://www.w3.org/2000/svg">
<path fill-rule="evenodd" clip-rule="evenodd" d="M7.344 0.89691C7.25112 0.808851 7.128 0.759766 7 0.759766C6.87201 0.759766 6.74889 0.808851 6.656 0.89691C5.24085 2.24083 3.35609 2.9778 1.40467 2.95024C1.29836 2.94886 1.19438 2.9814 1.10782 3.04314C1.02126 3.10488 0.956642 3.19261 0.923338 3.29358C0.641986 4.15102 0.499083 5.04782 0.500004 5.95024C0.500004 9.91158 3.20934 13.2389 6.87534 14.1822C6.95711 14.2033 7.0429 14.2033 7.12467 14.1822C10.7907 13.2389 13.5 9.91158 13.5 5.95024C13.5 5.02358 13.3513 4.13024 13.0767 3.29358C13.0435 3.19248 12.9789 3.10461 12.8923 3.04275C12.8058 2.98088 12.7017 2.94824 12.5953 2.94958L12.5 2.95024C10.5027 2.95024 8.68867 2.17024 7.344 0.89691ZM9.40667 6.24091C9.44667 6.18761 9.47561 6.12685 9.4918 6.06221C9.50798 5.99757 9.51108 5.93034 9.50091 5.86448C9.49074 5.79862 9.4675 5.73546 9.43257 5.67871C9.39764 5.62196 9.35172 5.57276 9.29751 5.53401C9.24329 5.49526 9.18188 5.46774 9.11688 5.45306C9.05187 5.43839 8.98459 5.43685 8.91899 5.44855C8.85338 5.46025 8.79078 5.48495 8.73486 5.52118C8.67893 5.55742 8.63082 5.60448 8.59334 5.65958L6.436 8.67958L5.35334 7.59691C5.25855 7.50859 5.13319 7.46051 5.00366 7.46279C4.87412 7.46508 4.75053 7.51755 4.65892 7.60916C4.56732 7.70077 4.51484 7.82436 4.51255 7.9539C4.51027 8.08343 4.55835 8.20879 4.64667 8.30358L6.14667 9.80358C6.198 9.85486 6.25987 9.89437 6.328 9.91934C6.39612 9.94431 6.46887 9.95416 6.54118 9.9482C6.61349 9.94224 6.68364 9.92061 6.74676 9.88481C6.80987 9.84902 6.86444 9.79991 6.90667 9.74091L9.40667 6.24091Z" fill="#F7F8F8"/>
</svg>
