<svg width="14" height="14" viewBox="0 0 14 14" fill="none" xmlns="http://www.w3.org/2000/svg">
<path d="M2 3.5C2 2.77065 2.28973 2.07118 2.80546 1.55546C3.32118 1.03973 4.02065 0.75 4.75 0.75C5.47935 0.75 6.17882 1.03973 6.69454 1.55546C7.21027 2.07118 7.5 2.77065 7.5 3.5C7.5 4.22935 7.21027 4.92882 6.69454 5.44454C6.17882 5.96027 5.47935 6.25 4.75 6.25C4.02065 6.25 3.32118 5.96027 2.80546 5.44454C2.28973 4.92882 2 4.22935 2 3.5ZM8.5 5C8.5 4.70453 8.5582 4.41194 8.67127 4.13896C8.78434 3.86598 8.95008 3.61794 9.15901 3.40901C9.36794 3.20008 9.61598 3.03434 9.88896 2.92127C10.1619 2.8082 10.4545 2.75 10.75 2.75C11.0455 2.75 11.3381 2.8082 11.611 2.92127C11.884 3.03434 12.1321 3.20008 12.341 3.40901C12.5499 3.61794 12.7157 3.86598 12.8287 4.13896C12.9418 4.41194 13 4.70453 13 5C13 5.59674 12.7629 6.16903 12.341 6.59099C11.919 7.01295 11.3467 7.25 10.75 7.25C10.1533 7.25 9.58097 7.01295 9.15901 6.59099C8.73705 6.16903 8.5 5.59674 8.5 5ZM0 12C1.87722e-08 10.7402 0.500445 9.53204 1.39124 8.64124C2.28204 7.75045 3.49022 7.25 4.75 7.25C6.00978 7.25 7.21796 7.75045 8.10876 8.64124C8.99955 9.53204 9.5 10.7402 9.5 12V12.002L9.49933 12.0813C9.49792 12.1661 9.47497 12.2491 9.43263 12.3226C9.3903 12.3961 9.32998 12.4576 9.25733 12.5013C7.8968 13.3206 6.33818 13.7524 4.75 13.75C3.102 13.75 1.55933 13.294 0.243333 12.5013C0.170567 12.4577 0.110111 12.3962 0.0676577 12.3227C0.0252042 12.2493 0.00215023 12.1662 0.000666698 12.0813L0 12ZM10.5 12.002L10.4993 12.098C10.4956 12.3202 10.4425 12.5388 10.344 12.738C11.5078 12.8098 12.6703 12.5777 13.7173 12.0647C13.7983 12.0251 13.8671 11.9644 13.9164 11.8889C13.9657 11.8134 13.9936 11.7261 13.9973 11.636C14.0209 11.0768 13.8996 10.5211 13.6453 10.0225C13.391 9.52395 13.0122 9.09953 12.5457 8.79033C12.0792 8.48114 11.5407 8.29766 10.9825 8.25765C10.4243 8.21765 9.86516 8.32248 9.35933 8.562C10.1015 9.55439 10.5015 10.7608 10.4993 12L10.5 12.002Z" fill="#F7F8F8"/>
</svg>
