<svg width="14" height="14" viewBox="0 0 14 14" fill="none" xmlns="http://www.w3.org/2000/svg">
<path fill-rule="evenodd" clip-rule="evenodd" d="M6.93582 0.624512C5.74234 0.624512 4.59775 1.09862 3.75384 1.94253C2.90992 2.78645 2.43582 3.93104 2.43582 5.12451V5.62451C2.43787 6.98397 1.93435 8.29563 1.02315 9.30451C0.968429 9.36522 0.929423 9.43841 0.909545 9.51768C0.889668 9.59695 0.889525 9.67989 0.90913 9.75923C0.928735 9.83857 0.96749 9.9119 1.022 9.97279C1.07651 10.0337 1.14512 10.0803 1.22182 10.1085C2.25115 10.4885 3.32848 10.7685 4.44248 10.9372C4.4174 11.2799 4.46326 11.6242 4.5772 11.9484C4.69113 12.2727 4.8707 12.5699 5.10468 12.8217C5.33866 13.0734 5.62203 13.2742 5.93709 13.4115C6.25215 13.5488 6.59214 13.6196 6.93582 13.6196C7.27949 13.6196 7.61948 13.5488 7.93454 13.4115C8.2496 13.2742 8.53297 13.0734 8.76695 12.8217C9.00094 12.5699 9.1805 12.2727 9.29444 11.9484C9.40837 11.6242 9.45423 11.2799 9.42915 10.9372C10.5278 10.7706 11.6067 10.4927 12.6491 10.1078C12.7257 10.0796 12.7942 10.033 12.8486 9.97215C12.9031 9.91131 12.9418 9.83807 12.9614 9.75882C12.981 9.67958 12.9809 9.59675 12.9611 9.51755C12.9413 9.43836 12.9024 9.36522 12.8478 9.30451C11.9369 8.29553 11.4336 6.98388 11.4358 5.62451V5.12451C11.4358 3.93104 10.9617 2.78645 10.1178 1.94253C9.27388 1.09862 8.12929 0.624512 6.93582 0.624512ZM5.43582 11.1245C5.43582 11.1018 5.43582 11.0798 5.43715 11.0578C6.43424 11.1477 7.43739 11.1477 8.43448 11.0578L8.43582 11.1245C8.43582 11.5223 8.27778 11.9039 7.99648 12.1852C7.71517 12.4665 7.33364 12.6245 6.93582 12.6245C6.53799 12.6245 6.15646 12.4665 5.87516 12.1852C5.59385 11.9039 5.43582 11.5223 5.43582 11.1245Z" fill="#F7F8F8"/>
<path d="M2.83865 1.45806C2.9221 1.3586 2.9636 1.23058 2.95436 1.10107C2.94512 0.97157 2.88586 0.850739 2.78913 0.764139C2.6924 0.677538 2.56577 0.631961 2.43604 0.637047C2.30631 0.642133 2.18364 0.697484 2.09398 0.791391C1.27496 1.70489 0.732138 2.83215 0.528649 4.04206C0.509826 4.17143 0.542422 4.30303 0.619452 4.40866C0.696483 4.51428 0.81182 4.58554 0.940753 4.60716C1.06969 4.62878 1.20196 4.59904 1.30923 4.52432C1.4165 4.44959 1.49024 4.33583 1.51465 4.20739C1.68674 3.18406 2.14588 2.23064 2.83865 1.45806ZM11.7833 0.791391C11.7397 0.742014 11.6867 0.701754 11.6274 0.672927C11.5681 0.644099 11.5038 0.627273 11.438 0.623416C11.3722 0.619558 11.3063 0.628746 11.244 0.650451C11.1818 0.672155 11.1245 0.705948 11.0754 0.749886C11.0263 0.793823 10.9863 0.847039 10.9578 0.906472C10.9293 0.965905 10.9129 1.03038 10.9094 1.0962C10.9059 1.16201 10.9155 1.22786 10.9376 1.28996C10.9596 1.35206 10.9938 1.40919 11.038 1.45806C11.731 2.23058 12.1903 3.184 12.3626 4.20739C12.3846 4.33823 12.4576 4.455 12.5656 4.53202C12.6191 4.57015 12.6796 4.59738 12.7436 4.61214C12.8076 4.6269 12.8739 4.62891 12.9386 4.61806C13.0034 4.6072 13.0654 4.58369 13.1211 4.54887C13.1768 4.51405 13.2251 4.4686 13.2633 4.41511C13.3014 4.36162 13.3286 4.30115 13.3434 4.23714C13.3582 4.17313 13.3602 4.10684 13.3493 4.04206C13.1454 2.83202 12.6028 1.70475 11.7833 0.791391Z" fill="#F7F8F8"/>
</svg>
