<svg width="14" height="15" viewBox="0 0 14 15" fill="none" xmlns="http://www.w3.org/2000/svg">
<path fill-rule="evenodd" clip-rule="evenodd" d="M4.99964 2.0498C5.10828 2.04983 5.21396 2.08523 5.30069 2.15067C5.38741 2.21611 5.45047 2.30801 5.48031 2.41247L6.02231 4.3098C6.13901 4.71842 6.35794 5.09054 6.65842 5.39102C6.95891 5.69151 7.33103 5.91044 7.73964 6.02714L9.63697 6.56914C9.74137 6.59904 9.83319 6.66213 9.89856 6.74885C9.96392 6.83557 9.99928 6.94121 9.99928 7.0498C9.99928 7.1584 9.96392 7.26404 9.89856 7.35076C9.83319 7.43748 9.74137 7.50057 9.63697 7.53047L7.73964 8.07247C7.33103 8.18917 6.95891 8.4081 6.65842 8.70859C6.35794 9.00907 6.13901 9.38119 6.02231 9.78981L5.48031 11.6871C5.4504 11.7915 5.38732 11.8834 5.3006 11.9487C5.21388 12.0141 5.10824 12.0494 4.99964 12.0494C4.89104 12.0494 4.7854 12.0141 4.69868 11.9487C4.61196 11.8834 4.54888 11.7915 4.51897 11.6871L3.97697 9.78981C3.86027 9.38119 3.64134 9.00907 3.34086 8.70859C3.04037 8.4081 2.66825 8.18917 2.25964 8.07247L0.362306 7.53047C0.25791 7.50057 0.166087 7.43748 0.100721 7.35076C0.0353556 7.26404 0 7.1584 0 7.0498C0 6.94121 0.0353556 6.83557 0.100721 6.74885C0.166087 6.66213 0.25791 6.59904 0.362306 6.56914L2.25964 6.02714C2.66825 5.91044 3.04037 5.69151 3.34086 5.39102C3.64134 5.09054 3.86027 4.71842 3.97697 4.3098L4.51897 2.41247C4.54881 2.30801 4.61187 2.21611 4.69859 2.15067C4.78532 2.08523 4.891 2.04983 4.99964 2.0498ZM10.9996 0.0498048C11.1112 0.0497426 11.2195 0.0869806 11.3075 0.155596C11.3954 0.22421 11.4579 0.320262 11.485 0.428472L11.657 1.11914C11.8143 1.7458 12.3036 2.23514 12.9303 2.39247L13.621 2.56447C13.7294 2.59133 13.8257 2.65371 13.8945 2.74167C13.9634 2.82963 14.0008 2.93811 14.0008 3.0498C14.0008 3.1615 13.9634 3.26998 13.8945 3.35794C13.8257 3.4459 13.7294 3.50828 13.621 3.53514L12.9303 3.70714C12.3036 3.86447 11.8143 4.3538 11.657 4.98047L11.485 5.67114C11.4581 5.77956 11.3957 5.87586 11.3078 5.94469C11.2198 6.01353 11.1113 6.05092 10.9996 6.05092C10.8879 6.05092 10.7795 6.01353 10.6915 5.94469C10.6035 5.87586 10.5412 5.77956 10.5143 5.67114L10.3423 4.98047C10.2654 4.67276 10.1063 4.39174 9.88199 4.16745C9.65771 3.94317 9.37669 3.78406 9.06897 3.70714L8.37831 3.53514C8.26989 3.50828 8.17359 3.4459 8.10475 3.35794C8.03592 3.26998 7.99852 3.1615 7.99852 3.0498C7.99852 2.93811 8.03592 2.82963 8.10475 2.74167C8.17359 2.65371 8.26989 2.59133 8.37831 2.56447L9.06897 2.39247C9.37669 2.31555 9.65771 2.15644 9.88199 1.93215C10.1063 1.70787 10.2654 1.42685 10.3423 1.11914L10.5143 0.428472C10.5414 0.320262 10.6038 0.22421 10.6918 0.155596C10.7797 0.0869806 10.8881 0.0497426 10.9996 0.0498048ZM9.99964 9.0498C10.1047 9.04974 10.207 9.08275 10.2922 9.14413C10.3774 9.20552 10.4411 9.29217 10.4743 9.3918L10.737 10.1805C10.837 10.4785 11.0703 10.7131 11.369 10.8125L12.1576 11.0758C12.257 11.1091 12.3433 11.1728 12.4044 11.2579C12.4656 11.3429 12.4985 11.445 12.4985 11.5498C12.4985 11.6546 12.4656 11.7567 12.4044 11.8417C12.3433 11.9268 12.257 11.9905 12.1576 12.0238L11.369 12.2871C11.071 12.3871 10.8363 12.6205 10.737 12.9191L10.4736 13.7078C10.4403 13.8071 10.3766 13.8934 10.2916 13.9546C10.2065 14.0158 10.1044 14.0487 9.99964 14.0487C9.89488 14.0487 9.79277 14.0158 9.70772 13.9546C9.62267 13.8934 9.55898 13.8071 9.52564 13.7078L9.26231 12.9191C9.2132 12.772 9.13053 12.6383 9.02084 12.5286C8.91115 12.4189 8.77745 12.3362 8.63031 12.2871L7.84164 12.0238C7.74233 11.9905 7.656 11.9268 7.59484 11.8417C7.53368 11.7567 7.50077 11.6546 7.50077 11.5498C7.50077 11.445 7.53368 11.3429 7.59484 11.2579C7.656 11.1728 7.74233 11.1091 7.84164 11.0758L8.63031 10.8125C8.92831 10.7125 9.16297 10.4791 9.26231 10.1805L9.52564 9.3918C9.55879 9.29228 9.6224 9.20571 9.70746 9.14433C9.79253 9.08295 9.89474 9.04988 9.99964 9.0498Z" fill="#F7F8F8"/>
</svg>
