<svg width="48" height="46" viewBox="0 0 48 46" fill="none" xmlns="http://www.w3.org/2000/svg">
<path d="M44.3984 33.8623C37.0343 30.426 35.8606 25.1205 35.8083 24.7269C35.7452 24.2503 35.6735 23.8755 36.219 23.3906C36.7451 22.9221 39.0791 21.5296 39.7267 21.0939C40.7971 20.3724 41.2686 19.6521 40.9211 18.7667C40.6781 18.1542 40.0864 17.9234 39.4631 17.9234C39.2665 17.924 39.0705 17.9452 38.8786 17.9867C37.7025 18.2326 36.5604 18.8007 35.8995 18.9541C35.82 18.9738 35.7385 18.9844 35.6565 18.9857C35.3041 18.9857 35.1705 18.8346 35.2045 18.4259C35.2871 17.1867 35.4621 14.7682 35.2592 12.509C34.9809 9.40061 33.9409 7.86048 32.7077 6.49837C32.1111 5.83782 29.3409 3 23.9949 3C18.6489 3 15.8824 5.83782 15.2894 6.49018C14.0526 7.85228 13.0137 9.39241 12.7379 12.5008C12.535 14.76 12.7173 17.1774 12.7926 18.4177C12.8169 18.8065 12.693 18.9775 12.3406 18.9775C12.2586 18.9762 12.1771 18.9655 12.0976 18.9459C11.4379 18.7925 10.2958 18.2244 9.11967 17.9785C8.92782 17.937 8.73186 17.9158 8.53525 17.9152C7.90953 17.9152 7.32026 18.1495 7.07726 18.7585C6.72977 19.6439 7.19875 20.3642 8.27281 21.0857C8.92041 21.5214 11.2544 22.9127 11.7805 23.3824C12.3248 23.8673 12.2544 24.2421 12.1912 24.7187C12.1389 25.1181 10.964 30.4237 3.60114 33.8541C3.16982 34.0555 2.43596 34.4819 3.72993 35.1705C5.76141 36.2527 7.11371 36.1368 8.16468 36.7891C9.05649 37.3431 8.52918 38.5377 9.17799 38.9687C9.97503 39.4993 12.3309 38.9312 15.3745 39.8998C17.926 40.7103 19.4763 43 24.001 43C28.5256 43 30.1209 40.6998 32.6275 39.8998C35.665 38.9312 38.0257 39.4993 38.824 38.9687C39.4716 38.5377 38.9455 37.3431 39.8373 36.7891C40.8883 36.1368 42.2393 36.2527 44.272 35.1705C45.5636 34.4901 44.8297 34.0637 44.3984 33.8623Z" fill="#F8A8F9"/>
<path d="M47.8284 33.6435C47.4948 32.7605 46.8596 32.2879 46.136 31.8965C45.9999 31.819 45.8748 31.7569 45.7681 31.7092C45.5522 31.6006 45.3315 31.4956 45.112 31.3846C42.8566 30.2212 41.0956 28.7534 39.8741 27.0136C39.5272 26.5238 39.2263 26.0046 38.9751 25.4623C38.8709 25.1724 38.8758 25.0077 38.9506 24.8574C39.0248 24.7415 39.1229 24.642 39.2388 24.565C39.6263 24.3156 40.0261 24.0626 40.2972 23.892C40.7804 23.5877 41.163 23.3467 41.4095 23.176C42.3354 22.546 42.983 21.8765 43.3877 21.1283C43.67 20.6114 43.8347 20.0414 43.8705 19.457C43.9062 18.8727 43.8122 18.2877 43.5949 17.7418C42.9817 16.1714 41.4573 15.1965 39.6104 15.1965C39.2208 15.1961 38.8323 15.2361 38.4515 15.3158C38.3497 15.3373 38.2479 15.36 38.1485 15.385C38.1657 14.3111 38.1412 13.1775 38.0431 12.0617C37.6948 8.13941 36.2832 6.08337 34.8116 4.4438C33.8691 3.41637 32.7591 2.54714 31.5261 1.87107C29.2928 0.630055 26.7603 0 23.9998 0C21.2392 0 18.719 0.630055 16.4833 1.87107C15.2472 2.54735 14.1349 3.41832 13.1916 4.44857C11.72 6.08815 10.3084 8.14776 9.96012 12.0665C9.86201 13.1822 9.83748 14.3218 9.85342 15.3898C9.75408 15.3648 9.65352 15.3421 9.55173 15.3206C9.17087 15.2409 8.78237 15.2009 8.3928 15.2013C6.54464 15.2013 5.01779 16.1762 4.40705 17.7466C4.18875 18.2927 4.09383 18.8781 4.12875 19.4631C4.16366 20.048 4.3276 20.6188 4.6094 21.1367C5.01534 21.8849 5.66287 22.5543 6.58879 23.1844C6.83406 23.3514 7.21792 23.5925 7.70112 23.9003C7.96234 24.065 8.34374 24.3061 8.71779 24.5471C8.84866 24.6294 8.95989 24.7381 9.04401 24.8657C9.1225 25.022 9.12495 25.1903 9.00844 25.5005C8.76064 26.0314 8.46473 26.5398 8.12422 27.0196C6.92972 28.72 5.22014 30.1615 3.03718 31.3154C1.8807 31.9121 0.678844 32.3106 0.171121 33.6531C-0.21151 34.6662 0.0386716 35.8189 1.01119 36.7902C1.36812 37.1528 1.7821 37.4577 2.23758 37.6935C3.18532 38.2003 4.19309 38.5926 5.23854 38.8618C5.45428 38.9159 5.6591 39.0051 5.84437 39.1255C6.1988 39.4274 6.14852 39.882 6.62067 40.5479C6.85769 40.892 7.15885 41.1899 7.50857 41.4261C8.49949 42.092 9.61305 42.1338 10.7928 42.1779C11.8586 42.2173 13.0665 42.2626 14.4462 42.7053C15.0177 42.8891 15.6113 43.2447 16.2993 43.66C17.9512 44.648 20.2127 46 23.9973 46C27.7819 46 30.0593 44.6408 31.7235 43.6492C32.4066 43.2411 32.9965 42.8891 33.5521 42.7101C34.9317 42.2662 36.1397 42.2221 37.2055 42.1827C38.3852 42.1385 39.4988 42.0968 40.4897 41.4309C40.9039 41.1499 41.249 40.7831 41.5003 40.3569C41.84 39.7949 41.8314 39.4023 42.1502 39.1279C42.3241 39.0132 42.5164 38.9277 42.7193 38.8749C43.779 38.6049 44.8005 38.2089 45.7607 37.6959C46.2446 37.4433 46.6802 37.1115 47.0484 36.715L47.0607 36.7007C47.9731 35.7509 48.2024 34.6316 47.8284 33.6435ZM44.4644 35.4024C42.4127 36.505 41.0489 36.3869 39.9881 37.0515C39.0867 37.616 39.6202 38.8331 38.9653 39.2723C38.1608 39.8128 35.7829 39.2341 32.7108 40.2209C30.1771 41.0359 28.5607 43.3795 24.0034 43.3795C19.4462 43.3795 17.8678 41.0407 15.2924 40.2149C12.2265 39.2281 9.84361 39.8068 9.03788 39.2663C8.38421 38.8272 8.91524 37.61 8.01507 37.0456C6.95302 36.3809 5.58928 36.4991 3.53877 35.4024C2.23267 34.7008 2.97341 34.2664 3.40877 34.0612C10.8407 30.5601 12.0266 25.1545 12.0793 24.7535C12.1431 24.2679 12.2142 23.886 11.6648 23.392C11.1338 22.9147 8.77788 21.4959 8.12422 21.052C7.04255 20.3169 6.56671 19.583 6.91746 18.6809C7.16273 18.0568 7.76121 17.8217 8.38912 17.8217C8.58757 17.8223 8.78536 17.8439 8.97901 17.8862C10.1661 18.1368 11.3189 18.7155 11.9849 18.8718C12.0651 18.8919 12.1474 18.9027 12.2302 18.904C12.5858 18.904 12.7109 18.7298 12.6864 18.3337C12.6103 17.07 12.4264 14.607 12.6312 12.3052C12.912 9.13819 13.9606 7.56902 15.2066 6.18122C15.8051 5.51418 18.6172 2.62284 23.9949 2.62284C29.3725 2.62284 32.192 5.50224 32.7905 6.1669C34.0377 7.5547 35.0875 9.12387 35.3659 12.2909C35.5707 14.5927 35.3941 17.0568 35.3107 18.3193C35.2825 18.7358 35.4113 18.8897 35.7669 18.8897C35.8497 18.8884 35.932 18.8776 36.0122 18.8575C36.6793 18.7012 37.8321 18.1224 39.0193 17.8719C39.2129 17.8296 39.4107 17.808 39.6092 17.8074C40.2408 17.8074 40.8356 18.0461 41.0808 18.6666C41.4316 19.5687 40.9582 20.3026 39.8753 21.0376C39.2216 21.4815 36.8657 22.8992 36.3347 23.3777C35.7841 23.8717 35.8564 24.2535 35.9202 24.7392C35.9729 25.1461 37.1576 30.5517 44.5907 34.0469C45.0298 34.2604 45.7705 34.6948 44.4644 35.4024Z" fill="#FF00DB" fill-opacity="0.35"/>
</svg>
