<svg width="12" height="15" viewBox="0 0 12 15" fill="none" xmlns="http://www.w3.org/2000/svg">
<path fill-rule="evenodd" clip-rule="evenodd" d="M2.99941 3.4502C2.99941 2.65455 3.31548 1.89148 3.87809 1.32887C4.4407 0.766266 5.20376 0.450195 5.99941 0.450195C6.79506 0.450195 7.55812 0.766266 8.12073 1.32887C8.68334 1.89148 8.99941 2.65455 8.99941 3.4502C8.99941 4.24584 8.68334 5.00891 8.12073 5.57152C7.55812 6.13412 6.79506 6.4502 5.99941 6.4502C5.20376 6.4502 4.4407 6.13412 3.87809 5.57152C3.31548 5.00891 2.99941 4.24584 2.99941 3.4502ZM0.50008 12.8535C0.52256 11.4098 1.11184 10.0329 2.14072 9.01992C3.1696 8.00693 4.55555 7.43916 5.99941 7.43916C7.44327 7.43916 8.82923 8.00693 9.85811 9.01992C10.887 10.0329 11.4763 11.4098 11.4987 12.8535C11.5005 12.9507 11.4738 13.0463 11.4221 13.1286C11.3704 13.2109 11.2958 13.2763 11.2074 13.3169C9.57353 14.066 7.79685 14.4526 5.99941 14.4502C4.14208 14.4502 2.37741 14.0449 0.791413 13.3169C0.70307 13.2763 0.628463 13.2109 0.576721 13.1286C0.524979 13.0463 0.498345 12.9507 0.50008 12.8535Z" fill="#F7F8F8"/>
</svg>
