<svg width="48" height="48" viewBox="0 0 48 48" fill="none" xmlns="http://www.w3.org/2000/svg">
<rect width="48" height="48" rx="12" fill="#260722"/>
<path d="M34 19.81V24.5H29.92C29.8 24.49 29.54 24.34 29.48 24.23L28.44 22.26C28.03 21.48 27.32 21.04 26.56 21.08C25.8 21.12 25.15 21.63 24.82 22.46L23.44 25.92L23.24 25.4C22.75 24.13 21.35 23.17 19.97 23.17L14 23.2V19.81C14 16.17 16.17 14 19.81 14H28.19C31.83 14 34 16.17 34 19.81Z" fill="#C52BAF"/>
<path d="M34 28.1887V25.9987H29.92C29.25 25.9987 28.46 25.5187 28.15 24.9287L27.11 22.9587C26.83 22.4287 26.43 22.4587 26.21 23.0087L23.91 28.8187C23.66 29.4687 23.24 29.4687 22.98 28.8187L21.84 25.9387C21.57 25.2387 20.73 24.6687 19.98 24.6687L14 24.6987V28.1887C14 31.7687 16.1 33.9287 19.63 33.9887C19.74 33.9987 19.86 33.9987 19.97 33.9987H27.97C28.12 33.9987 28.27 33.9987 28.41 33.9887C31.92 33.9087 34 31.7587 34 28.1887Z" fill="#C52BAF"/>
<path d="M14 24.6992V28.0092C13.98 27.6892 13.97 27.3492 13.97 26.9992V24.6992H14Z" fill="#C52BAF"/>
</svg>
