<svg width="15" height="12" viewBox="0 0 15 12" fill="none" xmlns="http://www.w3.org/2000/svg">
<path d="M0.523438 3.77979V9.49979C0.523438 10.0302 0.734151 10.5389 1.10922 10.914C1.4843 11.2891 1.993 11.4998 2.52344 11.4998H12.5234C13.0539 11.4998 13.5626 11.2891 13.9377 10.914C14.3127 10.5389 14.5234 10.0302 14.5234 9.49979V3.77979L8.57144 7.44179C8.25627 7.63569 7.89348 7.73835 7.52344 7.73835C7.1534 7.73835 6.79061 7.63569 6.47544 7.44179L0.523438 3.77979Z" fill="#F7F8F8"/>
<path d="M14.5234 2.60533V2.5C14.5234 1.96957 14.3127 1.46086 13.9377 1.08579C13.5626 0.710714 13.0539 0.5 12.5234 0.5H2.52344C1.993 0.5 1.4843 0.710714 1.10922 1.08579C0.734151 1.46086 0.523438 1.96957 0.523438 2.5V2.60533L6.99944 6.59067C7.15702 6.68762 7.33842 6.73895 7.52344 6.73895C7.70846 6.73895 7.88985 6.68762 8.04744 6.59067L14.5234 2.60533Z" fill="#F7F8F8"/>
</svg>
