<svg width="55" height="55" viewBox="0 0 55 55" fill="none" xmlns="http://www.w3.org/2000/svg">
<path d="M27.1566 54.3133C42.1548 54.3133 54.3133 42.1548 54.3133 27.1566C54.3133 12.1584 42.1548 0 27.1566 0C12.1584 0 0 12.1584 0 27.1566C0 42.1548 12.1584 54.3133 27.1566 54.3133Z" fill="url(#paint0_radial_2078_3453)"/>
<path d="M25.9085 20.9816V19.6936C25.4403 19.6225 24.9674 19.5839 24.4934 19.5782C22.2621 19.5731 20.0875 20.2487 18.2868 21.5064C16.486 22.7641 15.1534 24.5381 14.4833 26.5697C13.8131 28.6013 13.8406 30.7841 14.5616 32.7997C15.2826 34.8153 16.6594 36.5583 18.4912 37.7745C17.1138 36.3661 16.1928 34.6072 15.8393 32.7103C15.4859 30.8133 15.7151 28.8592 16.4992 27.0838C17.2834 25.3084 18.5891 23.7876 20.2587 22.7048C21.9283 21.622 23.8904 21.0236 25.9085 20.9816V20.9816Z" fill="#F1ACED" fill-opacity="0.8"/>
<path d="M26.1625 35.5333C27.3949 35.5319 28.5792 35.0768 29.4689 34.2627C30.3586 33.4487 30.8851 32.3385 30.9388 31.1632V9.37894H35.1092C35.0241 8.92386 34.9832 8.46226 34.987 8H29.2845V29.7621C29.2386 30.9429 28.7154 32.0609 27.8246 32.8814C26.9339 33.7019 25.7448 34.1612 24.5069 34.1629C23.7384 34.1565 22.9824 33.9764 22.3008 33.6374C22.7425 34.2215 23.3225 34.6977 23.9936 35.0271C24.6647 35.3566 25.4078 35.53 26.1625 35.5333V35.5333Z" fill="#F1ACED" fill-opacity="0.8"/>
<path d="M42.8952 16.7698V15.559C41.3607 15.559 39.8603 15.1268 38.582 14.3164C39.7022 15.5604 41.2163 16.4224 42.8952 16.7722V16.7698Z" fill="#F1ACED" fill-opacity="0.8"/>
<path d="M38.5839 14.3164C37.325 12.9475 36.6309 11.1882 36.6312 9.3667H35.1094C35.3061 10.3735 35.7154 11.3316 36.3126 12.1826C36.9097 13.0335 37.682 13.7595 38.5826 14.3164H38.5839Z" fill="#F1ACED"/>
<path d="M24.4968 25.025C23.4291 25.0307 22.3941 25.3768 21.5561 26.0082C20.7181 26.6397 20.1252 27.5204 19.8715 28.5103C19.6178 29.5003 19.718 30.5427 20.1561 31.4721C20.5941 32.4015 21.345 33.1645 22.2894 33.64C21.7729 32.959 21.4637 32.155 21.3958 31.3169C21.328 30.4787 21.5042 29.6389 21.9049 28.8903C22.3057 28.1417 22.9155 27.5135 23.6668 27.0749C24.4182 26.6363 25.2819 26.4046 26.1626 26.4052C26.6424 26.41 27.119 26.4807 27.5776 26.6151V21.0761C27.1092 21.0092 26.6363 20.9743 26.1626 20.9717H25.9054V25.1834C25.4463 25.066 24.9719 25.0126 24.4968 25.025V25.025Z" fill="#F1ACED"/>
<path d="M42.8947 16.7695V20.9812C40.0534 20.9753 37.2861 20.1162 34.9848 18.5254V29.5925C34.979 32.2447 33.8712 34.7863 31.9045 36.6597C29.9378 38.5331 27.2728 39.5852 24.4944 39.5852C22.3455 39.5892 20.2482 38.9564 18.4922 37.7741C19.9241 39.2443 21.7867 40.2689 23.8373 40.7143C25.888 41.1597 28.0316 41.0052 29.989 40.2711C31.9464 39.537 33.6268 38.2572 34.8113 36.5985C35.9959 34.9397 36.6296 32.9789 36.63 30.9715V19.9388C38.9392 21.519 41.7103 22.3665 44.5515 22.3614V16.9378C43.9946 16.9366 43.4394 16.8802 42.8947 16.7695V16.7695Z" fill="#F1ACED"/>
<path d="M34.7168 9.8667C34.9503 10.795 35.3545 11.677 35.9111 12.4702C36.5347 13.3587 37.3369 14.1169 38.2686 14.7036C39.3735 15.8913 40.8172 16.7351 42.415 17.1362V20.4409C39.8474 20.3538 37.3609 19.5465 35.2705 18.1157L34.4883 17.5796V29.5952C34.4818 32.1063 33.4326 34.5173 31.5625 36.2983C29.6912 38.0804 27.1509 39.0855 24.498 39.0854H24.1064C22.2177 39.051 20.3782 38.5009 18.8057 37.5005C17.4994 36.1699 16.624 34.5115 16.2822 32.7231C15.9372 30.9176 16.1492 29.0546 16.8945 27.3608C17.64 25.6668 18.8877 24.2125 20.4883 23.1782C21.9486 22.2347 23.6446 21.6801 25.4014 21.5659V24.6304C25.1008 24.5788 24.7962 24.5498 24.4902 24.5474H24.4844C23.3112 24.5533 22.1708 24.9331 21.2451 25.6304C20.3191 26.328 19.6595 27.3047 19.377 28.4077C19.0944 29.5111 19.2067 30.6726 19.6943 31.7065C20.1657 32.7057 20.9599 33.5266 21.9531 34.0532C22.5953 34.8602 23.4741 35.4628 24.4746 35.7847C25.5118 36.1182 26.6312 36.1354 27.6787 35.8335C28.7264 35.5315 29.6538 34.9242 30.3291 34.0923C31.0047 33.26 31.3941 32.2441 31.4395 31.186L31.4404 31.1753V9.8667H34.7168Z" fill="white" stroke="#F1ACED"/>
<defs>
<radialGradient id="paint0_radial_2078_3453" cx="0" cy="0" r="1" gradientUnits="userSpaceOnUse" gradientTransform="translate(27.1566) rotate(90) scale(54.3133)">
<stop stop-color="#F1ACED"/>
<stop offset="1" stop-color="#F33BC0"/>
</radialGradient>
</defs>
</svg>
