<svg width="31" height="34" viewBox="0 0 31 34" fill="none" xmlns="http://www.w3.org/2000/svg">
<path d="M12.2284 13.5781V12.29C11.7603 12.2189 11.2874 12.1803 10.8134 12.1746C8.58212 12.1695 6.40749 12.8451 4.60675 14.1028C2.80601 15.3605 1.47338 17.1346 0.803253 19.1661C0.133123 21.1977 0.160556 23.3805 0.881551 25.3961C1.60255 27.4118 2.97938 29.1548 4.81121 30.3709C3.43379 28.9625 2.51278 27.2037 2.15931 25.3067C1.80585 23.4097 2.03503 21.4557 2.81921 19.6803C3.60338 17.9049 4.90904 16.384 6.57864 15.3012C8.24824 14.2184 10.2104 13.62 12.2284 13.5781Z" fill="#C52BAF" fill-opacity="0.8"/>
<path d="M12.4821 28.13C13.7145 28.1286 14.8989 27.6734 15.7886 26.8594C16.6783 26.0454 17.2048 24.9351 17.2584 23.7599V1.97562H21.4288C21.3438 1.52054 21.3028 1.05893 21.3066 0.59668H15.6041V22.3588C15.5582 23.5396 15.035 24.6576 14.1443 25.4781C13.2535 26.2986 12.0644 26.7579 10.8266 26.7596C10.058 26.7532 9.302 26.5731 8.62042 26.2341C9.0621 26.8182 9.64212 27.2944 10.3132 27.6238C10.9843 27.9533 11.7275 28.1267 12.4821 28.13Z" fill="#C52BAF" fill-opacity="0.8"/>
<path d="M29.2169 9.36619V8.15548C27.6824 8.15545 26.182 7.72319 24.9037 6.91284C26.0239 8.15682 27.5379 9.01887 29.2169 9.36865V9.36619Z" fill="#C52BAF" fill-opacity="0.8"/>
<path d="M24.9033 6.91306C23.6444 5.54419 22.9504 3.78486 22.9506 1.96338H21.4288C21.6255 2.97023 22.0349 3.92831 22.632 4.77927C23.2291 5.63022 24.0015 6.35623 24.902 6.91306H24.9033Z" fill="#F33BC0"/>
<path d="M10.8168 17.6214C9.74919 17.6271 8.71416 17.9732 7.87615 18.6047C7.03814 19.2361 6.44521 20.1168 6.19156 21.1067C5.9379 22.0967 6.03806 23.1392 6.47613 24.0686C6.9142 24.998 7.66505 25.761 8.60942 26.2364C8.09295 25.5554 7.78371 24.7515 7.71587 23.9133C7.64803 23.0751 7.82423 22.2354 8.225 21.4868C8.62577 20.7382 9.23551 20.1099 9.98688 19.6713C10.7382 19.2328 11.602 19.001 12.4827 19.0016C12.9625 19.0064 13.439 19.0771 13.8977 19.2116V13.6725C13.4292 13.6056 12.9564 13.5708 12.4827 13.5681H12.2254V17.7798C11.7664 17.6624 11.2919 17.6091 10.8168 17.6214Z" fill="#F33BC0"/>
<path d="M29.2164 9.36621V13.5779C26.3751 13.572 23.6078 12.7128 21.3065 11.1221V22.1892C21.3007 24.8413 20.193 27.383 18.2263 29.2564C16.2596 31.1298 13.5946 32.1819 10.8162 32.1819C8.66724 32.1859 6.57 31.553 4.81395 30.3707C6.24587 31.841 8.10846 32.8656 10.1591 33.3109C12.2097 33.7563 14.3534 33.6019 16.3107 32.8678C18.2681 32.1337 19.9485 30.8539 21.1331 29.1952C22.3176 27.5364 22.9514 25.5756 22.9518 23.5681V12.5354C25.261 14.1157 28.032 14.9632 30.8733 14.9581V9.53443C30.3164 9.53327 29.7611 9.47689 29.2164 9.36621Z" fill="#F33BC0"/>
<path d="M21.3071 22.1919V11.1248C23.6175 12.7062 26.3907 13.5533 29.2337 13.5462V9.33449C27.5552 8.99636 26.0373 8.14651 24.9089 6.91306C24.0084 6.35623 23.236 5.63022 22.6389 4.77927C22.0418 3.92831 21.6324 2.97023 21.4357 1.96338H17.2588V23.7611C17.2182 24.7099 16.869 25.623 16.2597 26.3736C15.6505 27.1242 14.8114 27.675 13.8591 27.9495C12.9068 28.224 11.8886 28.2086 10.946 27.9054C10.0033 27.6021 9.18297 27.0261 8.59898 26.2575C7.65433 25.7825 6.90311 25.0197 6.46472 24.0904C6.02634 23.1611 5.92595 22.1186 6.17951 21.1286C6.43307 20.1385 7.02603 19.2578 7.86414 18.6264C8.70225 17.995 9.73742 17.6491 10.8051 17.6437C11.285 17.6475 11.7617 17.7182 12.2201 17.8537V13.6407C10.191 13.6737 8.21584 14.2694 6.53532 15.3553C4.85479 16.4412 3.54155 17.9704 2.75569 19.7564C1.96983 21.5424 1.74531 23.508 2.1095 25.4137C2.4737 27.3194 3.41086 29.0827 4.80675 30.4888C6.57959 31.6305 8.6785 32.2219 10.8167 32.1821C13.5947 32.1821 16.2592 31.1303 18.2259 29.2574C20.1925 27.3846 21.3006 24.8436 21.3071 22.1919Z" fill="white"/>
</svg>
