<svg id="Layer_1" enable-background="new 0 0 512 512" height="300" viewBox="0 0 512 512" width="300" xmlns="http://www.w3.org/2000/svg" version="1.1" xmlns:xlink="http://www.w3.org/1999/xlink" xmlns:svgjs="http://svgjs.dev/svgjs"><circle r="256" cx="256" cy="256" shape="true" transform="matrix(1,0,0,1,0,0)" fill="url(#SvgjsRadialGradient1178)"/><g width="100%" height="100%" transform="matrix(0.85,0,0,0.85,38.400000000000006,38.400000000000006)"><g><path d="m486 392.599c0 51.371-42.03 93.401-93.401 93.401h-273.198c-51.371 0-93.401-42.03-93.401-93.401v-273.198c0-51.37 42.03-93.401 93.401-93.401h273.198c51.371 0 93.401 42.031 93.401 93.401z" fill="#41464a" fill-opacity="0" data-original-color="#41464aff" stroke="none" stroke-opacity="1"/><path d="m290.425 233.064 110.65-137.91h-32.05l-94.62 117.94-94.63-117.94h-105.65l147.45 183.78-110.66 137.92h32.05l94.63-117.95 94.64 117.95h105.65zm-164.2-112.911h41.55l218 271.7h-41.55z" fill="#f0f0f1" fill-opacity="1" data-original-color="#f0f0f1ff" stroke="none" stroke-opacity="1"/></g></g><defs><radialGradient id="SvgjsRadialGradient1178"><stop stop-opacity="1" stop-color="#424242" offset="0"/><stop stop-opacity="1" stop-color="#757575" offset="1"/></radialGradient></defs></svg>