<svg width="122" height="120" viewBox="0 0 122 120" fill="none" xmlns="http://www.w3.org/2000/svg">
<path d="M8.19342 104.498V98.9336C8.19342 101.063 9.8993 103.228 13.4993 105.263C26.0758 112.416 57.0758 115.404 82.7346 111.957C101.052 109.498 111.699 104.404 111.711 99.0983V104.663C111.688 109.969 101.052 115.051 82.7229 117.522C57.064 120.969 26.064 117.969 13.4875 110.828C9.88754 108.781 8.18166 106.616 8.19342 104.498Z" fill="#D5DFE2" stroke="black" stroke-width="0.378378" stroke-linecap="round" stroke-linejoin="round"/>
<path d="M102.453 90.3922C90.9471 83.851 62.6059 81.1099 39.1354 84.2746C15.6765 87.4275 5.98242 95.2863 17.4883 101.828C28.9942 108.369 57.3353 111.11 80.8059 107.945C104.265 104.792 113.959 96.9334 102.453 90.3922Z" fill="white"/>
<path d="M45.6883 108.616L47.2412 106.981C47.4647 106.745 47.3118 106.357 46.9942 106.322C37.6765 105.392 29.5824 103.498 24.8883 100.828C24.7236 100.734 24.5706 100.639 24.4177 100.545C23.8177 100.181 23.1118 100.063 22.4177 100.181L16.4883 101.228" stroke="#D5DFE2" stroke-width="0.378378" stroke-linecap="round" stroke-linejoin="round"/>
<path d="M13.1237 92.8159L17.1355 90.4512C11.2531 93.9218 10.9002 98.0865 17.4767 101.828C28.9825 108.369 57.3237 111.11 80.7943 107.945C103.994 104.828 113.724 97.11 102.83 90.6159C104.159 91.4159 105.5 92.2041 106.83 93.0041C118.747 100.098 108.1 108.534 82.7355 111.945C57.0766 115.392 26.0766 112.392 13.5002 105.251C6.31195 101.169 6.68842 96.6159 13.1237 92.8159Z" fill="white" stroke="#91A5AA" stroke-width="0.378378" stroke-linecap="round" stroke-linejoin="round"/>
<path d="M111.713 102.523V101.911C111.689 103.993 110.031 106.029 106.925 107.887C106.666 108.04 106.442 108.264 106.289 108.523C105.972 109.076 105.678 109.57 105.36 110.111C105.183 110.417 104.913 110.664 104.595 110.817C99.4894 113.229 91.7717 115.252 81.8894 116.523C81.6188 116.558 81.3482 116.476 81.1482 116.299L80.2423 115.499C79.9364 115.229 79.5364 115.099 79.1364 115.146C66.407 116.535 52.6776 116.429 40.6894 115.076C40.36 115.04 40.0306 115.146 39.7717 115.37L38.8894 116.158C38.6306 116.393 38.2776 116.499 37.9364 116.452C28.7011 115.229 20.6894 113.252 15.2541 110.64C14.9835 110.511 14.7717 110.311 14.6306 110.052C14.3129 109.511 13.9482 108.864 13.6894 108.44C13.6188 108.311 13.5011 108.123 13.3364 107.97C13.1247 107.782 12.8659 107.64 12.807 107.605C10.9717 106.476 9.71291 105.311 8.97174 104.146C8.65409 103.629 8.43056 103.123 8.31291 102.605C8.24233 102.299 8.20703 101.993 8.20703 101.699V105.229C8.20703 105.464 8.24233 105.746 8.30115 105.982C8.30115 105.993 8.30115 106.017 8.31291 106.029C8.37174 106.276 8.44233 106.523 8.54821 106.77C8.54821 106.77 8.55997 106.793 8.55997 106.805C8.66585 107.052 8.79527 107.311 8.94821 107.558C8.94821 107.57 8.97174 107.593 8.9835 107.605C9.13644 107.852 9.31291 108.099 9.52468 108.346C9.55997 108.382 9.59527 108.417 9.63056 108.452C9.83056 108.676 10.0306 108.899 10.2659 109.123C10.3364 109.193 10.4188 109.252 10.5011 109.323C10.7129 109.511 10.9247 109.711 11.1717 109.899C11.3247 110.017 11.5011 110.135 11.6659 110.252C11.8541 110.393 12.0306 110.535 12.2423 110.664C12.6306 110.923 13.0423 111.17 13.4894 111.429C18.9717 114.546 27.96 116.864 38.4659 118.217C40.1011 118.429 41.7717 118.617 43.4776 118.77C43.5247 118.77 43.5717 118.77 43.6188 118.782C45.2659 118.935 46.9364 119.064 48.6306 119.182C48.7364 119.182 48.8423 119.193 48.9364 119.205C50.5953 119.311 52.2776 119.393 53.9717 119.452C54.0776 119.452 54.1717 119.452 54.2776 119.452C56.0188 119.511 57.7717 119.546 59.5247 119.546C59.56 119.546 59.5953 119.546 59.6306 119.546C67.3835 119.57 75.2776 119.123 82.7129 118.123C92.5011 116.805 100.101 114.746 105.054 112.299C106.113 111.77 107.054 111.229 107.866 110.676C107.889 110.664 107.901 110.652 107.925 110.64C108.301 110.382 108.654 110.111 108.983 109.84C109.019 109.817 109.054 109.782 109.078 109.758C109.383 109.499 109.666 109.229 109.925 108.97C109.96 108.935 109.995 108.899 110.019 108.864C110.266 108.605 110.478 108.335 110.678 108.076C110.701 108.04 110.725 108.005 110.76 107.958C110.948 107.687 111.101 107.417 111.231 107.158C111.242 107.123 111.266 107.087 111.278 107.052C111.407 106.782 111.501 106.499 111.572 106.217C111.572 106.193 111.572 106.17 111.583 106.146C111.642 105.852 111.689 105.57 111.689 105.276V104.311V102.523H111.713Z" fill="#2E4247" stroke="black" stroke-width="0.378378" stroke-linecap="round" stroke-linejoin="round"/>
<path d="M106.839 93.004C105.51 92.204 104.169 91.4157 102.839 90.6157C102.957 90.6863 103.051 90.7569 103.157 90.8158C102.933 90.6746 102.698 90.5334 102.451 90.3922C90.9453 83.851 62.6041 81.1099 39.1335 84.2746C28.9806 85.6393 21.4159 87.8863 17.0159 90.5216C17.0512 90.4981 17.0865 90.4746 17.1335 90.451L13.1218 92.8158C6.68647 96.6158 6.31 101.169 13.4982 105.251C26.0747 112.404 57.0747 115.392 82.7335 111.945C108.098 108.533 118.745 100.098 106.828 93.004H106.839Z" stroke="black" stroke-width="0.378378" stroke-linecap="round" stroke-linejoin="round"/>
<path d="M100.087 90.71C99.5457 90.4042 98.9457 90.0983 98.3222 89.8042C98.2045 89.7453 98.0633 89.7218 97.9222 89.7453L94.6516 90.1218C94.4751 90.1453 94.3457 90.3806 94.5339 90.4748C95.0751 90.7218 95.581 90.9924 96.0516 91.2512C100.31 93.6748 101.146 96.2983 99.0986 98.7218C98.8869 98.9806 99.028 99.3689 99.3575 99.4159L102.275 99.8159C102.499 99.8512 102.722 99.7689 102.887 99.6159C105.852 96.7689 105.157 93.6042 100.075 90.7218L100.087 90.71Z" fill="#D5DFE2"/>
<path d="M41.6301 85.8509C41.2183 85.6626 39.9948 85.1214 39.9948 85.1214C39.8418 85.0508 39.6771 85.0391 39.5242 85.0508C24.2301 87.2156 15.3595 91.5214 15.3359 96.0156C15.3359 96.3567 15.6065 96.6391 15.9477 96.6156L19.1359 96.4273C19.4183 96.4156 19.6654 96.192 19.6771 95.9097C19.8418 91.8861 27.8065 88.0508 41.4889 86.1214C41.6889 86.0979 41.9124 85.9685 41.6301 85.8391V85.8509Z" fill="#D5DFE2"/>
<path d="M89.6892 92.2519C85.9833 90.146 79.7597 88.6048 72.5362 87.7695L60.2656 94.1107L74.1009 103.922C74.6068 104.287 75.2421 104.44 75.8656 104.346C91.3245 102.028 97.5245 96.7107 89.7009 92.2636L89.6892 92.2519Z" stroke="#D5DFE2" stroke-width="0.378378" stroke-linecap="round" stroke-linejoin="round"/>
<path d="M36.4535 90.9568C37.8888 90.4744 38.4417 90.3097 39.4417 90.0273C37.877 90.6038 36.1241 91.0744 35.0417 92.4038C34.3006 93.3097 34.2064 94.4038 34.9006 95.3685C35.4417 96.1097 36.23 96.6509 37.0182 97.0979C43.23 100.627 58.5359 102.11 71.2182 100.404C83.8888 98.6979 89.1241 94.4509 82.9123 90.9215C82.9123 90.9215 85.5829 91.9332 86.4535 92.3568C88.6535 93.3921 89.6182 94.792 89.5594 96.0391C89.43 99.0391 83.3594 101.91 72.9829 103.298C58.3006 105.274 40.5711 103.557 33.3711 99.4626C32.2064 98.8038 30.83 97.8626 30.4417 96.4979C30.1123 95.3568 30.6888 94.2744 31.5359 93.545C32.5241 92.6862 34.7359 91.5332 36.4417 90.9568H36.4535Z" fill="#2E4247" stroke="black" stroke-width="0.378378" stroke-linecap="round" stroke-linejoin="round"/>
<path d="M85.3574 92.0397C92.2397 95.9455 86.4397 100.64 72.4162 102.534C58.3927 104.416 41.4515 102.781 34.5691 98.8749C27.6868 94.9691 33.4868 90.275 47.5103 88.3808C61.5339 86.4985 78.475 88.1338 85.3574 92.0397Z" fill="white" stroke="black" stroke-width="0.378378" stroke-linecap="round" stroke-linejoin="round"/>
<path d="M85.3574 92.0397C92.2397 95.9455 86.4397 100.64 72.4162 102.534C58.3927 104.416 41.4515 102.781 34.5691 98.8749C27.6868 94.9691 33.4868 90.275 47.5103 88.3808C61.5339 86.4985 78.475 88.1338 85.3574 92.0397Z" fill="#D5DFE2" stroke="black" stroke-width="0.378378" stroke-linecap="round" stroke-linejoin="round"/>
<path d="M86.9828 93.4167C86.9828 93.4167 86.9004 93.3343 86.8534 93.2873L61.4769 97.6755L83.9357 91.499C83.8534 91.4637 83.7828 91.4284 83.7004 91.3932L61.2534 97.5696L79.3122 89.9226C79.2063 89.899 79.1004 89.8637 78.9828 89.8402L60.9475 97.4755L73.5475 88.7461C73.4181 88.7226 73.2769 88.7108 73.1475 88.6873L60.5593 97.4049L67.0298 88.0167C66.8887 88.0167 66.7475 87.9931 66.6063 87.9814L60.1357 97.3696V87.7461C59.9828 87.7461 59.8416 87.7461 59.6887 87.7461V97.3579L53.2063 87.9461C53.0651 87.9461 52.9122 87.9696 52.771 87.9696L59.2534 97.3814L46.6298 88.6284C46.5004 88.652 46.3593 88.6637 46.2298 88.6873L58.8651 97.4402L40.7593 89.7814C40.6534 89.8049 40.5357 89.8402 40.4298 89.8637L58.5475 97.5343L36.0769 91.3579C35.9946 91.3932 35.9122 91.4284 35.8416 91.4637L58.3357 97.652L32.9946 93.2755C32.9946 93.2755 32.9122 93.3579 32.8769 93.4049L58.2298 97.7814L31.8887 95.3932C31.8887 95.3932 31.8887 95.4755 31.8887 95.5226L58.2298 97.9108L32.9475 97.5461C32.9475 97.5461 33.0298 97.6284 33.0769 97.6755L58.3357 98.0402L36.0651 99.5108C36.1475 99.5461 36.2416 99.5814 36.324 99.6167L58.5593 98.1461L40.8416 101.111C40.9593 101.134 41.0651 101.17 41.1828 101.205L58.8887 98.2402L46.6769 102.276C46.8063 102.299 46.9475 102.311 47.0887 102.334L59.2769 98.299L53.0769 102.97C53.2181 102.97 53.3593 102.993 53.5004 103.005L59.7122 98.3226V103.217C59.8651 103.217 60.0063 103.217 60.1593 103.217V98.3226L66.3945 103.028C66.5357 103.028 66.6887 103.017 66.8298 103.005L60.5828 98.299L72.9122 102.381C73.0534 102.358 73.1828 102.346 73.324 102.323L60.971 98.2284L78.9122 101.24C79.0298 101.217 79.1475 101.181 79.2651 101.158L61.2769 98.1461L83.8063 99.6402C83.8887 99.6049 83.971 99.5696 84.0534 99.5226L61.5004 98.0284L87.0063 97.6637C87.0063 97.6637 87.0887 97.5814 87.1239 97.5343L61.6181 97.899L88.1004 95.499C88.1004 95.499 88.1004 95.4167 88.1004 95.3696L61.6298 97.7696L87.0181 93.3814L86.9828 93.4167Z" fill="white"/>
<path d="M76.2061 95.7711C80.6061 98.2652 76.9002 101.265 67.9355 102.477C58.9708 103.677 48.1355 102.63 43.7473 100.136C39.3472 97.6417 43.0531 94.6417 52.0178 93.4299C60.9825 92.2182 71.8178 93.277 76.2061 95.7711Z" fill="white"/>
<path d="M70.4414 96.7C73.2767 98.3118 70.8885 100.253 65.1002 101.029C59.312 101.806 52.3238 101.135 49.4885 99.5235C46.6532 97.9118 49.0414 95.9706 54.8296 95.1941C60.6179 94.4176 67.6061 95.0882 70.4414 96.7Z" fill="#C77ABC"/>
<path d="M1.19284 85.8163C-1.44245 80.0986 23.2399 63.0751 56.3458 47.7927C89.4399 32.5104 118.416 24.7575 121.052 30.4751" stroke="black" stroke-width="0.378378" stroke-linecap="round" stroke-linejoin="round"/>
<path d="M18.9933 69.9573C19.9809 69.9573 20.7815 69.1567 20.7815 68.1691C20.7815 67.1815 19.9809 66.3809 18.9933 66.3809C18.0057 66.3809 17.2051 67.1815 17.2051 68.1691C17.2051 69.1567 18.0057 69.9573 18.9933 69.9573Z" fill="#C77ABC"/>
<path d="M38.905 6.49363C40.4221 6.49363 41.6518 5.26384 41.6518 3.74682C41.6518 2.2298 40.4221 1 38.905 1C37.388 1 36.1582 2.2298 36.1582 3.74682C36.1582 5.26384 37.388 6.49363 38.905 6.49363Z" fill="white" stroke="#121212" stroke-width="0.378378" stroke-miterlimit="10" stroke-linecap="round" stroke-linejoin="round"/>
<path d="M4.72693 9.74682C5.48545 9.74682 6.10033 9.13193 6.10033 8.37341C6.10033 7.6149 5.48545 7 4.72693 7C3.96842 7 3.35352 7.6149 3.35352 8.37341C3.35352 9.13193 3.96842 9.74682 4.72693 9.74682Z" fill="white" stroke="#121212" stroke-width="0.378378" stroke-miterlimit="10" stroke-linecap="round" stroke-linejoin="round"/>
<path d="M12.5459 17.9873L7.93164 22.6016L12.5459 27.2158L17.1601 22.6016L12.5459 17.9873Z" fill="white" stroke="#121212" stroke-width="0.378378" stroke-miterlimit="9.9998" stroke-linecap="round" stroke-linejoin="round"/>
<path d="M63.2715 10.5869C81.6425 10.5869 96.4843 28.149 96.4844 49.7441C96.4844 71.3394 81.6425 88.9014 63.2715 88.9014C59.838 88.9014 55.6961 89.0779 52.1465 88.4863L52.1309 88.4834L52.1152 88.4785C38.3131 83.691 30.0586 67.4847 30.0586 49.7441C30.0587 32.0807 38.4079 15.9189 52.1143 11.0625L52.127 11.0576L52.1406 11.0557C55.1057 10.4626 59.9797 10.5869 63.2715 10.5869Z" fill="#D8E2E5" stroke="black" stroke-width="0.378378"/>
<mask id="mask0_1621_2421" style="mask-type:alpha" maskUnits="userSpaceOnUse" x="30" y="10" width="67" height="79">
<ellipse cx="63.2716" cy="49.7451" rx="33.0236" ry="38.9678" fill="#D8E2E5"/>
</mask>
<g mask="url(#mask0_1621_2421)">
<rect x="79.0723" y="23.6777" width="17.21" height="5.37812" transform="rotate(-13.2032 79.0723 23.6777)" fill="white"/>
<rect x="80.2285" y="30.5957" width="17.21" height="2.22877" transform="rotate(-13.2032 80.2285 30.5957)" fill="white"/>
</g>
<ellipse cx="56.3771" cy="49.7432" rx="33.0236" ry="38.9678" fill="white" stroke="black" stroke-width="0.378378"/>
<path d="M56.376 21.2812C69.4611 21.2812 80.0117 34.0593 80.0117 49.7441C80.0117 65.429 69.4611 78.207 56.376 78.207C43.2908 78.207 32.7402 65.429 32.7402 49.7441C32.7403 34.0594 43.2909 21.2813 56.376 21.2812Z" fill="#C77ABC" stroke="black" stroke-width="0.378378"/>
<g opacity="0.8">
<mask id="mask1_1621_2421" style="mask-type:alpha" maskUnits="userSpaceOnUse" x="32" y="21" width="48" height="57">
<ellipse cx="56.3389" cy="49.7052" rx="23.4464" ry="28.2736" fill="url(#paint0_linear_1621_2421)"/>
</mask>
<g mask="url(#mask1_1621_2421)">
<line y1="-0.189189" x2="59.5456" y2="-0.189189" transform="matrix(0.997859 0.0654031 -0.0165799 0.999863 26.0469 18.8906)" stroke="white" stroke-width="0.378378"/>
<line y1="-0.189189" x2="59.5456" y2="-0.189189" transform="matrix(0.997859 0.0654031 -0.0165799 0.999863 26.0469 35.4414)" stroke="white" stroke-width="0.378378"/>
<line y1="-0.189189" x2="59.5456" y2="-0.189189" transform="matrix(0.997859 0.0654031 -0.0165799 0.999863 26.0469 51.9922)" stroke="white" stroke-width="0.378378"/>
<line y1="-0.189189" x2="59.5456" y2="-0.189189" transform="matrix(0.997859 0.0654031 -0.0165799 0.999863 26.0469 68.541)" stroke="white" stroke-width="0.378378"/>
<line y1="-0.189189" x2="95.1909" y2="-0.189189" transform="matrix(0.00354803 0.999994 -0.975806 -0.21864 73.9551 3.65625)" stroke="white" stroke-width="0.378378"/>
<line y1="-0.189189" x2="95.1909" y2="-0.189189" transform="matrix(0.00354803 0.999994 -0.975806 -0.21864 57.5879 6.11328)" stroke="white" stroke-width="0.378378"/>
<line y1="-0.189189" x2="95.1909" y2="-0.189189" transform="matrix(0.00354803 0.999994 -0.975806 -0.21864 41.2207 8.56836)" stroke="white" stroke-width="0.378378"/>
</g>
</g>
<path d="M66.6534 40.6351C67.2184 40.6649 67.7536 40.9439 68.1241 41.4631C68.8607 42.5016 68.6594 44.1118 67.6735 45.0611L52.4607 59.6655C51.9666 60.1413 51.3697 60.3563 50.8024 60.3265C50.1139 60.2899 49.5787 60.0154 49.2082 59.4939L42.957 50.7061C42.2182 49.6677 42.4194 48.0574 43.4076 47.1105C43.9016 46.637 44.4986 46.4174 45.0636 46.4472C45.6285 46.4769 46.1638 46.756 46.5343 47.2752L51.5023 54.2606L64.9997 41.3007C65.4937 40.8273 66.0907 40.6077 66.6557 40.6374L66.6534 40.6351Z" fill="black" stroke="black" stroke-width="0.330756" stroke-miterlimit="10"/>
<path d="M121.052 30.4629C123.687 36.1805 99.0051 53.2041 65.8992 68.4864C32.8051 83.7688 3.84042 91.5335 1.19336 85.8158" stroke="black" stroke-width="0.378378" stroke-linecap="round" stroke-linejoin="round"/>
<path d="M108.982 46.9339C110.521 46.9339 111.77 45.6856 111.77 44.1457C111.77 42.6058 110.521 41.3574 108.982 41.3574C107.442 41.3574 106.193 42.6058 106.193 44.1457C106.193 45.6856 107.442 46.9339 108.982 46.9339Z" fill="#C77ABC"/>
<defs>
<linearGradient id="paint0_linear_1621_2421" x1="56.3389" y1="21.4316" x2="56.3389" y2="77.9788" gradientUnits="userSpaceOnUse">
<stop stop-color="white"/>
<stop offset="1" stop-color="white" stop-opacity="0"/>
</linearGradient>
</defs>
</svg>
