<svg width="14" height="14" viewBox="0 0 14 14" fill="none" xmlns="http://www.w3.org/2000/svg">
<path fill-rule="evenodd" clip-rule="evenodd" d="M3.97656 0.242676C4.10917 0.242676 4.23635 0.295354 4.33012 0.389122C4.42388 0.482891 4.47656 0.610068 4.47656 0.742676V1.74268H10.4766V0.742676C10.4766 0.610068 10.5292 0.482891 10.623 0.389122C10.7168 0.295354 10.844 0.242676 10.9766 0.242676C11.1092 0.242676 11.2363 0.295354 11.3301 0.389122C11.4239 0.482891 11.4766 0.610068 11.4766 0.742676V1.74268H11.9766C12.507 1.74268 13.0157 1.95339 13.3908 2.32846C13.7658 2.70354 13.9766 3.21224 13.9766 3.74268V11.2427C13.9766 11.7731 13.7658 12.2818 13.3908 12.6569C13.0157 13.032 12.507 13.2427 11.9766 13.2427H2.97656C2.44613 13.2427 1.93742 13.032 1.56235 12.6569C1.18728 12.2818 0.976563 11.7731 0.976562 11.2427V3.74268C0.976563 3.21224 1.18728 2.70354 1.56235 2.32846C1.93742 1.95339 2.44613 1.74268 2.97656 1.74268H3.47656V0.742676C3.47656 0.610068 3.52924 0.482891 3.62301 0.389122C3.71678 0.295354 3.84395 0.242676 3.97656 0.242676ZM12.9766 6.24268C12.9766 5.97746 12.8712 5.72311 12.6837 5.53557C12.4961 5.34803 12.2418 5.24268 11.9766 5.24268H2.97656C2.71135 5.24268 2.45699 5.34803 2.26946 5.53557C2.08192 5.72311 1.97656 5.97746 1.97656 6.24268V11.2427C1.97656 11.5079 2.08192 11.7622 2.26946 11.9498C2.45699 12.1373 2.71135 12.2427 2.97656 12.2427H11.9766C12.2418 12.2427 12.4961 12.1373 12.6837 11.9498C12.8712 11.7622 12.9766 11.5079 12.9766 11.2427V6.24268Z" fill="#F7F8F8"/>
<path d="M7.97656 7.24268C7.97656 7.37528 7.92388 7.50246 7.83012 7.59623C7.73635 7.69 7.60917 7.74268 7.47656 7.74268C7.34395 7.74268 7.21678 7.69 7.12301 7.59623C7.02924 7.50246 6.97656 7.37528 6.97656 7.24268C6.97656 7.11007 7.02924 6.98289 7.12301 6.88912C7.21678 6.79535 7.34395 6.74268 7.47656 6.74268C7.60917 6.74268 7.73635 6.79535 7.83012 6.88912C7.92388 6.98289 7.97656 7.11007 7.97656 7.24268ZM4.47656 9.24268C4.60917 9.24268 4.73635 9.19 4.83012 9.09623C4.92388 9.00246 4.97656 8.87528 4.97656 8.74268C4.97656 8.61007 4.92388 8.48289 4.83012 8.38912C4.73635 8.29535 4.60917 8.24268 4.47656 8.24268C4.34395 8.24268 4.21678 8.29535 4.12301 8.38912C4.02924 8.48289 3.97656 8.61007 3.97656 8.74268C3.97656 8.87528 4.02924 9.00246 4.12301 9.09623C4.21678 9.19 4.34395 9.24268 4.47656 9.24268ZM4.97656 10.2427C4.97656 10.3753 4.92388 10.5025 4.83012 10.5962C4.73635 10.69 4.60917 10.7427 4.47656 10.7427C4.34395 10.7427 4.21678 10.69 4.12301 10.5962C4.02924 10.5025 3.97656 10.3753 3.97656 10.2427C3.97656 10.1101 4.02924 9.98289 4.12301 9.88912C4.21678 9.79535 4.34395 9.74268 4.47656 9.74268C4.60917 9.74268 4.73635 9.79535 4.83012 9.88912C4.92388 9.98289 4.97656 10.1101 4.97656 10.2427ZM5.97656 9.24268C6.10917 9.24268 6.23635 9.19 6.33012 9.09623C6.42388 9.00246 6.47656 8.87528 6.47656 8.74268C6.47656 8.61007 6.42388 8.48289 6.33012 8.38912C6.23635 8.29535 6.10917 8.24268 5.97656 8.24268C5.84395 8.24268 5.71678 8.29535 5.62301 8.38912C5.52924 8.48289 5.47656 8.61007 5.47656 8.74268C5.47656 8.87528 5.52924 9.00246 5.62301 9.09623C5.71678 9.19 5.84395 9.24268 5.97656 9.24268ZM6.47656 10.2427C6.47656 10.3753 6.42388 10.5025 6.33012 10.5962C6.23635 10.69 6.10917 10.7427 5.97656 10.7427C5.84395 10.7427 5.71678 10.69 5.62301 10.5962C5.52924 10.5025 5.47656 10.3753 5.47656 10.2427C5.47656 10.1101 5.52924 9.98289 5.62301 9.88912C5.71678 9.79535 5.84395 9.74268 5.97656 9.74268C6.10917 9.74268 6.23635 9.79535 6.33012 9.88912C6.42388 9.98289 6.47656 10.1101 6.47656 10.2427ZM7.47656 9.24268C7.60917 9.24268 7.73635 9.19 7.83012 9.09623C7.92388 9.00246 7.97656 8.87528 7.97656 8.74268C7.97656 8.61007 7.92388 8.48289 7.83012 8.38912C7.73635 8.29535 7.60917 8.24268 7.47656 8.24268C7.34395 8.24268 7.21678 8.29535 7.12301 8.38912C7.02924 8.48289 6.97656 8.61007 6.97656 8.74268C6.97656 8.87528 7.02924 9.00246 7.12301 9.09623C7.21678 9.19 7.34395 9.24268 7.47656 9.24268ZM7.97656 10.2427C7.97656 10.3753 7.92388 10.5025 7.83012 10.5962C7.73635 10.69 7.60917 10.7427 7.47656 10.7427C7.34395 10.7427 7.21678 10.69 7.12301 10.5962C7.02924 10.5025 6.97656 10.3753 6.97656 10.2427C6.97656 10.1101 7.02924 9.98289 7.12301 9.88912C7.21678 9.79535 7.34395 9.74268 7.47656 9.74268C7.60917 9.74268 7.73635 9.79535 7.83012 9.88912C7.92388 9.98289 7.97656 10.1101 7.97656 10.2427ZM8.97656 9.24268C9.10917 9.24268 9.23635 9.19 9.33012 9.09623C9.42388 9.00246 9.47656 8.87528 9.47656 8.74268C9.47656 8.61007 9.42388 8.48289 9.33012 8.38912C9.23635 8.29535 9.10917 8.24268 8.97656 8.24268C8.84395 8.24268 8.71678 8.29535 8.62301 8.38912C8.52924 8.48289 8.47656 8.61007 8.47656 8.74268C8.47656 8.87528 8.52924 9.00246 8.62301 9.09623C8.71678 9.19 8.84395 9.24268 8.97656 9.24268ZM9.47656 10.2427C9.47656 10.3753 9.42388 10.5025 9.33012 10.5962C9.23635 10.69 9.10917 10.7427 8.97656 10.7427C8.84395 10.7427 8.71678 10.69 8.62301 10.5962C8.52924 10.5025 8.47656 10.3753 8.47656 10.2427C8.47656 10.1101 8.52924 9.98289 8.62301 9.88912C8.71678 9.79535 8.84395 9.74268 8.97656 9.74268C9.10917 9.74268 9.23635 9.79535 9.33012 9.88912C9.42388 9.98289 9.47656 10.1101 9.47656 10.2427ZM10.4766 9.24268C10.6092 9.24268 10.7363 9.19 10.8301 9.09623C10.9239 9.00246 10.9766 8.87528 10.9766 8.74268C10.9766 8.61007 10.9239 8.48289 10.8301 8.38912C10.7363 8.29535 10.6092 8.24268 10.4766 8.24268C10.344 8.24268 10.2168 8.29535 10.123 8.38912C10.0292 8.48289 9.97656 8.61007 9.97656 8.74268C9.97656 8.87528 10.0292 9.00246 10.123 9.09623C10.2168 9.19 10.344 9.24268 10.4766 9.24268ZM9.47656 7.24268C9.47656 7.37528 9.42388 7.50246 9.33012 7.59623C9.23635 7.69 9.10917 7.74268 8.97656 7.74268C8.84395 7.74268 8.71678 7.69 8.62301 7.59623C8.52924 7.50246 8.47656 7.37528 8.47656 7.24268C8.47656 7.11007 8.52924 6.98289 8.62301 6.88912C8.71678 6.79535 8.84395 6.74268 8.97656 6.74268C9.10917 6.74268 9.23635 6.79535 9.33012 6.88912C9.42388 6.98289 9.47656 7.11007 9.47656 7.24268ZM10.4766 7.74268C10.6092 7.74268 10.7363 7.69 10.8301 7.59623C10.9239 7.50246 10.9766 7.37528 10.9766 7.24268C10.9766 7.11007 10.9239 6.98289 10.8301 6.88912C10.7363 6.79535 10.6092 6.74268 10.4766 6.74268C10.344 6.74268 10.2168 6.79535 10.123 6.88912C10.0292 6.98289 9.97656 7.11007 9.97656 7.24268C9.97656 7.37528 10.0292 7.50246 10.123 7.59623C10.2168 7.69 10.344 7.74268 10.4766 7.74268Z" fill="#F7F8F8"/>
</svg>
