<svg width="21" height="21" viewBox="0 0 21 21" fill="none" xmlns="http://www.w3.org/2000/svg">
<path d="M17.0289 0.472656H3.68188C1.76817 0.472656 0.216797 2.02403 0.216797 3.93774V17.2847C0.216797 19.1985 1.76817 20.7498 3.68188 20.7498H17.0289C18.9426 20.7498 20.494 19.1985 20.494 17.2847V3.93774C20.494 2.02403 18.9426 0.472656 17.0289 0.472656Z" fill="white" stroke="#F33BC0" stroke-opacity="0.6" stroke-width="0.256673"/>
<path fill-rule="evenodd" clip-rule="evenodd" d="M8.43066 8.36543C8.43066 7.30227 9.2926 6.44043 10.3558 6.44043C11.4189 6.44043 12.2809 7.30227 12.2809 8.36543C12.2809 9.4286 11.4189 10.2905 10.3558 10.2905C9.2926 10.2905 8.43066 9.4286 8.43066 8.36543ZM11.6391 8.36543C11.6391 7.65672 11.0646 7.08206 10.3558 7.08206C9.64695 7.08206 9.0724 7.65672 9.0724 8.36543C9.0724 9.07424 9.64695 9.6488 10.3558 9.6488C11.0646 9.6488 11.6391 9.07424 11.6391 8.36543Z" fill="#F33BC0" fill-opacity="0.6"/>
<path fill-rule="evenodd" clip-rule="evenodd" d="M7.14746 13.4277C7.14746 11.8611 8.59344 10.6113 10.3558 10.6113C12.1182 10.6113 13.5642 11.8611 13.5642 13.4277C13.5642 15.2338 7.14746 15.2338 7.14746 13.4277ZM12.9226 13.4277C12.9226 12.2379 11.7829 11.253 10.3558 11.253C8.92872 11.253 7.7891 12.2379 7.7891 13.4277C7.7891 13.7859 8.51795 14.0091 9.42643 14.0973L9.639 14.1153C10.1054 14.149 10.6062 14.149 11.0727 14.1153L11.2852 14.0973C12.1937 14.0091 12.9226 13.7859 12.9226 13.4277Z" fill="#F33BC0" fill-opacity="0.6"/>
</svg>
