<svg width="116" height="79" viewBox="0 0 116 79" fill="none" xmlns="http://www.w3.org/2000/svg">
<path d="M112.685 0.467765C110.302 -0.294133 107.716 1.13368 106.91 3.65725C106.103 6.18083 107.381 8.84365 109.764 9.60555C112.147 10.3674 114.733 8.93964 115.539 6.41606C116.346 3.89248 115.068 1.22966 112.685 0.467765ZM0.581125 54.9012L7.09131 62.4338L10.2536 52.542L0.581125 54.9012ZM110.415 4.7778L109.88 6.45022L111.499 6.96762L112.033 5.2952L110.415 4.7778ZM108.811 9.79503L107.742 13.1388L109.36 13.6562L110.429 10.3124L108.811 9.79503ZM106.673 16.4836L105.604 19.8273L107.222 20.3447L108.291 17.001L106.673 16.4836ZM104.534 23.1721L103.465 26.5159L105.084 27.0333L106.153 23.6895L104.534 23.1721ZM102.396 29.8607L101.327 33.2045L102.946 33.7219L104.015 30.3781L102.396 29.8607ZM100.258 36.5493L99.1887 39.8941L100.807 40.4115L101.876 37.0667L100.258 36.5493ZM98.1198 43.2379L97.0505 46.5826L98.669 47.1L99.7382 43.7553L98.1198 43.2379ZM95.9816 49.9264L94.9123 53.2712L96.5307 53.7886L97.6 50.4438L95.9816 49.9264ZM93.8433 56.615L92.7741 59.9598L94.3925 60.4772L95.4618 57.1324L93.8433 56.615ZM91.7051 63.3036L91.1705 64.9759L92.7889 65.4933L93.3236 63.821L91.7051 63.3036ZM91.1705 64.9759C90.9981 65.5152 90.8033 66.0404 90.5877 66.5499L92.1443 67.2308C92.3835 66.6674 92.5987 66.0883 92.7889 65.4933L91.1705 64.9759ZM89.0018 69.4927C88.3783 70.4274 87.6747 71.2897 86.9056 72.0709L88.0733 73.3356C88.9245 72.4726 89.7024 71.519 90.3912 70.4845L89.0018 69.4927ZM84.3819 74.1867C83.4784 74.8065 82.5226 75.3343 81.5278 75.762L82.1317 77.4147C83.2302 76.9416 84.2866 76.3582 85.2839 75.674L84.3819 74.1867ZM78.4558 76.7372C77.4164 76.9548 76.3533 77.0681 75.2819 77.0694L75.2271 78.8588C76.4125 78.8574 77.5879 78.7323 78.7369 78.4916L78.4558 76.7372ZM72.1282 76.7432C71.6161 76.6364 71.1044 76.5013 70.5952 76.3385L70.0473 78.0523C70.6092 78.2319 71.1736 78.3804 71.74 78.4989L72.1282 76.7432ZM70.5952 76.3385L69.0109 75.8321L68.463 77.5458L70.0473 78.0523L70.5952 76.3385ZM65.8403 74.8185L62.6707 73.8052L62.1228 75.5189L65.2924 76.5322L65.8403 74.8185ZM59.5001 72.7916L56.3305 71.7784L55.7827 73.4921L58.9523 74.5054L59.5001 72.7916ZM53.1609 70.7651L49.9903 69.7515L49.4425 71.4653L52.6131 72.4788L53.1609 70.7651ZM46.8207 68.7383L43.6502 67.7247L43.1023 69.4384L46.2729 70.452L46.8207 68.7383ZM40.4806 66.7114L37.311 65.6982L36.7631 67.4119L39.9327 68.4251L40.4806 66.7114ZM34.1404 64.6846L30.9708 63.6713L30.4229 65.385L33.5925 66.3983L34.1404 64.6846ZM27.8002 62.6577L24.6306 61.6445L24.0828 63.3582L27.2524 64.3715L27.8002 62.6577ZM21.461 60.6312L18.2904 59.6176L17.7426 61.3313L20.9132 62.3449L21.461 60.6312ZM15.1208 58.6044L11.9503 57.5908L11.4024 59.3045L14.573 60.3181L15.1208 58.6044ZM8.78066 56.5775L5.61008 55.5639L5.06224 57.2777L8.23282 58.2912L8.78066 56.5775Z" fill="#D67FBD" fill-opacity="0.6"/>
</svg>
