<svg width="40" height="29" viewBox="0 0 40 29" fill="none" xmlns="http://www.w3.org/2000/svg">
<rect x="0.154141" y="0.904141" width="39.6917" height="27.6917" rx="2.31211" fill="white" stroke="#1D1D1D" stroke-width="0.308281"/>
<mask id="mask0_868_2122" style="mask-type:alpha" maskUnits="userSpaceOnUse" x="0" y="0" width="40" height="29">
<rect y="0.75" width="40" height="27.6667" rx="2.46625" fill="white"/>
</mask>
<g mask="url(#mask0_868_2122)">
<path d="M6 7.01648C6 4.29234 8.20836 2.08398 10.9325 2.08398H29.0675C31.7916 2.08398 34 4.29234 34 7.01649V27.8182C34 30.5423 31.7916 32.7507 29.0675 32.7507H10.9325C8.20836 32.7507 6 30.5423 6 27.8181V7.01648Z" fill="#EBE9E9"/>
<path d="M7.33301 7.11539C7.33301 5.07228 8.98928 3.41602 11.0324 3.41602H28.967C31.0101 3.41602 32.6663 5.07228 32.6663 7.11539V30.3833C32.6663 32.4264 31.0101 34.0827 28.967 34.0827H11.0324C8.98928 34.0827 7.33301 32.4264 7.33301 30.3833V7.11539Z" fill="white"/>
<path d="M10.625 8.84969C10.625 7.82813 11.4531 7 12.4747 7H26.9003C27.9219 7 28.75 7.82813 28.75 8.84969V21.4003C28.75 22.4219 27.9219 23.25 26.9003 23.25H12.4747C11.4531 23.25 10.625 22.4219 10.625 21.4003V8.84969Z" fill="#EBE9E9"/>
<path d="M13.6559 7H11.8581C11.1771 7 10.625 7.55209 10.625 8.23312V10.6111M25.7191 7H27.5169C28.1979 7 28.75 7.55209 28.75 8.23313V10.6111M10.625 19.6389V22.0169C10.625 22.6979 11.1771 23.25 11.8581 23.25H13.6559M28.75 19.6389V22.0169C28.75 22.6979 28.1979 23.25 27.5169 23.25H25.7191" stroke="#C77ABC" stroke-opacity="0.8" stroke-width="0.924844" stroke-linecap="round"/>
<circle cx="19.7917" cy="14.9997" r="6.72237" fill="#1D1D1D"/>
<path d="M10.625 14.9134C10.625 14.5179 10.9456 14.1973 11.3412 14.1973H28.2426C28.6381 14.1973 28.9587 14.5179 28.9587 14.9134C28.9587 15.309 28.6381 15.6296 28.2426 15.6296H11.3412C10.9456 15.6296 10.625 15.309 10.625 14.9134Z" fill="#C77ABC" fill-opacity="0.8"/>
<path d="M21.9443 13.3554C21.9516 14.2361 21.4345 14.9935 20.6864 15.3348C22.1107 15.6645 23.2482 16.7586 23.6388 18.1638C23.7362 18.5144 23.4503 18.8291 23.0872 18.8291H16.5592C16.1959 18.8291 15.9049 18.5141 15.9968 18.1634C16.3651 16.759 17.4844 15.6646 18.9023 15.3357C18.1486 14.9945 17.6191 14.237 17.6119 13.3563C17.602 12.1552 18.5639 11.1816 19.7603 11.1816C20.9567 11.1816 21.9345 12.1552 21.9443 13.3554Z" fill="#C77ABC" fill-opacity="0.8"/>
<path d="M21.9443 13.3554C21.9516 14.2361 21.4345 14.9935 20.6864 15.3348C22.1107 15.6645 23.2482 16.7586 23.6388 18.1638C23.7362 18.5144 23.4503 18.8291 23.0872 18.8291H16.5592C16.1959 18.8291 15.9049 18.5141 15.9968 18.1634C16.3651 16.759 17.4844 15.6646 18.9023 15.3357C18.1486 14.9945 17.6191 14.237 17.6119 13.3563C17.602 12.1552 18.5639 11.1816 19.7603 11.1816C20.9567 11.1816 21.9345 12.1552 21.9443 13.3554Z" fill="#C77ABC" fill-opacity="0.8"/>
<path d="M21.9443 13.3554C21.9516 14.2361 21.4345 14.9935 20.6864 15.3348C22.1107 15.6645 23.2482 16.7586 23.6388 18.1638C23.7362 18.5144 23.4503 18.8291 23.0872 18.8291H16.5592C16.1959 18.8291 15.9049 18.5141 15.9968 18.1634C16.3651 16.759 17.4844 15.6646 18.9023 15.3357C18.1486 14.9945 17.6191 14.237 17.6119 13.3563C17.602 12.1552 18.5639 11.1816 19.7603 11.1816C20.9567 11.1816 21.9345 12.1552 21.9443 13.3554Z" fill="#C77ABC" fill-opacity="0.8"/>
<mask id="mask1_868_2122" style="mask-type:alpha" maskUnits="userSpaceOnUse" x="13" y="8" width="14" height="14">
<circle cx="19.7917" cy="14.9997" r="6.72237" fill="#66DD8C"/>
</mask>
<g mask="url(#mask1_868_2122)">
<path d="M10.625 14.9134C10.625 14.5179 10.9456 14.1973 11.3412 14.1973H28.2426C28.6381 14.1973 28.9587 14.5179 28.9587 14.9134C28.9587 15.309 28.6381 15.6296 28.2426 15.6296H11.3412C10.9456 15.6296 10.625 15.309 10.625 14.9134Z" fill="#EBE9E9"/>
</g>
</g>
</svg>
