<svg width="48" height="48" viewBox="0 0 48 48" fill="none" xmlns="http://www.w3.org/2000/svg">
<ellipse cx="24" cy="24" rx="24" ry="24" fill="#C77ABC"/>
<rect x="0.23716" y="0.182506" width="25.1607" height="18.6648" rx="2.4359" transform="matrix(0.978148 -0.207912 0.0495471 0.998772 11.4649 17.4363)" fill="black" stroke="black" stroke-width="0.461538"/>
<rect x="0.23716" y="0.182506" width="25.1607" height="18.6648" rx="2.4359" transform="matrix(0.978148 -0.207912 0.0495471 0.998772 10.5176 16.8855)" fill="white" stroke="black" stroke-width="0.461538"/>
<path d="M13.1223 20.3321C13.0844 19.5684 13.6601 18.8203 14.4081 18.6613L23.3965 16.7508C24.1445 16.5918 24.7816 17.0821 24.8194 17.8458L25.3632 28.8074C25.4011 29.5711 24.8255 30.3192 24.0775 30.4782L15.0891 32.3887C14.3411 32.5477 13.704 32.0574 13.6661 31.2937L13.1223 20.3321Z" fill="#C77ABC"/>
<path d="M21.1459 22.5817C21.1808 23.4263 20.7183 24.2507 20.025 24.7186C21.2584 24.7642 22.2872 25.4662 22.7711 26.5591C22.9797 27.0303 22.5733 27.5904 22.04 27.6964L16.6084 28.7768C16.075 28.883 15.6291 28.492 15.796 27.9461C16.1829 26.6807 17.137 25.5841 18.3455 25.0536C17.6251 24.8669 17.1024 24.2385 17.0675 23.3939C17.0198 22.242 17.8941 21.1267 19.0204 20.9027C20.1466 20.6787 21.0982 21.4308 21.1459 22.5817Z" fill="black"/>
<path d="M27.665 22.7559L30.8773 22.0312" stroke="black" stroke-width="1.84615" stroke-linecap="round"/>
<path d="M27.8867 26.4806L31.0989 25.7558" stroke="black" stroke-width="1.84615" stroke-linecap="round"/>
<path d="M27.3174 19.0327L32.1841 17.9862" stroke="black" stroke-width="1.84615" stroke-linecap="round"/>
</svg>
