<svg width="17" height="18" viewBox="0 0 17 18" fill="none" xmlns="http://www.w3.org/2000/svg">
<path d="M8.23367 0C9.93726 0 11.4748 0.710308 12.567 1.85059C12.6916 1.98069 12.7539 2.04574 12.7439 2.11766C12.7339 2.18958 12.6454 2.24162 12.4683 2.34571C11.7299 2.77985 11.2337 3.58137 11.2337 4.5C11.2337 5.88063 12.3531 6.99987 13.7337 7C13.7794 7 13.8249 6.99872 13.87 6.99621C14.0499 6.98621 14.1398 6.98122 14.1867 7.0256C14.2337 7.06998 14.2337 7.15206 14.2337 7.31622V7.83105C14.2337 9.25033 14.6197 10.6433 15.3499 11.8604L15.9036 12.7822C16.2706 13.3939 16.4535 13.7004 16.4661 13.9502C16.4854 14.3367 16.2801 14.6995 15.9387 14.8818C15.7181 14.9996 15.3611 15 14.6477 15H1.82058C1.10714 15 0.750216 14.9996 0.529565 14.8818C0.18796 14.6996 -0.0180368 14.3369 0.00124487 13.9502C0.0138132 13.7004 0.197665 13.394 0.564721 12.7822L1.11746 11.8604C1.84765 10.6433 2.23365 9.25032 2.23367 7.83105V6C2.23367 2.68636 4.92005 0.000112132 8.23367 0Z" fill="url(#paint0_linear_985_1897)" fill-opacity="0.9"/>
<circle cx="13.7339" cy="4.5" r="1.5" fill="url(#paint1_linear_985_1897)"/>
<path d="M10.5839 16C10.6667 16 10.7346 16.0673 10.7269 16.1498C10.6822 16.6254 10.4262 17.0746 10.0017 17.4142C9.53281 17.7893 8.89693 18 8.23389 18C7.57085 18 6.93496 17.7893 6.46612 17.4142C6.04161 17.0746 5.78553 16.6254 5.7409 16.1498C5.73316 16.0673 5.80104 16 5.88389 16L8.23389 16L10.5839 16Z" fill="url(#paint2_linear_985_1897)" fill-opacity="0.9"/>
<defs>
<linearGradient id="paint0_linear_985_1897" x1="8.23367" y1="0" x2="8.23367" y2="15" gradientUnits="userSpaceOnUse">
<stop stop-color="white"/>
<stop offset="1" stop-color="#FF7CEC"/>
</linearGradient>
<linearGradient id="paint1_linear_985_1897" x1="13.7339" y1="3" x2="13.7339" y2="6" gradientUnits="userSpaceOnUse">
<stop stop-color="white"/>
<stop offset="1" stop-color="#FF7CEC"/>
</linearGradient>
<linearGradient id="paint2_linear_985_1897" x1="8.23389" y1="14" x2="8.23389" y2="18" gradientUnits="userSpaceOnUse">
<stop stop-color="white"/>
<stop offset="1" stop-color="#FF7CEC"/>
</linearGradient>
</defs>
</svg>
