<svg width="14" height="16" viewBox="0 0 14 16" fill="none" xmlns="http://www.w3.org/2000/svg">
<path opacity="0.4" d="M6.68887 0.543198L2.4575 1.7672C1.64931 2.0059 0.934865 2.88368 0.869849 3.72868L0.40381 9.78578C0.357206 10.3915 0.691971 11.2221 1.15042 11.6185L5.02679 15.0083C5.71014 15.61 6.89913 15.7015 7.66649 15.2114L12.0158 12.4545C12.5301 12.1254 12.9874 11.3633 13.034 10.7576L13.5 4.70046C13.5645 3.86294 12.9933 2.87872 12.2305 2.52667L8.23622 0.669775C7.83012 0.473042 7.12719 0.418958 6.68887 0.543198Z" fill="#FF52C3"/>
<path d="M5.76016 10.498C5.61832 10.4843 5.48153 10.4184 5.38037 10.2956L4.29461 8.97752C4.09904 8.74011 4.13367 8.38178 4.37108 8.18621C4.60849 7.99063 4.96682 8.02526 5.16239 8.26267L5.89073 9.14683L8.97708 6.6044C9.2145 6.40883 9.57283 6.44346 9.7684 6.68087C9.96397 6.91828 9.92934 7.27661 9.69193 7.47219L6.17168 10.372C6.04888 10.4732 5.90199 10.5117 5.76016 10.498Z" fill="#FF52C3"/>
</svg>
