<svg width="82" height="90" viewBox="0 0 82 90" fill="none" xmlns="http://www.w3.org/2000/svg">
<path d="M0 4.28897C0 6.65794 1.92 8.57794 4.28897 8.57794C6.65794 8.57794 8.57795 6.65794 8.57795 4.28897C8.57795 1.92 6.65794 0 4.28897 0C1.92 0 0 1.92 0 4.28897ZM76.8834 89.6941L81.5263 81.6514H72.2405L76.8834 89.6941ZM4.28897 5.09382H5.85893V3.48509H4.28897V5.09382ZM8.99882 5.09382H12.1377V3.48509H8.99882V5.09382ZM15.2776 5.09382H18.4165V3.48509H15.2776V5.09382ZM21.5564 5.09382H24.6953V3.48509H21.5564V5.09382ZM27.8352 5.09382H30.9741V3.48509H27.8352V5.09382ZM34.114 5.09382H37.2538V3.48509H34.114V5.09382ZM40.3928 5.09382H43.5326V3.48509H40.3928V5.09382ZM46.6715 5.09382H49.8114V3.48509H46.6715V5.09382ZM52.9503 5.09382H56.0902V3.48509H52.9503V5.09382ZM59.2291 5.09382H60.799V3.48509H59.2291V5.09382ZM60.799 5.09382C61.3052 5.09382 61.8056 5.11806 62.2982 5.16558L62.4543 3.56558C61.9093 3.51224 61.3576 3.48509 60.799 3.48509V5.09382ZM65.2364 5.7474C66.2022 6.04024 67.1283 6.42618 68.0029 6.89455L68.7622 5.47685C67.7954 4.95806 66.7714 4.5314 65.7028 4.20849L65.2364 5.7474ZM70.4921 8.56049C71.2659 9.19661 71.9758 9.90642 72.6109 10.6802L73.8541 9.65915C73.152 8.80485 72.3675 8.02037 71.5132 7.31831L70.4921 8.56049ZM74.2778 13.1695C74.7462 14.0441 75.1321 14.9702 75.425 15.936L76.9639 15.4696C76.64 14.401 76.2133 13.377 75.6955 12.4102L74.2778 13.1695ZM76.0058 18.8742C76.0543 19.3668 76.0786 19.8672 76.0786 20.3733H77.6873C77.6873 19.8148 77.6601 19.263 77.6068 18.7181L76.0058 18.8742ZM76.0786 20.3733V21.9481H77.6873V20.3733H76.0786ZM76.0786 25.0996V28.2502H77.6873V25.0996H76.0786ZM76.0786 31.4017V34.5522H77.6873V31.4017H76.0786ZM76.0786 37.7028V40.8543H77.6873V37.7028H76.0786ZM76.0786 44.0048V47.1564H77.6873V44.0048H76.0786ZM76.0786 50.3069V53.4575H77.6873V50.3069H76.0786ZM76.0786 56.609V59.7595H77.6873V56.609H76.0786ZM76.0786 62.911V66.0616H77.6873V62.911H76.0786ZM76.0786 69.2121V72.3636H77.6873V69.2121H76.0786ZM76.0786 75.5142V78.6657H77.6873V75.5142H76.0786ZM76.0786 81.8162V84.9678H77.6873V81.8162H76.0786Z" fill="#D67FBD" fill-opacity="0.6"/>
</svg>
