<svg width="26" height="26" viewBox="0 0 26 26" fill="none" xmlns="http://www.w3.org/2000/svg">
<rect width="26" height="26" rx="4" fill="white"/>
<path d="M22.7908 9.6998C22.7908 9.6998 22.5857 8.38984 21.9541 7.81465C21.1543 7.05762 20.2602 7.05391 19.85 7.00937C16.9133 6.81641 12.5041 6.81641 12.5041 6.81641H12.4959C12.4959 6.81641 8.08672 6.81641 5.15 7.00937C4.73984 7.05391 3.8457 7.05762 3.0459 7.81465C2.41426 8.38984 2.21328 9.6998 2.21328 9.6998C2.21328 9.6998 2 11.2398 2 12.7762V14.216C2 15.7523 2.20918 17.2924 2.20918 17.2924C2.20918 17.2924 2.41426 18.6023 3.0418 19.1775C3.8416 19.9346 4.8916 19.9086 5.35918 19.9902C7.04082 20.135 12.5 20.1795 12.5 20.1795C12.5 20.1795 16.9133 20.1721 19.85 19.9828C20.2602 19.9383 21.1543 19.9346 21.9541 19.1775C22.5857 18.6023 22.7908 17.2924 22.7908 17.2924C22.7908 17.2924 23 15.7561 23 14.216V12.7762C23 11.2398 22.7908 9.6998 22.7908 9.6998ZM10.3303 15.9639V10.6238L16.0027 13.3031L10.3303 15.9639Z" fill="black"/>
</svg>
